%TF.GenerationSoftware,KiCad,Pcbnew,(5.1.6)-1*%
%TF.CreationDate,2020-08-11T21:43:52+02:00*%
%TF.ProjectId,qosmosKbBIS,716f736d-6f73-44b6-9242-49532e6b6963,rev?*%
%TF.SameCoordinates,Original*%
%TF.FileFunction,Paste,Bot*%
%TF.FilePolarity,Positive*%
%FSLAX46Y46*%
G04 Gerber Fmt 4.6, Leading zero omitted, Abs format (unit mm)*
G04 Created by KiCad (PCBNEW (5.1.6)-1) date 2020-08-11 21:43:52*
%MOMM*%
%LPD*%
G01*
G04 APERTURE LIST*
%ADD10R,1.200000X1.200000*%
%ADD11R,0.550000X1.500000*%
%ADD12R,1.500000X0.550000*%
%ADD13C,0.100000*%
%ADD14R,1.700000X1.000000*%
G04 APERTURE END LIST*
D10*
%TO.C,D12*%
X200831250Y-47625000D03*
X203981250Y-47625000D03*
%TD*%
%TO.C,D2*%
X-5568750Y-73818750D03*
X-8718750Y-73818750D03*
%TD*%
%TO.C,D13*%
X219881250Y-47625000D03*
X223031250Y-47625000D03*
%TD*%
%TO.C,D14*%
X242081250Y-47625000D03*
X238931250Y-47625000D03*
%TD*%
%TO.C,D5*%
X65868750Y-47625000D03*
X62718750Y-47625000D03*
%TD*%
%TO.C,D15*%
X257981250Y-47625000D03*
X261131250Y-47625000D03*
%TD*%
%TO.C,D1*%
X-8718750Y-47625000D03*
X-5568750Y-47625000D03*
%TD*%
%TO.C,C7*%
G36*
G01*
X276675000Y-102843751D02*
X276675000Y-101943749D01*
G75*
G02*
X276924999Y-101693750I249999J0D01*
G01*
X277575001Y-101693750D01*
G75*
G02*
X277825000Y-101943749I0J-249999D01*
G01*
X277825000Y-102843751D01*
G75*
G02*
X277575001Y-103093750I-249999J0D01*
G01*
X276924999Y-103093750D01*
G75*
G02*
X276675000Y-102843751I0J249999D01*
G01*
G37*
G36*
G01*
X274625000Y-102843751D02*
X274625000Y-101943749D01*
G75*
G02*
X274874999Y-101693750I249999J0D01*
G01*
X275525001Y-101693750D01*
G75*
G02*
X275775000Y-101943749I0J-249999D01*
G01*
X275775000Y-102843751D01*
G75*
G02*
X275525001Y-103093750I-249999J0D01*
G01*
X274874999Y-103093750D01*
G75*
G02*
X274625000Y-102843751I0J249999D01*
G01*
G37*
%TD*%
%TO.C,D4*%
X46818750Y-47625000D03*
X43668750Y-47625000D03*
%TD*%
%TO.C,D6*%
X81768750Y-47625000D03*
X84918750Y-47625000D03*
%TD*%
%TO.C,D8*%
X115875000Y-47625000D03*
X112725000Y-47625000D03*
%TD*%
%TO.C,D9*%
X131775000Y-47625000D03*
X134925000Y-47625000D03*
%TD*%
%TO.C,D7*%
X13481250Y-73818750D03*
X10331250Y-73818750D03*
%TD*%
%TO.C,D10*%
X153975000Y-47625000D03*
X150825000Y-47625000D03*
%TD*%
%TO.C,C6*%
G36*
G01*
X293675000Y-102843751D02*
X293675000Y-101943749D01*
G75*
G02*
X293924999Y-101693750I249999J0D01*
G01*
X294575001Y-101693750D01*
G75*
G02*
X294825000Y-101943749I0J-249999D01*
G01*
X294825000Y-102843751D01*
G75*
G02*
X294575001Y-103093750I-249999J0D01*
G01*
X293924999Y-103093750D01*
G75*
G02*
X293675000Y-102843751I0J249999D01*
G01*
G37*
G36*
G01*
X295725000Y-102843751D02*
X295725000Y-101943749D01*
G75*
G02*
X295974999Y-101693750I249999J0D01*
G01*
X296625001Y-101693750D01*
G75*
G02*
X296875000Y-101943749I0J-249999D01*
G01*
X296875000Y-102843751D01*
G75*
G02*
X296625001Y-103093750I-249999J0D01*
G01*
X295974999Y-103093750D01*
G75*
G02*
X295725000Y-102843751I0J249999D01*
G01*
G37*
%TD*%
%TO.C,D3*%
X27768750Y-47625000D03*
X24618750Y-47625000D03*
%TD*%
%TO.C,C8*%
G36*
G01*
X279387500Y-102843751D02*
X279387500Y-101943749D01*
G75*
G02*
X279637499Y-101693750I249999J0D01*
G01*
X280287501Y-101693750D01*
G75*
G02*
X280537500Y-101943749I0J-249999D01*
G01*
X280537500Y-102843751D01*
G75*
G02*
X280287501Y-103093750I-249999J0D01*
G01*
X279637499Y-103093750D01*
G75*
G02*
X279387500Y-102843751I0J249999D01*
G01*
G37*
G36*
G01*
X281437500Y-102843751D02*
X281437500Y-101943749D01*
G75*
G02*
X281687499Y-101693750I249999J0D01*
G01*
X282337501Y-101693750D01*
G75*
G02*
X282587500Y-101943749I0J-249999D01*
G01*
X282587500Y-102843751D01*
G75*
G02*
X282337501Y-103093750I-249999J0D01*
G01*
X281687499Y-103093750D01*
G75*
G02*
X281437500Y-102843751I0J249999D01*
G01*
G37*
%TD*%
%TO.C,D11*%
X173025000Y-47625000D03*
X169875000Y-47625000D03*
%TD*%
%TO.C,R2*%
G36*
G01*
X279387500Y-126656251D02*
X279387500Y-125756249D01*
G75*
G02*
X279637499Y-125506250I249999J0D01*
G01*
X280287501Y-125506250D01*
G75*
G02*
X280537500Y-125756249I0J-249999D01*
G01*
X280537500Y-126656251D01*
G75*
G02*
X280287501Y-126906250I-249999J0D01*
G01*
X279637499Y-126906250D01*
G75*
G02*
X279387500Y-126656251I0J249999D01*
G01*
G37*
G36*
G01*
X281437500Y-126656251D02*
X281437500Y-125756249D01*
G75*
G02*
X281687499Y-125506250I249999J0D01*
G01*
X282337501Y-125506250D01*
G75*
G02*
X282587500Y-125756249I0J-249999D01*
G01*
X282587500Y-126656251D01*
G75*
G02*
X282337501Y-126906250I-249999J0D01*
G01*
X281687499Y-126906250D01*
G75*
G02*
X281437500Y-126656251I0J249999D01*
G01*
G37*
%TD*%
%TO.C,R1*%
G36*
G01*
X269531251Y-130518750D02*
X268631249Y-130518750D01*
G75*
G02*
X268381250Y-130268751I0J249999D01*
G01*
X268381250Y-129618749D01*
G75*
G02*
X268631249Y-129368750I249999J0D01*
G01*
X269531251Y-129368750D01*
G75*
G02*
X269781250Y-129618749I0J-249999D01*
G01*
X269781250Y-130268751D01*
G75*
G02*
X269531251Y-130518750I-249999J0D01*
G01*
G37*
G36*
G01*
X269531251Y-132568750D02*
X268631249Y-132568750D01*
G75*
G02*
X268381250Y-132318751I0J249999D01*
G01*
X268381250Y-131668749D01*
G75*
G02*
X268631249Y-131418750I249999J0D01*
G01*
X269531251Y-131418750D01*
G75*
G02*
X269781250Y-131668749I0J-249999D01*
G01*
X269781250Y-132318751D01*
G75*
G02*
X269531251Y-132568750I-249999J0D01*
G01*
G37*
%TD*%
D11*
%TO.C,U1*%
X276987500Y-108600000D03*
X277787500Y-108600000D03*
X278587500Y-108600000D03*
X279387500Y-108600000D03*
X280187500Y-108600000D03*
X280987500Y-108600000D03*
X281787500Y-108600000D03*
X282587500Y-108600000D03*
X283387500Y-108600000D03*
X284187500Y-108600000D03*
X284987500Y-108600000D03*
D12*
X286687500Y-110300000D03*
X286687500Y-111100000D03*
X286687500Y-111900000D03*
X286687500Y-112700000D03*
X286687500Y-113500000D03*
X286687500Y-114300000D03*
X286687500Y-115100000D03*
X286687500Y-115900000D03*
X286687500Y-116700000D03*
X286687500Y-117500000D03*
X286687500Y-118300000D03*
D11*
X284987500Y-120000000D03*
X284187500Y-120000000D03*
X283387500Y-120000000D03*
X282587500Y-120000000D03*
X281787500Y-120000000D03*
X280987500Y-120000000D03*
X280187500Y-120000000D03*
X279387500Y-120000000D03*
X278587500Y-120000000D03*
X277787500Y-120000000D03*
X276987500Y-120000000D03*
D12*
X275287500Y-118300000D03*
X275287500Y-117500000D03*
X275287500Y-116700000D03*
X275287500Y-115900000D03*
X275287500Y-115100000D03*
X275287500Y-114300000D03*
X275287500Y-113500000D03*
X275287500Y-112700000D03*
X275287500Y-111900000D03*
X275287500Y-111100000D03*
X275287500Y-110300000D03*
%TD*%
D13*
%TO.C,X1*%
G36*
X293066191Y-112638299D02*
G01*
X293914719Y-111789771D01*
X294904669Y-112779721D01*
X294056141Y-113628249D01*
X293066191Y-112638299D01*
G37*
G36*
X294763247Y-114335355D02*
G01*
X295611775Y-113486827D01*
X296601725Y-114476777D01*
X295753197Y-115325305D01*
X294763247Y-114335355D01*
G37*
G36*
X294268273Y-111436217D02*
G01*
X295116801Y-110587689D01*
X296106751Y-111577639D01*
X295258223Y-112426167D01*
X294268273Y-111436217D01*
G37*
G36*
X295965329Y-113133273D02*
G01*
X296813857Y-112284745D01*
X297803807Y-113274695D01*
X296955279Y-114123223D01*
X295965329Y-113133273D01*
G37*
%TD*%
%TO.C,R4*%
G36*
G01*
X299587499Y-111343750D02*
X300487501Y-111343750D01*
G75*
G02*
X300737500Y-111593749I0J-249999D01*
G01*
X300737500Y-112243751D01*
G75*
G02*
X300487501Y-112493750I-249999J0D01*
G01*
X299587499Y-112493750D01*
G75*
G02*
X299337500Y-112243751I0J249999D01*
G01*
X299337500Y-111593749D01*
G75*
G02*
X299587499Y-111343750I249999J0D01*
G01*
G37*
G36*
G01*
X299587499Y-109293750D02*
X300487501Y-109293750D01*
G75*
G02*
X300737500Y-109543749I0J-249999D01*
G01*
X300737500Y-110193751D01*
G75*
G02*
X300487501Y-110443750I-249999J0D01*
G01*
X299587499Y-110443750D01*
G75*
G02*
X299337500Y-110193751I0J249999D01*
G01*
X299337500Y-109543749D01*
G75*
G02*
X299587499Y-109293750I249999J0D01*
G01*
G37*
%TD*%
%TO.C,R3*%
G36*
G01*
X299587499Y-103175000D02*
X300487501Y-103175000D01*
G75*
G02*
X300737500Y-103424999I0J-249999D01*
G01*
X300737500Y-104075001D01*
G75*
G02*
X300487501Y-104325000I-249999J0D01*
G01*
X299587499Y-104325000D01*
G75*
G02*
X299337500Y-104075001I0J249999D01*
G01*
X299337500Y-103424999D01*
G75*
G02*
X299587499Y-103175000I249999J0D01*
G01*
G37*
G36*
G01*
X299587499Y-105225000D02*
X300487501Y-105225000D01*
G75*
G02*
X300737500Y-105474999I0J-249999D01*
G01*
X300737500Y-106125001D01*
G75*
G02*
X300487501Y-106375000I-249999J0D01*
G01*
X299587499Y-106375000D01*
G75*
G02*
X299337500Y-106125001I0J249999D01*
G01*
X299337500Y-105474999D01*
G75*
G02*
X299587499Y-105225000I249999J0D01*
G01*
G37*
%TD*%
D14*
%TO.C,SW1*%
X275456250Y-132868750D03*
X281756250Y-132868750D03*
X275456250Y-129068750D03*
X281756250Y-129068750D03*
%TD*%
D10*
%TO.C,D30*%
X248456250Y-73818750D03*
X251606250Y-73818750D03*
%TD*%
%TO.C,D31*%
X283856250Y-73818750D03*
X287006250Y-73818750D03*
%TD*%
%TO.C,D32*%
X306375000Y-73818750D03*
X303225000Y-73818750D03*
%TD*%
%TO.C,D33*%
X322275000Y-73818750D03*
X325425000Y-73818750D03*
%TD*%
%TO.C,D18*%
X325425000Y-47625000D03*
X322275000Y-47625000D03*
%TD*%
%TO.C,D20*%
X51581250Y-73818750D03*
X48431250Y-73818750D03*
%TD*%
%TO.C,D16*%
X287325000Y-47625000D03*
X284175000Y-47625000D03*
%TD*%
%TO.C,D22*%
X89681250Y-73818750D03*
X86531250Y-73818750D03*
%TD*%
%TO.C,D25*%
X146831250Y-73818750D03*
X143681250Y-73818750D03*
%TD*%
%TO.C,D26*%
X162731250Y-73818750D03*
X165881250Y-73818750D03*
%TD*%
%TO.C,D23*%
X105581250Y-73818750D03*
X108731250Y-73818750D03*
%TD*%
%TO.C,D27*%
X181781250Y-73818750D03*
X184931250Y-73818750D03*
%TD*%
%TO.C,D19*%
X32531250Y-73818750D03*
X29381250Y-73818750D03*
%TD*%
%TO.C,D21*%
X70631250Y-73818750D03*
X67481250Y-73818750D03*
%TD*%
%TO.C,D29*%
X223031250Y-73818750D03*
X219881250Y-73818750D03*
%TD*%
%TO.C,D24*%
X124631250Y-73818750D03*
X127781250Y-73818750D03*
%TD*%
%TO.C,D28*%
X203981250Y-73818750D03*
X200831250Y-73818750D03*
%TD*%
%TO.C,D17*%
X306375000Y-47625000D03*
X303225000Y-47625000D03*
%TD*%
%TO.C,D48*%
X303225000Y-92868750D03*
X306375000Y-92868750D03*
%TD*%
%TO.C,D42*%
X156356250Y-92868750D03*
X153206250Y-92868750D03*
%TD*%
%TO.C,D43*%
X175406250Y-92868750D03*
X172256250Y-92868750D03*
%TD*%
%TO.C,D45*%
X210356250Y-92868750D03*
X213506250Y-92868750D03*
%TD*%
%TO.C,D49*%
X322275000Y-92868750D03*
X325425000Y-92868750D03*
%TD*%
%TO.C,D41*%
X134156250Y-92868750D03*
X137306250Y-92868750D03*
%TD*%
%TO.C,D50*%
X255600000Y-102393750D03*
X258750000Y-102393750D03*
%TD*%
%TO.C,D51*%
X1575000Y-111918750D03*
X-1575000Y-111918750D03*
%TD*%
%TO.C,D40*%
X115106250Y-92868750D03*
X118256250Y-92868750D03*
%TD*%
%TO.C,D44*%
X191306250Y-92868750D03*
X194456250Y-92868750D03*
%TD*%
%TO.C,D37*%
X61106250Y-92868750D03*
X57956250Y-92868750D03*
%TD*%
%TO.C,D39*%
X99206250Y-92868750D03*
X96056250Y-92868750D03*
%TD*%
%TO.C,D46*%
X229406250Y-92868750D03*
X232556250Y-92868750D03*
%TD*%
%TO.C,D34*%
X-806250Y-92868750D03*
X-3956250Y-92868750D03*
%TD*%
%TO.C,D35*%
X23006250Y-92868750D03*
X19856250Y-92868750D03*
%TD*%
%TO.C,D36*%
X42056250Y-92868750D03*
X38906250Y-92868750D03*
%TD*%
%TO.C,D38*%
X79837500Y-92868750D03*
X76687500Y-92868750D03*
%TD*%
%TO.C,D47*%
X284175000Y-92868750D03*
X287325000Y-92868750D03*
%TD*%
%TO.C,D58*%
X138600000Y-111918750D03*
X141750000Y-111918750D03*
%TD*%
%TO.C,D57*%
X119868750Y-111918750D03*
X123018750Y-111918750D03*
%TD*%
%TO.C,D59*%
X161118750Y-111918750D03*
X157968750Y-111918750D03*
%TD*%
%TO.C,D62*%
X215118750Y-111918750D03*
X218268750Y-111918750D03*
%TD*%
%TO.C,D65*%
X18243750Y-130968750D03*
X15093750Y-130968750D03*
%TD*%
%TO.C,D63*%
X234168750Y-111918750D03*
X237318750Y-111918750D03*
%TD*%
%TO.C,D53*%
X46818750Y-111918750D03*
X43668750Y-111918750D03*
%TD*%
%TO.C,D60*%
X180168750Y-111918750D03*
X177018750Y-111918750D03*
%TD*%
%TO.C,D66*%
X33825000Y-130968750D03*
X36975000Y-130968750D03*
%TD*%
%TO.C,D52*%
X24618750Y-111918750D03*
X27768750Y-111918750D03*
%TD*%
%TO.C,D67*%
X53193750Y-130968750D03*
X56343750Y-130968750D03*
%TD*%
%TO.C,D68*%
X72243750Y-130968750D03*
X75393750Y-130968750D03*
%TD*%
%TO.C,D56*%
X100818750Y-111918750D03*
X103968750Y-111918750D03*
%TD*%
%TO.C,D61*%
X196068750Y-111918750D03*
X199218750Y-111918750D03*
%TD*%
%TO.C,D64*%
X-6337500Y-130968750D03*
X-3187500Y-130968750D03*
%TD*%
%TO.C,D54*%
X62718750Y-111918750D03*
X65868750Y-111918750D03*
%TD*%
%TO.C,D55*%
X84918750Y-111918750D03*
X81768750Y-111918750D03*
%TD*%
%TO.C,D69*%
X91293750Y-130968750D03*
X94443750Y-130968750D03*
%TD*%
%TO.C,D82*%
X184162500Y-150018750D03*
X187312500Y-150018750D03*
%TD*%
%TO.C,D77*%
X303225000Y-130968750D03*
X306375000Y-130968750D03*
%TD*%
%TO.C,D70*%
X113493750Y-130968750D03*
X110343750Y-130968750D03*
%TD*%
%TO.C,D83*%
X211125000Y-150018750D03*
X207975000Y-150018750D03*
%TD*%
%TO.C,D84*%
X231787500Y-150018750D03*
X234937500Y-150018750D03*
%TD*%
%TO.C,D76*%
X241312500Y-130968750D03*
X244462500Y-130968750D03*
%TD*%
%TO.C,D79*%
X20625000Y-150018750D03*
X17475000Y-150018750D03*
%TD*%
%TO.C,D81*%
X115875000Y-150018750D03*
X112725000Y-150018750D03*
%TD*%
%TO.C,D72*%
X151593750Y-130968750D03*
X148443750Y-130968750D03*
%TD*%
%TO.C,D80*%
X44437500Y-150018750D03*
X41287500Y-150018750D03*
%TD*%
%TO.C,D85*%
X255600000Y-150018750D03*
X258750000Y-150018750D03*
%TD*%
%TO.C,D86*%
X284175000Y-150018750D03*
X287325000Y-150018750D03*
%TD*%
%TO.C,D87*%
X306375000Y-150018750D03*
X303225000Y-150018750D03*
%TD*%
%TO.C,D71*%
X129393750Y-130968750D03*
X132543750Y-130968750D03*
%TD*%
%TO.C,D73*%
X170643750Y-130968750D03*
X167493750Y-130968750D03*
%TD*%
%TO.C,D75*%
X205593750Y-130968750D03*
X208743750Y-130968750D03*
%TD*%
%TO.C,D78*%
X-6337500Y-150018750D03*
X-3187500Y-150018750D03*
%TD*%
%TO.C,D74*%
X189693750Y-130968750D03*
X186543750Y-130968750D03*
%TD*%
%TO.C,D88*%
X325743750Y-150018750D03*
X322593750Y-150018750D03*
%TD*%
%TO.C,C3*%
G36*
G01*
X274625000Y-126656251D02*
X274625000Y-125756249D01*
G75*
G02*
X274874999Y-125506250I249999J0D01*
G01*
X275525001Y-125506250D01*
G75*
G02*
X275775000Y-125756249I0J-249999D01*
G01*
X275775000Y-126656251D01*
G75*
G02*
X275525001Y-126906250I-249999J0D01*
G01*
X274874999Y-126906250D01*
G75*
G02*
X274625000Y-126656251I0J249999D01*
G01*
G37*
G36*
G01*
X276675000Y-126656251D02*
X276675000Y-125756249D01*
G75*
G02*
X276924999Y-125506250I249999J0D01*
G01*
X277575001Y-125506250D01*
G75*
G02*
X277825000Y-125756249I0J-249999D01*
G01*
X277825000Y-126656251D01*
G75*
G02*
X277575001Y-126906250I-249999J0D01*
G01*
X276924999Y-126906250D01*
G75*
G02*
X276675000Y-126656251I0J249999D01*
G01*
G37*
%TD*%
%TO.C,C4*%
G36*
G01*
X286200000Y-126656251D02*
X286200000Y-125756249D01*
G75*
G02*
X286449999Y-125506250I249999J0D01*
G01*
X287100001Y-125506250D01*
G75*
G02*
X287350000Y-125756249I0J-249999D01*
G01*
X287350000Y-126656251D01*
G75*
G02*
X287100001Y-126906250I-249999J0D01*
G01*
X286449999Y-126906250D01*
G75*
G02*
X286200000Y-126656251I0J249999D01*
G01*
G37*
G36*
G01*
X284150000Y-126656251D02*
X284150000Y-125756249D01*
G75*
G02*
X284399999Y-125506250I249999J0D01*
G01*
X285050001Y-125506250D01*
G75*
G02*
X285300000Y-125756249I0J-249999D01*
G01*
X285300000Y-126656251D01*
G75*
G02*
X285050001Y-126906250I-249999J0D01*
G01*
X284399999Y-126906250D01*
G75*
G02*
X284150000Y-126656251I0J249999D01*
G01*
G37*
%TD*%
%TO.C,C2*%
G36*
G01*
X296875000Y-118612499D02*
X296875000Y-119512501D01*
G75*
G02*
X296625001Y-119762500I-249999J0D01*
G01*
X295974999Y-119762500D01*
G75*
G02*
X295725000Y-119512501I0J249999D01*
G01*
X295725000Y-118612499D01*
G75*
G02*
X295974999Y-118362500I249999J0D01*
G01*
X296625001Y-118362500D01*
G75*
G02*
X296875000Y-118612499I0J-249999D01*
G01*
G37*
G36*
G01*
X294825000Y-118612499D02*
X294825000Y-119512501D01*
G75*
G02*
X294575001Y-119762500I-249999J0D01*
G01*
X293924999Y-119762500D01*
G75*
G02*
X293675000Y-119512501I0J249999D01*
G01*
X293675000Y-118612499D01*
G75*
G02*
X293924999Y-118362500I249999J0D01*
G01*
X294575001Y-118362500D01*
G75*
G02*
X294825000Y-118612499I0J-249999D01*
G01*
G37*
%TD*%
%TO.C,C5*%
G36*
G01*
X286200000Y-102843751D02*
X286200000Y-101943749D01*
G75*
G02*
X286449999Y-101693750I249999J0D01*
G01*
X287100001Y-101693750D01*
G75*
G02*
X287350000Y-101943749I0J-249999D01*
G01*
X287350000Y-102843751D01*
G75*
G02*
X287100001Y-103093750I-249999J0D01*
G01*
X286449999Y-103093750D01*
G75*
G02*
X286200000Y-102843751I0J249999D01*
G01*
G37*
G36*
G01*
X284150000Y-102843751D02*
X284150000Y-101943749D01*
G75*
G02*
X284399999Y-101693750I249999J0D01*
G01*
X285050001Y-101693750D01*
G75*
G02*
X285300000Y-101943749I0J-249999D01*
G01*
X285300000Y-102843751D01*
G75*
G02*
X285050001Y-103093750I-249999J0D01*
G01*
X284399999Y-103093750D01*
G75*
G02*
X284150000Y-102843751I0J249999D01*
G01*
G37*
%TD*%
%TO.C,C1*%
G36*
G01*
X294825000Y-106706249D02*
X294825000Y-107606251D01*
G75*
G02*
X294575001Y-107856250I-249999J0D01*
G01*
X293924999Y-107856250D01*
G75*
G02*
X293675000Y-107606251I0J249999D01*
G01*
X293675000Y-106706249D01*
G75*
G02*
X293924999Y-106456250I249999J0D01*
G01*
X294575001Y-106456250D01*
G75*
G02*
X294825000Y-106706249I0J-249999D01*
G01*
G37*
G36*
G01*
X296875000Y-106706249D02*
X296875000Y-107606251D01*
G75*
G02*
X296625001Y-107856250I-249999J0D01*
G01*
X295974999Y-107856250D01*
G75*
G02*
X295725000Y-107606251I0J249999D01*
G01*
X295725000Y-106706249D01*
G75*
G02*
X295974999Y-106456250I249999J0D01*
G01*
X296625001Y-106456250D01*
G75*
G02*
X296875000Y-106706249I0J-249999D01*
G01*
G37*
%TD*%
M02*
