M48
; DRILL file {KiCad (5.1.6)-1} date 08/11/20 21:45:10
; FORMAT={-:-/ absolute / inch / decimal}
; #@! TF.CreationDate,2020-08-11T21:45:10+02:00
; #@! TF.GenerationSoftware,Kicad,Pcbnew,(5.1.6)-1
FMAT,2
INCH
T1C0.0157
T2C0.0276
T3C0.0362
T4C0.0591
T5C0.0866
T6C0.0917
T7C0.0669
T8C0.1201
T9C0.1575
%
G90
G05
T1
X1.1895Y-5.9173
X1.3125Y-5.9062
X4.7812Y-1.4062
X5.034Y-1.3777
X8.9062Y-5.5312
X9.4688Y-1.9688
X9.6562Y-3.375
X9.75Y-3.75
X9.75Y-4.4062
X9.75Y-4.5938
X9.8438Y-4.6875
X9.8438Y-5.4375
X9.9375Y-4.6875
X10.3125Y-4.4062
X10.5Y-1.4062
X10.5394Y-1.4064
X10.5652Y-3.8438
X10.5938Y-1.4062
X10.5938Y-3.75
X10.5938Y-4.2188
X10.6875Y-4.6875
X10.6875Y-5.1562
X10.7672Y-4.4715
X10.7812Y-4.0312
X10.7812Y-4.3125
X10.7812Y-4.6875
X10.7812Y-4.9688
X10.875Y-4.7812
X10.8809Y-5.016
X10.9402Y-4.8344
X10.9665Y-4.6713
X10.9688Y-4.125
X10.9688Y-4.2188
X10.9688Y-4.4062
X10.9688Y-4.5938
X10.9688Y-4.7812
X10.9952Y-4.6443
X10.9973Y-4.8524
X11.0355Y-4.2188
X11.0609Y-4.6713
X11.0625Y-3.9375
X11.0625Y-5.4375
X11.0724Y-4.8849
X11.0926Y-4.2188
X11.1416Y-4.4062
X11.1562Y-3.9375
X11.1562Y-4.2188
X11.1562Y-4.6713
X11.1562Y-4.9688
X11.1562Y-5.0775
X11.2014Y-3.8804
X11.2338Y-4.5016
X11.2383Y-4.3777
X11.2489Y-4.6904
X11.25Y-4.875
X11.3438Y-3.9375
X11.3438Y-4.875
X11.4375Y-4.3125
X11.4375Y-4.4062
X11.4375Y-5.4375
X11.5312Y-2.4375
X11.5312Y-2.625
X11.5312Y-3.0938
X11.5312Y-3.375
X11.5312Y-3.8438
X11.5312Y-4.0312
X11.6195Y-4.5993
X11.6902Y-4.1188
X11.7188Y-3.0938
X11.7188Y-3.375
X11.7188Y-3.8438
X11.7188Y-3.9375
X11.7188Y-4.3125
X11.7217Y-4.3522
X11.9062Y-4.5938
X12.99Y-3.8963
T2
X-0.341Y-5.9062
X-0.034Y-5.9062
X6.6902Y-3.6562
X6.9973Y-3.6562
X4.8152Y-2.9062
X5.1223Y-2.9062
X1.0652Y-2.9062
X1.3723Y-2.9062
X11.8465Y-3.6562
X12.1535Y-3.6562
X11.0965Y-3.6562
X11.4035Y-3.6562
X1.4402Y-3.6562
X1.7473Y-3.6562
X3.1277Y-4.4062
X3.4348Y-4.4062
X5.0965Y-1.875
X5.4035Y-1.875
X4.2527Y-5.1562
X4.5598Y-5.1562
X0.8777Y-1.875
X1.1848Y-1.875
X9.9715Y-5.9062
X10.2785Y-5.9062
X2.5652Y-2.9062
X2.8723Y-2.9062
X7.8152Y-2.9062
X8.1223Y-2.9062
X5.5652Y-2.9062
X5.8723Y-2.9062
X-0.2473Y-3.6562
X0.0598Y-3.6562
X7.0652Y-2.9062
X7.3723Y-2.9062
X-0.1535Y-4.4062
X0.1535Y-4.4062
X0.5027Y-5.1562
X0.8098Y-5.1562
X0.6902Y-3.6562
X0.9973Y-3.6562
X8.3777Y-4.4062
X8.6848Y-4.4062
X-0.341Y-5.1562
X-0.034Y-5.1562
X4.3465Y-1.875
X4.6535Y-1.875
X11.0965Y-5.9062
X11.4035Y-5.9062
X2.3777Y-1.875
X2.6848Y-1.875
X8.5652Y-1.875
X8.8723Y-1.875
X11.8465Y-2.9062
X12.1535Y-2.9062
X11.8465Y-1.875
X12.1535Y-1.875
X11.0965Y-1.875
X11.4035Y-1.875
X8.9402Y-3.6562
X9.2473Y-3.6562
X6.3152Y-2.9062
X6.6223Y-2.9062
X2.9277Y-3.6562
X3.2347Y-3.6562
X1.2402Y-5.1562
X1.5472Y-5.1562
X6.1277Y-4.4062
X6.4348Y-4.4062
X9.3152Y-1.875
X9.6223Y-1.875
X3.5027Y-5.1562
X3.8098Y-5.1562
X5.7527Y-5.1562
X6.0598Y-5.1562
X-0.4348Y-1.875
X-0.1277Y-1.875
X-0.4348Y-2.9062
X-0.1277Y-2.9062
X8.0027Y-5.1562
X8.3098Y-5.1562
X8.1902Y-3.6562
X8.4973Y-3.6562
X11.0839Y-2.9062
X11.391Y-2.9062
X2.1902Y-3.6562
X2.4973Y-3.6562
X3.8777Y-4.4062
X4.1848Y-4.4062
X5.3652Y-4.4062
X5.6722Y-4.4062
X0.8777Y-4.4062
X1.1848Y-4.4062
X0.5965Y-5.9062
X0.9035Y-5.9062
X0.3152Y-2.9062
X0.6223Y-2.9062
X8.0965Y-5.9062
X8.4035Y-5.9062
X7.8152Y-1.875
X8.1223Y-1.875
X1.8152Y-2.9062
X2.1223Y-2.9062
X5.9402Y-3.6562
X6.2473Y-3.6562
X12.5965Y-2.9062
X12.9035Y-2.9062
X7.4402Y-3.6562
X7.7473Y-3.6562
X2.7527Y-5.1562
X3.0598Y-5.1562
X4.6277Y-4.4062
X4.9348Y-4.4062
X7.6277Y-4.4062
X7.9348Y-4.4062
X4.3465Y-5.9062
X4.6535Y-5.9062
X6.5965Y-1.875
X6.9035Y-1.875
X5.0027Y-5.1562
X5.3098Y-5.1562
X2.3777Y-4.4062
X2.6848Y-4.4062
X7.2527Y-5.1562
X7.5598Y-5.1562
X12.609Y-5.9062
X12.9161Y-5.9062
X9.9715Y-4.0312
X10.2785Y-4.0312
X12.5965Y-1.875
X12.9035Y-1.875
X12.5965Y-3.6562
X12.9035Y-3.6562
X3.3152Y-2.9062
X3.6223Y-2.9062
X3.6902Y-3.6562
X3.9973Y-3.6562
X9.1277Y-4.4062
X9.4348Y-4.4062
X6.8777Y-4.4062
X7.1848Y-4.4062
X9.409Y-5.1562
X9.716Y-5.1562
X5.8465Y-1.875
X6.1535Y-1.875
X11.8465Y-5.9062
X12.1535Y-5.9062
X3.1277Y-1.875
X3.4348Y-1.875
X9.034Y-5.9062
X9.341Y-5.9062
X10.0652Y-1.875
X10.3723Y-1.875
X6.5027Y-5.1562
X6.8098Y-5.1562
X5.1902Y-3.6562
X5.4973Y-3.6562
X9.6902Y-2.9062
X9.9973Y-2.9062
X8.5652Y-2.9062
X8.8723Y-2.9062
X4.0652Y-2.9062
X4.3723Y-2.9062
X4.4402Y-3.6562
X4.7473Y-3.6562
X2.0027Y-5.1562
X2.3098Y-5.1562
X1.6277Y-4.4062
X1.9348Y-4.4062
X7.159Y-5.9062
X7.466Y-5.9062
X1.6277Y-1.875
X1.9348Y-1.875
X1.534Y-5.9062
X1.841Y-5.9062
X11.8465Y-5.1562
X12.1535Y-5.1562
T3
X3.8388Y-1.3254
X3.8388Y-1.4042
X3.9372Y-1.3254
X3.9372Y-1.4042
T4
X5.5625Y-2.6313
X5.8125Y-2.5312
X1.4375Y-3.3813
X1.6875Y-3.2812
X8.5625Y-1.6
X8.8125Y-1.5
X4.625Y-4.1312
X4.875Y-4.0312
X8.0938Y-5.6312
X8.3438Y-5.5312
X-0.25Y-3.3813
X0.0Y-3.2812
X7.1562Y-5.6312
X7.4062Y-5.5312
X3.125Y-4.1312
X3.375Y-4.0312
X7.625Y-4.1312
X7.875Y-4.0312
X2.5625Y-2.6313
X2.8125Y-2.5312
X-0.3438Y-5.6312
X-0.0938Y-5.5312
X8.1875Y-3.3813
X8.4375Y-3.2812
X-0.4375Y-2.6313
X-0.1875Y-2.5312
X9.9688Y-5.6312
X10.2188Y-5.5312
X4.3438Y-5.6312
X4.5938Y-5.5312
X7.0625Y-2.6313
X7.3125Y-2.5312
X1.25Y-4.8812
X1.5Y-4.7812
X9.3125Y-1.6
X9.5625Y-1.5
X3.6875Y-3.3813
X3.9375Y-3.2812
X5.9375Y-3.3813
X6.1875Y-3.2812
X4.0625Y-2.6313
X4.3125Y-2.5312
X0.6875Y-3.3813
X0.9375Y-3.2812
X11.8438Y-3.3813
X12.0938Y-3.2812
X-0.4375Y-1.6
X-0.1875Y-1.5
X11.8438Y-4.8812
X12.0938Y-4.7812
X-0.3438Y-4.8812
X-0.0938Y-4.7812
X3.125Y-1.6
X3.375Y-1.5
X0.3125Y-2.6313
X0.5625Y-2.5312
X10.0625Y-1.6
X10.3125Y-1.5
X8.9375Y-3.3813
X9.1875Y-3.2812
X7.8125Y-1.6
X8.0625Y-1.5
X5.75Y-4.8812
X6.0Y-4.7812
X9.125Y-4.1312
X9.375Y-4.0312
X6.3125Y-2.6313
X6.5625Y-2.5312
X0.5Y-4.8812
X0.75Y-4.7812
X4.25Y-4.8812
X4.5Y-4.7812
X11.0938Y-3.3813
X11.3438Y-3.2812
X11.0938Y-1.6
X11.3438Y-1.5
X9.0312Y-5.6312
X9.2812Y-5.5312
X2.375Y-4.1312
X2.625Y-4.0312
X1.0625Y-2.6313
X1.3125Y-2.5312
X6.6875Y-3.3813
X6.9375Y-3.2812
X11.0938Y-2.6313
X11.3438Y-2.5312
X12.5938Y-3.3813
X12.8438Y-3.2812
X5.8438Y-1.6
X6.0938Y-1.5
X6.875Y-4.1312
X7.125Y-4.0312
X9.9688Y-3.7563
X10.2188Y-3.6562
X7.8125Y-2.6313
X8.0625Y-2.5312
X5.375Y-4.1312
X5.625Y-4.0312
X8.375Y-4.1312
X8.625Y-4.0312
X4.3438Y-1.6
X4.5938Y-1.5
X5.0Y-4.8812
X5.25Y-4.7812
X3.3125Y-2.6313
X3.5625Y-2.5312
X4.4375Y-3.3813
X4.6875Y-3.2812
X11.8438Y-1.6
X12.0938Y-1.5
X2.1875Y-3.3813
X2.4375Y-3.2812
X12.5938Y-1.6
X12.8438Y-1.5
X6.5Y-4.8812
X6.75Y-4.7812
X9.4062Y-4.8812
X9.6562Y-4.7812
X9.6875Y-2.6313
X9.9375Y-2.5312
X0.5938Y-5.6312
X0.8438Y-5.5312
X6.125Y-4.1312
X6.375Y-4.0312
X11.8438Y-2.6313
X12.0938Y-2.5312
X2.0Y-4.8812
X2.25Y-4.7812
X2.375Y-1.6
X2.625Y-1.5
X1.625Y-4.1312
X1.875Y-4.0312
X0.875Y-1.6
X1.125Y-1.5
X7.4375Y-3.3813
X7.6875Y-3.2812
X12.5938Y-5.6312
X12.8438Y-5.5312
X2.75Y-4.8812
X3.0Y-4.7812
X7.25Y-4.8812
X7.5Y-4.7812
X-0.1562Y-4.1312
X0.0938Y-4.0312
X4.8125Y-2.6313
X5.0625Y-2.5312
X3.5Y-4.8812
X3.75Y-4.7812
X6.5938Y-1.6
X6.8438Y-1.5
X12.5938Y-2.6313
X12.8438Y-2.5312
X5.0938Y-1.6
X5.3438Y-1.5
X3.875Y-4.1312
X4.125Y-4.0312
X11.0938Y-5.6312
X11.3438Y-5.5312
X1.625Y-1.6
X1.875Y-1.5
X8.0Y-4.8812
X8.25Y-4.7812
X5.1875Y-3.3813
X5.4375Y-3.2812
X2.9375Y-3.3813
X3.1875Y-3.2812
X8.5625Y-2.6313
X8.8125Y-2.5312
X1.5312Y-5.6312
X1.7812Y-5.5312
X0.875Y-4.1312
X1.125Y-4.0312
X1.8125Y-2.6313
X2.0625Y-2.5312
X11.8438Y-5.6312
X12.0938Y-5.5312
T5
X-0.75Y-6.1875
X4.5Y-1.2188
X4.7812Y-1.125
X7.5Y-6.2812
X5.3438Y-1.125
X13.2188Y-6.1875
X-0.75Y-1.2188
X4.0312Y-6.2812
X5.1562Y-1.125
X13.2188Y-1.2188
X4.9688Y-1.125
T6
X3.651Y-1.2188
X4.125Y-1.2188
T7
X7.0125Y-2.7312
X7.4125Y-2.7312
X1.2Y-4.9813
X1.6Y-4.9813
X9.2625Y-1.7
X9.6625Y-1.7
X3.6375Y-3.4812
X4.0375Y-3.4812
X5.8875Y-3.4812
X6.2875Y-3.4812
X4.0125Y-2.7312
X4.4125Y-2.7312
X0.6375Y-3.4812
X1.0375Y-3.4812
X11.7937Y-3.4812
X12.1937Y-3.4812
X-0.4875Y-1.7
X-0.0875Y-1.7
X11.7937Y-4.9813
X12.1937Y-4.9813
X-0.3937Y-4.9813
X0.0062Y-4.9813
X3.075Y-1.7
X3.475Y-1.7
X0.2625Y-2.7312
X0.6625Y-2.7312
X10.0125Y-1.7
X10.4125Y-1.7
X8.8875Y-3.4812
X9.2875Y-3.4812
X7.7625Y-1.7
X8.1625Y-1.7
X5.7Y-4.9813
X6.1Y-4.9813
X9.075Y-4.2313
X9.475Y-4.2313
X6.2625Y-2.7312
X6.6625Y-2.7312
X0.45Y-4.9813
X0.85Y-4.9813
X4.2Y-4.9813
X4.6Y-4.9813
X11.0437Y-3.4812
X11.4437Y-3.4812
X11.0437Y-1.7
X11.4437Y-1.7
X8.9812Y-5.7313
X9.3812Y-5.7313
X2.325Y-4.2313
X2.725Y-4.2313
X1.0125Y-2.7312
X1.4125Y-2.7312
X6.6375Y-3.4812
X7.0375Y-3.4812
X11.0437Y-2.7312
X11.4437Y-2.7312
X12.5437Y-3.4812
X12.9437Y-3.4812
X5.7938Y-1.7
X6.1937Y-1.7
X6.825Y-4.2313
X7.225Y-4.2313
X9.9187Y-3.8562
X10.3187Y-3.8562
X7.7625Y-2.7312
X8.1625Y-2.7312
X5.325Y-4.2313
X5.725Y-4.2313
X8.325Y-4.2313
X8.725Y-4.2313
X4.2938Y-1.7
X4.6937Y-1.7
X4.95Y-4.9813
X5.35Y-4.9813
X3.2625Y-2.7312
X3.6625Y-2.7312
X4.3875Y-3.4812
X4.7875Y-3.4812
X11.7937Y-1.7
X12.1937Y-1.7
X2.1375Y-3.4812
X2.5375Y-3.4812
X12.5437Y-1.7
X12.9437Y-1.7
X6.45Y-4.9813
X6.85Y-4.9813
X9.3562Y-4.9813
X9.7562Y-4.9813
X9.6375Y-2.7312
X10.0375Y-2.7312
X0.5437Y-5.7313
X0.9437Y-5.7313
X6.075Y-4.2313
X6.475Y-4.2313
X11.7937Y-2.7312
X12.1937Y-2.7312
X1.95Y-4.9813
X2.35Y-4.9813
X2.325Y-1.7
X2.725Y-1.7
X1.575Y-4.2313
X1.975Y-4.2313
X0.825Y-1.7
X1.225Y-1.7
X7.3875Y-3.4812
X7.7875Y-3.4812
X12.5437Y-5.7313
X12.9437Y-5.7313
X2.7Y-4.9813
X3.1Y-4.9813
X7.2Y-4.9813
X7.6Y-4.9813
X-0.2062Y-4.2313
X0.1938Y-4.2313
X4.7625Y-2.7312
X5.1625Y-2.7312
X3.45Y-4.9813
X3.85Y-4.9813
X6.5438Y-1.7
X6.9437Y-1.7
X12.5437Y-2.7312
X12.9437Y-2.7312
X5.0438Y-1.7
X5.4437Y-1.7
X3.825Y-4.2313
X4.225Y-4.2313
X11.0437Y-5.7313
X11.4437Y-5.7313
X1.575Y-1.7
X1.975Y-1.7
X7.95Y-4.9813
X8.35Y-4.9813
X5.1375Y-3.4812
X5.5375Y-3.4812
X2.8875Y-3.4812
X3.2875Y-3.4812
X8.5125Y-2.7312
X8.9125Y-2.7312
X1.4812Y-5.7313
X1.8812Y-5.7313
X0.825Y-4.2313
X1.225Y-4.2313
X1.7625Y-2.7312
X2.1625Y-2.7312
X11.7937Y-5.7313
X12.1937Y-5.7313
X5.5125Y-2.7312
X5.9125Y-2.7312
X1.3875Y-3.4812
X1.7875Y-3.4812
X8.5125Y-1.7
X8.9125Y-1.7
X4.575Y-4.2313
X4.975Y-4.2313
X8.0437Y-5.7313
X8.4437Y-5.7313
X-0.3Y-3.4812
X0.1Y-3.4812
X7.1063Y-5.7313
X7.5062Y-5.7313
X3.075Y-4.2313
X3.475Y-4.2313
X7.575Y-4.2313
X7.975Y-4.2313
X2.5125Y-2.7312
X2.9125Y-2.7312
X-0.3937Y-5.7313
X0.0062Y-5.7313
X8.1375Y-3.4812
X8.5375Y-3.4812
X-0.4875Y-2.7312
X-0.0875Y-2.7312
X9.9187Y-5.7313
X10.3187Y-5.7313
X4.2938Y-5.7313
X4.6937Y-5.7313
T8
X9.0877Y-4.7057
X10.0248Y-4.7057
X9.369Y-2.4557
X10.306Y-2.4557
X2.5252Y-5.4557
X6.4623Y-5.4557
X9.8432Y-3.3877
X9.8432Y-4.3248
T9
X7.2125Y-2.7312
X1.4Y-4.9813
X9.4625Y-1.7
X3.8375Y-3.4812
X6.0875Y-3.4812
X4.2125Y-2.7312
X0.8375Y-3.4812
X11.9938Y-3.4812
X-0.2875Y-1.7
X11.9938Y-4.9813
X-0.1938Y-4.9813
X3.275Y-1.7
X0.4625Y-2.7312
X10.2125Y-1.7
X9.0875Y-3.4812
X7.9625Y-1.7
X5.9Y-4.9813
X9.275Y-4.2313
X6.4625Y-2.7312
X0.65Y-4.9813
X4.4Y-4.9813
X11.2438Y-3.4812
X11.2438Y-1.7
X9.1813Y-5.7313
X2.525Y-4.2313
X1.2125Y-2.7312
X6.8375Y-3.4812
X11.2438Y-2.7312
X12.7438Y-3.4812
X5.9937Y-1.7
X7.025Y-4.2313
X10.1188Y-3.8562
X10.4432Y-3.3877
X10.4432Y-4.3248
X7.9625Y-2.7312
X5.525Y-4.2313
X8.525Y-4.2313
X4.4937Y-1.7
X5.15Y-4.9813
X3.4625Y-2.7312
X4.5875Y-3.4812
X11.9938Y-1.7
X2.3375Y-3.4812
X12.7438Y-1.7
X6.65Y-4.9813
X9.0877Y-5.3057
X9.5563Y-4.9813
X10.0248Y-5.3057
X9.369Y-3.0557
X9.8375Y-2.7312
X10.306Y-3.0557
X0.7438Y-5.7313
X6.275Y-4.2313
X11.9938Y-2.7312
X2.15Y-4.9813
X2.525Y-1.7
X1.775Y-4.2313
X1.025Y-1.7
X7.5875Y-3.4812
X12.7438Y-5.7313
X2.9Y-4.9813
X7.4Y-4.9813
X-0.0062Y-4.2313
X4.9625Y-2.7312
X3.65Y-4.9813
X6.7437Y-1.7
X12.7438Y-2.7312
X5.2437Y-1.7
X4.025Y-4.2313
X11.2438Y-5.7313
X1.775Y-1.7
X8.15Y-4.9813
X5.3375Y-3.4812
X3.0875Y-3.4812
X8.7125Y-2.7312
X1.6812Y-5.7313
X1.025Y-4.2313
X1.9625Y-2.7312
X11.9938Y-5.7313
X5.7125Y-2.7312
X1.5875Y-3.4812
X8.7125Y-1.7
X4.775Y-4.2313
X8.2438Y-5.7313
X-0.1Y-3.4812
X7.3062Y-5.7313
X3.275Y-4.2313
X7.775Y-4.2313
X2.7125Y-2.7312
X-0.1938Y-5.7313
X8.3375Y-3.4812
X-0.2875Y-2.7312
X10.1188Y-5.7313
X2.5252Y-6.0557
X4.4937Y-5.7313
X6.4623Y-6.0557
T0
M30
