%TF.GenerationSoftware,KiCad,Pcbnew,(5.1.6)-1*%
%TF.CreationDate,2020-08-11T21:43:52+02:00*%
%TF.ProjectId,qosmosKbBIS,716f736d-6f73-44b6-9242-49532e6b6963,rev?*%
%TF.SameCoordinates,Original*%
%TF.FileFunction,Soldermask,Bot*%
%TF.FilePolarity,Negative*%
%FSLAX46Y46*%
G04 Gerber Fmt 4.6, Leading zero omitted, Abs format (unit mm)*
G04 Created by KiCad (PCBNEW (5.1.6)-1) date 2020-08-11 21:43:52*
%MOMM*%
%LPD*%
G01*
G04 APERTURE LIST*
%ADD10R,1.800000X1.800000*%
%ADD11C,1.800000*%
%ADD12C,3.600000*%
%ADD13C,1.700000*%
%ADD14R,1.700000X1.700000*%
%ADD15R,1.300000X1.300000*%
%ADD16C,2.300000*%
%ADD17C,4.100000*%
%ADD18C,3.150000*%
%ADD19R,0.650000X1.600000*%
%ADD20R,1.600000X0.650000*%
%ADD21C,0.100000*%
%ADD22R,1.800000X1.100000*%
%ADD23C,3.900000*%
G04 APERTURE END LIST*
D10*
%TO.C,J1*%
X97505000Y-35666250D03*
D11*
X100005000Y-35666250D03*
X100005000Y-33666250D03*
X97505000Y-33666250D03*
D12*
X92735000Y-30956250D03*
X104775000Y-30956250D03*
%TD*%
D13*
%TO.C,D12*%
X206306250Y-47625000D03*
D14*
X198506250Y-47625000D03*
D15*
X200831250Y-47625000D03*
X203981250Y-47625000D03*
%TD*%
%TO.C,D2*%
X-5568750Y-73818750D03*
X-8718750Y-73818750D03*
D14*
X-11043750Y-73818750D03*
D13*
X-3243750Y-73818750D03*
%TD*%
%TO.C,D13*%
X225356250Y-47625000D03*
D14*
X217556250Y-47625000D03*
D15*
X219881250Y-47625000D03*
X223031250Y-47625000D03*
%TD*%
%TO.C,D14*%
X242081250Y-47625000D03*
X238931250Y-47625000D03*
D14*
X236606250Y-47625000D03*
D13*
X244406250Y-47625000D03*
%TD*%
D15*
%TO.C,D5*%
X65868750Y-47625000D03*
X62718750Y-47625000D03*
D14*
X60393750Y-47625000D03*
D13*
X68193750Y-47625000D03*
%TD*%
%TO.C,D15*%
X263456250Y-47625000D03*
D14*
X255656250Y-47625000D03*
D15*
X257981250Y-47625000D03*
X261131250Y-47625000D03*
%TD*%
D13*
%TO.C,D1*%
X-3243750Y-47625000D03*
D14*
X-11043750Y-47625000D03*
D15*
X-8718750Y-47625000D03*
X-5568750Y-47625000D03*
%TD*%
%TO.C,C7*%
G36*
G01*
X276625000Y-102872012D02*
X276625000Y-101915488D01*
G75*
G02*
X276896738Y-101643750I271738J0D01*
G01*
X277603262Y-101643750D01*
G75*
G02*
X277875000Y-101915488I0J-271738D01*
G01*
X277875000Y-102872012D01*
G75*
G02*
X277603262Y-103143750I-271738J0D01*
G01*
X276896738Y-103143750D01*
G75*
G02*
X276625000Y-102872012I0J271738D01*
G01*
G37*
G36*
G01*
X274575000Y-102872012D02*
X274575000Y-101915488D01*
G75*
G02*
X274846738Y-101643750I271738J0D01*
G01*
X275553262Y-101643750D01*
G75*
G02*
X275825000Y-101915488I0J-271738D01*
G01*
X275825000Y-102872012D01*
G75*
G02*
X275553262Y-103143750I-271738J0D01*
G01*
X274846738Y-103143750D01*
G75*
G02*
X274575000Y-102872012I0J271738D01*
G01*
G37*
%TD*%
%TO.C,D4*%
X46818750Y-47625000D03*
X43668750Y-47625000D03*
D14*
X41343750Y-47625000D03*
D13*
X49143750Y-47625000D03*
%TD*%
%TO.C,D6*%
X87243750Y-47625000D03*
D14*
X79443750Y-47625000D03*
D15*
X81768750Y-47625000D03*
X84918750Y-47625000D03*
%TD*%
%TO.C,D8*%
X115875000Y-47625000D03*
X112725000Y-47625000D03*
D14*
X110400000Y-47625000D03*
D13*
X118200000Y-47625000D03*
%TD*%
%TO.C,D9*%
X137250000Y-47625000D03*
D14*
X129450000Y-47625000D03*
D15*
X131775000Y-47625000D03*
X134925000Y-47625000D03*
%TD*%
%TO.C,D7*%
X13481250Y-73818750D03*
X10331250Y-73818750D03*
D14*
X8006250Y-73818750D03*
D13*
X15806250Y-73818750D03*
%TD*%
D15*
%TO.C,D10*%
X153975000Y-47625000D03*
X150825000Y-47625000D03*
D14*
X148500000Y-47625000D03*
D13*
X156300000Y-47625000D03*
%TD*%
%TO.C,C6*%
G36*
G01*
X293625000Y-102872012D02*
X293625000Y-101915488D01*
G75*
G02*
X293896738Y-101643750I271738J0D01*
G01*
X294603262Y-101643750D01*
G75*
G02*
X294875000Y-101915488I0J-271738D01*
G01*
X294875000Y-102872012D01*
G75*
G02*
X294603262Y-103143750I-271738J0D01*
G01*
X293896738Y-103143750D01*
G75*
G02*
X293625000Y-102872012I0J271738D01*
G01*
G37*
G36*
G01*
X295675000Y-102872012D02*
X295675000Y-101915488D01*
G75*
G02*
X295946738Y-101643750I271738J0D01*
G01*
X296653262Y-101643750D01*
G75*
G02*
X296925000Y-101915488I0J-271738D01*
G01*
X296925000Y-102872012D01*
G75*
G02*
X296653262Y-103143750I-271738J0D01*
G01*
X295946738Y-103143750D01*
G75*
G02*
X295675000Y-102872012I0J271738D01*
G01*
G37*
%TD*%
D15*
%TO.C,D3*%
X27768750Y-47625000D03*
X24618750Y-47625000D03*
D14*
X22293750Y-47625000D03*
D13*
X30093750Y-47625000D03*
%TD*%
%TO.C,C8*%
G36*
G01*
X279337500Y-102872012D02*
X279337500Y-101915488D01*
G75*
G02*
X279609238Y-101643750I271738J0D01*
G01*
X280315762Y-101643750D01*
G75*
G02*
X280587500Y-101915488I0J-271738D01*
G01*
X280587500Y-102872012D01*
G75*
G02*
X280315762Y-103143750I-271738J0D01*
G01*
X279609238Y-103143750D01*
G75*
G02*
X279337500Y-102872012I0J271738D01*
G01*
G37*
G36*
G01*
X281387500Y-102872012D02*
X281387500Y-101915488D01*
G75*
G02*
X281659238Y-101643750I271738J0D01*
G01*
X282365762Y-101643750D01*
G75*
G02*
X282637500Y-101915488I0J-271738D01*
G01*
X282637500Y-102872012D01*
G75*
G02*
X282365762Y-103143750I-271738J0D01*
G01*
X281659238Y-103143750D01*
G75*
G02*
X281387500Y-102872012I0J271738D01*
G01*
G37*
%TD*%
D15*
%TO.C,D11*%
X173025000Y-47625000D03*
X169875000Y-47625000D03*
D14*
X167550000Y-47625000D03*
D13*
X175350000Y-47625000D03*
%TD*%
D16*
%TO.C,Ke4*%
X119062500Y-83343750D03*
X112712500Y-85883750D03*
D17*
X116522500Y-88423750D03*
D11*
X111442500Y-88423750D03*
X121602500Y-88423750D03*
%TD*%
%TO.C,Kg2*%
X50165000Y-107473750D03*
X40005000Y-107473750D03*
D17*
X45085000Y-107473750D03*
D16*
X41275000Y-104933750D03*
X47625000Y-102393750D03*
%TD*%
%TO.C,Kf5*%
X176212500Y-83343750D03*
X169862500Y-85883750D03*
D17*
X173672500Y-88423750D03*
D11*
X168592500Y-88423750D03*
X178752500Y-88423750D03*
%TD*%
D16*
%TO.C,Kg1*%
X2381250Y-102393750D03*
X-3968750Y-104933750D03*
D17*
X-158750Y-107473750D03*
D11*
X-5238750Y-107473750D03*
X4921250Y-107473750D03*
%TD*%
%TO.C,Kg5*%
X164465000Y-107473750D03*
X154305000Y-107473750D03*
D17*
X159385000Y-107473750D03*
D16*
X155575000Y-104933750D03*
X161925000Y-102393750D03*
%TD*%
D11*
%TO.C,Kh2*%
X69215000Y-107473750D03*
X59055000Y-107473750D03*
D17*
X64135000Y-107473750D03*
D16*
X60325000Y-104933750D03*
X66675000Y-102393750D03*
%TD*%
%TO.C,Kh4*%
X142875000Y-102393750D03*
X136525000Y-104933750D03*
D17*
X140335000Y-107473750D03*
D11*
X135255000Y-107473750D03*
X145415000Y-107473750D03*
%TD*%
%TO.C,Ki1*%
X158750Y-126523750D03*
X-10001250Y-126523750D03*
D17*
X-4921250Y-126523750D03*
D16*
X-8731250Y-123983750D03*
X-2381250Y-121443750D03*
%TD*%
%TO.C,Kh3*%
X104775000Y-102393750D03*
X98425000Y-104933750D03*
D17*
X102235000Y-107473750D03*
D11*
X97155000Y-107473750D03*
X107315000Y-107473750D03*
%TD*%
%TO.C,Ki3*%
X78740000Y-126523750D03*
X68580000Y-126523750D03*
D17*
X73660000Y-126523750D03*
D16*
X69850000Y-123983750D03*
X76200000Y-121443750D03*
%TD*%
%TO.C,Kg4*%
X123825000Y-102393750D03*
X117475000Y-104933750D03*
D17*
X121285000Y-107473750D03*
D11*
X116205000Y-107473750D03*
X126365000Y-107473750D03*
%TD*%
%TO.C,Kf6*%
X216852500Y-88423750D03*
X206692500Y-88423750D03*
D17*
X211772500Y-88423750D03*
D16*
X207962500Y-85883750D03*
X214312500Y-83343750D03*
%TD*%
%TO.C,Ki4*%
X114300000Y-121443750D03*
X107950000Y-123983750D03*
D17*
X111760000Y-126523750D03*
D11*
X106680000Y-126523750D03*
X116840000Y-126523750D03*
%TD*%
%TO.C,Kf1*%
X26352500Y-88423750D03*
X16192500Y-88423750D03*
D17*
X21272500Y-88423750D03*
D16*
X17462500Y-85883750D03*
X23812500Y-83343750D03*
%TD*%
%TO.C,Kf4*%
X138112500Y-83343750D03*
X131762500Y-85883750D03*
D17*
X135572500Y-88423750D03*
D11*
X130492500Y-88423750D03*
X140652500Y-88423750D03*
%TD*%
D16*
%TO.C,Kh1*%
X28575000Y-102393750D03*
X22225000Y-104933750D03*
D17*
X26035000Y-107473750D03*
D11*
X20955000Y-107473750D03*
X31115000Y-107473750D03*
%TD*%
D16*
%TO.C,Kg3*%
X85725000Y-102393750D03*
X79375000Y-104933750D03*
D17*
X83185000Y-107473750D03*
D11*
X78105000Y-107473750D03*
X88265000Y-107473750D03*
%TD*%
%TO.C,Ki5*%
X154940000Y-126523750D03*
X144780000Y-126523750D03*
D17*
X149860000Y-126523750D03*
D16*
X146050000Y-123983750D03*
X152400000Y-121443750D03*
%TD*%
%TO.C,Ki7*%
X245268750Y-121443750D03*
X238918750Y-123983750D03*
D17*
X242728750Y-126523750D03*
D11*
X237648750Y-126523750D03*
X247808750Y-126523750D03*
D17*
X254628750Y-134763750D03*
X230828750Y-134763750D03*
D18*
X230828750Y-119523750D03*
X254628750Y-119523750D03*
%TD*%
D16*
%TO.C,Kf3*%
X100012500Y-83343750D03*
X93662500Y-85883750D03*
D17*
X97472500Y-88423750D03*
D11*
X92392500Y-88423750D03*
X102552500Y-88423750D03*
%TD*%
%TO.C,Kh5*%
X183515000Y-107473750D03*
X173355000Y-107473750D03*
D17*
X178435000Y-107473750D03*
D16*
X174625000Y-104933750D03*
X180975000Y-102393750D03*
%TD*%
D11*
%TO.C,Kf8*%
X309721250Y-88423750D03*
X299561250Y-88423750D03*
D17*
X304641250Y-88423750D03*
D16*
X300831250Y-85883750D03*
X307181250Y-83343750D03*
%TD*%
D11*
%TO.C,Ke5*%
X159702500Y-88423750D03*
X149542500Y-88423750D03*
D17*
X154622500Y-88423750D03*
D16*
X150812500Y-85883750D03*
X157162500Y-83343750D03*
%TD*%
%TO.C,Ke8*%
X288131250Y-83343750D03*
X281781250Y-85883750D03*
D17*
X285591250Y-88423750D03*
D11*
X280511250Y-88423750D03*
X290671250Y-88423750D03*
%TD*%
%TO.C,Ke9*%
X328771250Y-88423750D03*
X318611250Y-88423750D03*
D17*
X323691250Y-88423750D03*
D16*
X319881250Y-85883750D03*
X326231250Y-83343750D03*
%TD*%
D11*
%TO.C,Ke2*%
X45402500Y-88423750D03*
X35242500Y-88423750D03*
D17*
X40322500Y-88423750D03*
D16*
X36512500Y-85883750D03*
X42862500Y-83343750D03*
%TD*%
%TO.C,Kg7*%
X238125000Y-102393750D03*
X231775000Y-104933750D03*
D17*
X235585000Y-107473750D03*
D11*
X230505000Y-107473750D03*
X240665000Y-107473750D03*
%TD*%
D16*
%TO.C,Kh7*%
X259556250Y-92868750D03*
X253206250Y-95408750D03*
D17*
X257016250Y-97948750D03*
D11*
X251936250Y-97948750D03*
X262096250Y-97948750D03*
D17*
X265256250Y-86048750D03*
X265256250Y-109848750D03*
D18*
X250016250Y-109848750D03*
X250016250Y-86048750D03*
%TD*%
D16*
%TO.C,Ke7*%
X233362500Y-83343750D03*
X227012500Y-85883750D03*
D17*
X230822500Y-88423750D03*
D11*
X225742500Y-88423750D03*
X235902500Y-88423750D03*
%TD*%
D16*
%TO.C,Ki2*%
X38100000Y-121443750D03*
X31750000Y-123983750D03*
D17*
X35560000Y-126523750D03*
D11*
X30480000Y-126523750D03*
X40640000Y-126523750D03*
%TD*%
%TO.C,Kh6*%
X221615000Y-107473750D03*
X211455000Y-107473750D03*
D17*
X216535000Y-107473750D03*
D16*
X212725000Y-104933750D03*
X219075000Y-102393750D03*
%TD*%
D11*
%TO.C,Ki6*%
X193040000Y-126523750D03*
X182880000Y-126523750D03*
D17*
X187960000Y-126523750D03*
D16*
X184150000Y-123983750D03*
X190500000Y-121443750D03*
%TD*%
%TO.C,Kg6*%
X200025000Y-102393750D03*
X193675000Y-104933750D03*
D17*
X197485000Y-107473750D03*
D11*
X192405000Y-107473750D03*
X202565000Y-107473750D03*
%TD*%
%TO.C,Ke6*%
X197802500Y-88423750D03*
X187642500Y-88423750D03*
D17*
X192722500Y-88423750D03*
D16*
X188912500Y-85883750D03*
X195262500Y-83343750D03*
%TD*%
%TO.C,Kf2*%
X61912500Y-83343750D03*
X55562500Y-85883750D03*
D17*
X59372500Y-88423750D03*
D11*
X54292500Y-88423750D03*
X64452500Y-88423750D03*
%TD*%
D16*
%TO.C,Ke3*%
X80962500Y-83343750D03*
X74612500Y-85883750D03*
D17*
X78422500Y-88423750D03*
D11*
X73342500Y-88423750D03*
X83502500Y-88423750D03*
%TD*%
%TO.C,R2*%
G36*
G01*
X279337500Y-126684512D02*
X279337500Y-125727988D01*
G75*
G02*
X279609238Y-125456250I271738J0D01*
G01*
X280315762Y-125456250D01*
G75*
G02*
X280587500Y-125727988I0J-271738D01*
G01*
X280587500Y-126684512D01*
G75*
G02*
X280315762Y-126956250I-271738J0D01*
G01*
X279609238Y-126956250D01*
G75*
G02*
X279337500Y-126684512I0J271738D01*
G01*
G37*
G36*
G01*
X281387500Y-126684512D02*
X281387500Y-125727988D01*
G75*
G02*
X281659238Y-125456250I271738J0D01*
G01*
X282365762Y-125456250D01*
G75*
G02*
X282637500Y-125727988I0J-271738D01*
G01*
X282637500Y-126684512D01*
G75*
G02*
X282365762Y-126956250I-271738J0D01*
G01*
X281659238Y-126956250D01*
G75*
G02*
X281387500Y-126684512I0J271738D01*
G01*
G37*
%TD*%
%TO.C,Kl6*%
X214471250Y-145573750D03*
X204311250Y-145573750D03*
D17*
X209391250Y-145573750D03*
D16*
X205581250Y-143033750D03*
X211931250Y-140493750D03*
%TD*%
D11*
%TO.C,Kk8*%
X290671250Y-145573750D03*
X280511250Y-145573750D03*
D17*
X285591250Y-145573750D03*
D16*
X281781250Y-143033750D03*
X288131250Y-140493750D03*
%TD*%
%TO.C,R1*%
G36*
G01*
X269559512Y-130568750D02*
X268602988Y-130568750D01*
G75*
G02*
X268331250Y-130297012I0J271738D01*
G01*
X268331250Y-129590488D01*
G75*
G02*
X268602988Y-129318750I271738J0D01*
G01*
X269559512Y-129318750D01*
G75*
G02*
X269831250Y-129590488I0J-271738D01*
G01*
X269831250Y-130297012D01*
G75*
G02*
X269559512Y-130568750I-271738J0D01*
G01*
G37*
G36*
G01*
X269559512Y-132618750D02*
X268602988Y-132618750D01*
G75*
G02*
X268331250Y-132347012I0J271738D01*
G01*
X268331250Y-131640488D01*
G75*
G02*
X268602988Y-131368750I271738J0D01*
G01*
X269559512Y-131368750D01*
G75*
G02*
X269831250Y-131640488I0J-271738D01*
G01*
X269831250Y-132347012D01*
G75*
G02*
X269559512Y-132618750I-271738J0D01*
G01*
G37*
%TD*%
D11*
%TO.C,Kk1*%
X158750Y-145573750D03*
X-10001250Y-145573750D03*
D17*
X-4921250Y-145573750D03*
D16*
X-8731250Y-143033750D03*
X-2381250Y-140493750D03*
%TD*%
D19*
%TO.C,U1*%
X276987500Y-108600000D03*
X277787500Y-108600000D03*
X278587500Y-108600000D03*
X279387500Y-108600000D03*
X280187500Y-108600000D03*
X280987500Y-108600000D03*
X281787500Y-108600000D03*
X282587500Y-108600000D03*
X283387500Y-108600000D03*
X284187500Y-108600000D03*
X284987500Y-108600000D03*
D20*
X286687500Y-110300000D03*
X286687500Y-111100000D03*
X286687500Y-111900000D03*
X286687500Y-112700000D03*
X286687500Y-113500000D03*
X286687500Y-114300000D03*
X286687500Y-115100000D03*
X286687500Y-115900000D03*
X286687500Y-116700000D03*
X286687500Y-117500000D03*
X286687500Y-118300000D03*
D19*
X284987500Y-120000000D03*
X284187500Y-120000000D03*
X283387500Y-120000000D03*
X282587500Y-120000000D03*
X281787500Y-120000000D03*
X280987500Y-120000000D03*
X280187500Y-120000000D03*
X279387500Y-120000000D03*
X278587500Y-120000000D03*
X277787500Y-120000000D03*
X276987500Y-120000000D03*
D20*
X275287500Y-118300000D03*
X275287500Y-117500000D03*
X275287500Y-116700000D03*
X275287500Y-115900000D03*
X275287500Y-115100000D03*
X275287500Y-114300000D03*
X275287500Y-113500000D03*
X275287500Y-112700000D03*
X275287500Y-111900000D03*
X275287500Y-111100000D03*
X275287500Y-110300000D03*
%TD*%
D11*
%TO.C,Kj5*%
X173990000Y-126523750D03*
X163830000Y-126523750D03*
D17*
X168910000Y-126523750D03*
D16*
X165100000Y-123983750D03*
X171450000Y-121443750D03*
%TD*%
%TO.C,Kl7*%
X259556250Y-140493750D03*
X253206250Y-143033750D03*
D17*
X257016250Y-145573750D03*
D11*
X251936250Y-145573750D03*
X262096250Y-145573750D03*
%TD*%
D16*
%TO.C,Kj3*%
X95250000Y-121443750D03*
X88900000Y-123983750D03*
D17*
X92710000Y-126523750D03*
D11*
X87630000Y-126523750D03*
X97790000Y-126523750D03*
%TD*%
%TO.C,Kj2*%
X59690000Y-126523750D03*
X49530000Y-126523750D03*
D17*
X54610000Y-126523750D03*
D16*
X50800000Y-123983750D03*
X57150000Y-121443750D03*
%TD*%
D11*
%TO.C,Kj6*%
X212090000Y-126523750D03*
X201930000Y-126523750D03*
D17*
X207010000Y-126523750D03*
D16*
X203200000Y-123983750D03*
X209550000Y-121443750D03*
%TD*%
%TO.C,Kl8*%
X307181250Y-140493750D03*
X300831250Y-143033750D03*
D17*
X304641250Y-145573750D03*
D11*
X299561250Y-145573750D03*
X309721250Y-145573750D03*
%TD*%
D16*
%TO.C,Kj4*%
X133350000Y-121443750D03*
X127000000Y-123983750D03*
D17*
X130810000Y-126523750D03*
D11*
X125730000Y-126523750D03*
X135890000Y-126523750D03*
%TD*%
D16*
%TO.C,Kk7*%
X235743750Y-140493750D03*
X229393750Y-143033750D03*
D17*
X233203750Y-145573750D03*
D11*
X228123750Y-145573750D03*
X238283750Y-145573750D03*
%TD*%
D16*
%TO.C,Kk6*%
X188118750Y-140493750D03*
X181768750Y-143033750D03*
D17*
X185578750Y-145573750D03*
D11*
X180498750Y-145573750D03*
X190658750Y-145573750D03*
%TD*%
%TO.C,Kj8*%
X309721250Y-126523750D03*
X299561250Y-126523750D03*
D17*
X304641250Y-126523750D03*
D16*
X300831250Y-123983750D03*
X307181250Y-121443750D03*
%TD*%
D11*
%TO.C,Kk2*%
X47783750Y-145573750D03*
X37623750Y-145573750D03*
D17*
X42703750Y-145573750D03*
D16*
X38893750Y-143033750D03*
X45243750Y-140493750D03*
%TD*%
%TO.C,Kk9*%
X326231250Y-140493750D03*
X319881250Y-143033750D03*
D17*
X323691250Y-145573750D03*
D11*
X318611250Y-145573750D03*
X328771250Y-145573750D03*
%TD*%
D21*
%TO.C,X1*%
G36*
X292995481Y-112638299D02*
G01*
X293914719Y-111719061D01*
X294975379Y-112779721D01*
X294056141Y-113698959D01*
X292995481Y-112638299D01*
G37*
G36*
X294692537Y-114335355D02*
G01*
X295611775Y-113416117D01*
X296672435Y-114476777D01*
X295753197Y-115396015D01*
X294692537Y-114335355D01*
G37*
G36*
X294197563Y-111436217D02*
G01*
X295116801Y-110516979D01*
X296177461Y-111577639D01*
X295258223Y-112496877D01*
X294197563Y-111436217D01*
G37*
G36*
X295894619Y-113133273D02*
G01*
X296813857Y-112214035D01*
X297874517Y-113274695D01*
X296955279Y-114193933D01*
X295894619Y-113133273D01*
G37*
%TD*%
D16*
%TO.C,Kl1*%
X21431250Y-140493750D03*
X15081250Y-143033750D03*
D17*
X18891250Y-145573750D03*
D11*
X13811250Y-145573750D03*
X23971250Y-145573750D03*
%TD*%
D16*
%TO.C,Kj1*%
X19050000Y-121443750D03*
X12700000Y-123983750D03*
D17*
X16510000Y-126523750D03*
D11*
X11430000Y-126523750D03*
X21590000Y-126523750D03*
%TD*%
%TO.C,R4*%
G36*
G01*
X299559238Y-111293750D02*
X300515762Y-111293750D01*
G75*
G02*
X300787500Y-111565488I0J-271738D01*
G01*
X300787500Y-112272012D01*
G75*
G02*
X300515762Y-112543750I-271738J0D01*
G01*
X299559238Y-112543750D01*
G75*
G02*
X299287500Y-112272012I0J271738D01*
G01*
X299287500Y-111565488D01*
G75*
G02*
X299559238Y-111293750I271738J0D01*
G01*
G37*
G36*
G01*
X299559238Y-109243750D02*
X300515762Y-109243750D01*
G75*
G02*
X300787500Y-109515488I0J-271738D01*
G01*
X300787500Y-110222012D01*
G75*
G02*
X300515762Y-110493750I-271738J0D01*
G01*
X299559238Y-110493750D01*
G75*
G02*
X299287500Y-110222012I0J271738D01*
G01*
X299287500Y-109515488D01*
G75*
G02*
X299559238Y-109243750I271738J0D01*
G01*
G37*
%TD*%
%TO.C,R3*%
G36*
G01*
X299559238Y-103125000D02*
X300515762Y-103125000D01*
G75*
G02*
X300787500Y-103396738I0J-271738D01*
G01*
X300787500Y-104103262D01*
G75*
G02*
X300515762Y-104375000I-271738J0D01*
G01*
X299559238Y-104375000D01*
G75*
G02*
X299287500Y-104103262I0J271738D01*
G01*
X299287500Y-103396738D01*
G75*
G02*
X299559238Y-103125000I271738J0D01*
G01*
G37*
G36*
G01*
X299559238Y-105175000D02*
X300515762Y-105175000D01*
G75*
G02*
X300787500Y-105446738I0J-271738D01*
G01*
X300787500Y-106153262D01*
G75*
G02*
X300515762Y-106425000I-271738J0D01*
G01*
X299559238Y-106425000D01*
G75*
G02*
X299287500Y-106153262I0J271738D01*
G01*
X299287500Y-105446738D01*
G75*
G02*
X299559238Y-105175000I271738J0D01*
G01*
G37*
%TD*%
D22*
%TO.C,SW1*%
X275456250Y-132868750D03*
X281756250Y-132868750D03*
X275456250Y-129068750D03*
X281756250Y-129068750D03*
%TD*%
D16*
%TO.C,Kk4*%
X116681250Y-140493750D03*
X110331250Y-143033750D03*
D17*
X114141250Y-145573750D03*
D11*
X109061250Y-145573750D03*
X119221250Y-145573750D03*
D17*
X164141250Y-153813750D03*
X64141250Y-153813750D03*
D18*
X64141250Y-138573750D03*
X164141250Y-138573750D03*
%TD*%
D13*
%TO.C,D30*%
X253931250Y-73818750D03*
D14*
X246131250Y-73818750D03*
D15*
X248456250Y-73818750D03*
X251606250Y-73818750D03*
%TD*%
D13*
%TO.C,D31*%
X289331250Y-73818750D03*
D14*
X281531250Y-73818750D03*
D15*
X283856250Y-73818750D03*
X287006250Y-73818750D03*
%TD*%
%TO.C,D32*%
X306375000Y-73818750D03*
X303225000Y-73818750D03*
D14*
X300900000Y-73818750D03*
D13*
X308700000Y-73818750D03*
%TD*%
%TO.C,D33*%
X327750000Y-73818750D03*
D14*
X319950000Y-73818750D03*
D15*
X322275000Y-73818750D03*
X325425000Y-73818750D03*
%TD*%
%TO.C,D18*%
X325425000Y-47625000D03*
X322275000Y-47625000D03*
D14*
X319950000Y-47625000D03*
D13*
X327750000Y-47625000D03*
%TD*%
D15*
%TO.C,D20*%
X51581250Y-73818750D03*
X48431250Y-73818750D03*
D14*
X46106250Y-73818750D03*
D13*
X53906250Y-73818750D03*
%TD*%
D15*
%TO.C,D16*%
X287325000Y-47625000D03*
X284175000Y-47625000D03*
D14*
X281850000Y-47625000D03*
D13*
X289650000Y-47625000D03*
%TD*%
D15*
%TO.C,D22*%
X89681250Y-73818750D03*
X86531250Y-73818750D03*
D14*
X84206250Y-73818750D03*
D13*
X92006250Y-73818750D03*
%TD*%
D15*
%TO.C,D25*%
X146831250Y-73818750D03*
X143681250Y-73818750D03*
D14*
X141356250Y-73818750D03*
D13*
X149156250Y-73818750D03*
%TD*%
%TO.C,D26*%
X168206250Y-73818750D03*
D14*
X160406250Y-73818750D03*
D15*
X162731250Y-73818750D03*
X165881250Y-73818750D03*
%TD*%
D13*
%TO.C,D23*%
X111056250Y-73818750D03*
D14*
X103256250Y-73818750D03*
D15*
X105581250Y-73818750D03*
X108731250Y-73818750D03*
%TD*%
D13*
%TO.C,D27*%
X187256250Y-73818750D03*
D14*
X179456250Y-73818750D03*
D15*
X181781250Y-73818750D03*
X184931250Y-73818750D03*
%TD*%
%TO.C,D19*%
X32531250Y-73818750D03*
X29381250Y-73818750D03*
D14*
X27056250Y-73818750D03*
D13*
X34856250Y-73818750D03*
%TD*%
D15*
%TO.C,D21*%
X70631250Y-73818750D03*
X67481250Y-73818750D03*
D14*
X65156250Y-73818750D03*
D13*
X72956250Y-73818750D03*
%TD*%
D15*
%TO.C,D29*%
X223031250Y-73818750D03*
X219881250Y-73818750D03*
D14*
X217556250Y-73818750D03*
D13*
X225356250Y-73818750D03*
%TD*%
%TO.C,D24*%
X130106250Y-73818750D03*
D14*
X122306250Y-73818750D03*
D15*
X124631250Y-73818750D03*
X127781250Y-73818750D03*
%TD*%
%TO.C,D28*%
X203981250Y-73818750D03*
X200831250Y-73818750D03*
D14*
X198506250Y-73818750D03*
D13*
X206306250Y-73818750D03*
%TD*%
D15*
%TO.C,D17*%
X306375000Y-47625000D03*
X303225000Y-47625000D03*
D14*
X300900000Y-47625000D03*
D13*
X308700000Y-47625000D03*
%TD*%
%TO.C,D48*%
X308700000Y-92868750D03*
D14*
X300900000Y-92868750D03*
D15*
X303225000Y-92868750D03*
X306375000Y-92868750D03*
%TD*%
%TO.C,D42*%
X156356250Y-92868750D03*
X153206250Y-92868750D03*
D14*
X150881250Y-92868750D03*
D13*
X158681250Y-92868750D03*
%TD*%
D15*
%TO.C,D43*%
X175406250Y-92868750D03*
X172256250Y-92868750D03*
D14*
X169931250Y-92868750D03*
D13*
X177731250Y-92868750D03*
%TD*%
%TO.C,D45*%
X215831250Y-92868750D03*
D14*
X208031250Y-92868750D03*
D15*
X210356250Y-92868750D03*
X213506250Y-92868750D03*
%TD*%
D13*
%TO.C,D49*%
X327750000Y-92868750D03*
D14*
X319950000Y-92868750D03*
D15*
X322275000Y-92868750D03*
X325425000Y-92868750D03*
%TD*%
D13*
%TO.C,D41*%
X139631250Y-92868750D03*
D14*
X131831250Y-92868750D03*
D15*
X134156250Y-92868750D03*
X137306250Y-92868750D03*
%TD*%
D13*
%TO.C,D50*%
X261075000Y-102393750D03*
D14*
X253275000Y-102393750D03*
D15*
X255600000Y-102393750D03*
X258750000Y-102393750D03*
%TD*%
%TO.C,D51*%
X1575000Y-111918750D03*
X-1575000Y-111918750D03*
D14*
X-3900000Y-111918750D03*
D13*
X3900000Y-111918750D03*
%TD*%
%TO.C,D40*%
X120581250Y-92868750D03*
D14*
X112781250Y-92868750D03*
D15*
X115106250Y-92868750D03*
X118256250Y-92868750D03*
%TD*%
D13*
%TO.C,D44*%
X196781250Y-92868750D03*
D14*
X188981250Y-92868750D03*
D15*
X191306250Y-92868750D03*
X194456250Y-92868750D03*
%TD*%
%TO.C,D37*%
X61106250Y-92868750D03*
X57956250Y-92868750D03*
D14*
X55631250Y-92868750D03*
D13*
X63431250Y-92868750D03*
%TD*%
D15*
%TO.C,D39*%
X99206250Y-92868750D03*
X96056250Y-92868750D03*
D14*
X93731250Y-92868750D03*
D13*
X101531250Y-92868750D03*
%TD*%
%TO.C,D46*%
X234881250Y-92868750D03*
D14*
X227081250Y-92868750D03*
D15*
X229406250Y-92868750D03*
X232556250Y-92868750D03*
%TD*%
%TO.C,D34*%
X-806250Y-92868750D03*
X-3956250Y-92868750D03*
D14*
X-6281250Y-92868750D03*
D13*
X1518750Y-92868750D03*
%TD*%
D15*
%TO.C,D35*%
X23006250Y-92868750D03*
X19856250Y-92868750D03*
D14*
X17531250Y-92868750D03*
D13*
X25331250Y-92868750D03*
%TD*%
D15*
%TO.C,D36*%
X42056250Y-92868750D03*
X38906250Y-92868750D03*
D14*
X36581250Y-92868750D03*
D13*
X44381250Y-92868750D03*
%TD*%
D15*
%TO.C,D38*%
X79837500Y-92868750D03*
X76687500Y-92868750D03*
D14*
X74362500Y-92868750D03*
D13*
X82162500Y-92868750D03*
%TD*%
%TO.C,D47*%
X289650000Y-92868750D03*
D14*
X281850000Y-92868750D03*
D15*
X284175000Y-92868750D03*
X287325000Y-92868750D03*
%TD*%
D13*
%TO.C,D58*%
X144075000Y-111918750D03*
D14*
X136275000Y-111918750D03*
D15*
X138600000Y-111918750D03*
X141750000Y-111918750D03*
%TD*%
D13*
%TO.C,D57*%
X125343750Y-111918750D03*
D14*
X117543750Y-111918750D03*
D15*
X119868750Y-111918750D03*
X123018750Y-111918750D03*
%TD*%
%TO.C,D59*%
X161118750Y-111918750D03*
X157968750Y-111918750D03*
D14*
X155643750Y-111918750D03*
D13*
X163443750Y-111918750D03*
%TD*%
%TO.C,D62*%
X220593750Y-111918750D03*
D14*
X212793750Y-111918750D03*
D15*
X215118750Y-111918750D03*
X218268750Y-111918750D03*
%TD*%
%TO.C,D65*%
X18243750Y-130968750D03*
X15093750Y-130968750D03*
D14*
X12768750Y-130968750D03*
D13*
X20568750Y-130968750D03*
%TD*%
%TO.C,D63*%
X239643750Y-111918750D03*
D14*
X231843750Y-111918750D03*
D15*
X234168750Y-111918750D03*
X237318750Y-111918750D03*
%TD*%
%TO.C,D53*%
X46818750Y-111918750D03*
X43668750Y-111918750D03*
D14*
X41343750Y-111918750D03*
D13*
X49143750Y-111918750D03*
%TD*%
D15*
%TO.C,D60*%
X180168750Y-111918750D03*
X177018750Y-111918750D03*
D14*
X174693750Y-111918750D03*
D13*
X182493750Y-111918750D03*
%TD*%
%TO.C,D66*%
X39300000Y-130968750D03*
D14*
X31500000Y-130968750D03*
D15*
X33825000Y-130968750D03*
X36975000Y-130968750D03*
%TD*%
D13*
%TO.C,D52*%
X30093750Y-111918750D03*
D14*
X22293750Y-111918750D03*
D15*
X24618750Y-111918750D03*
X27768750Y-111918750D03*
%TD*%
D13*
%TO.C,D67*%
X58668750Y-130968750D03*
D14*
X50868750Y-130968750D03*
D15*
X53193750Y-130968750D03*
X56343750Y-130968750D03*
%TD*%
D13*
%TO.C,D68*%
X77718750Y-130968750D03*
D14*
X69918750Y-130968750D03*
D15*
X72243750Y-130968750D03*
X75393750Y-130968750D03*
%TD*%
D13*
%TO.C,D56*%
X106293750Y-111918750D03*
D14*
X98493750Y-111918750D03*
D15*
X100818750Y-111918750D03*
X103968750Y-111918750D03*
%TD*%
D13*
%TO.C,D61*%
X201543750Y-111918750D03*
D14*
X193743750Y-111918750D03*
D15*
X196068750Y-111918750D03*
X199218750Y-111918750D03*
%TD*%
D13*
%TO.C,D64*%
X-862500Y-130968750D03*
D14*
X-8662500Y-130968750D03*
D15*
X-6337500Y-130968750D03*
X-3187500Y-130968750D03*
%TD*%
D13*
%TO.C,D54*%
X68193750Y-111918750D03*
D14*
X60393750Y-111918750D03*
D15*
X62718750Y-111918750D03*
X65868750Y-111918750D03*
%TD*%
%TO.C,D55*%
X84918750Y-111918750D03*
X81768750Y-111918750D03*
D14*
X79443750Y-111918750D03*
D13*
X87243750Y-111918750D03*
%TD*%
%TO.C,D69*%
X96768750Y-130968750D03*
D14*
X88968750Y-130968750D03*
D15*
X91293750Y-130968750D03*
X94443750Y-130968750D03*
%TD*%
D13*
%TO.C,D82*%
X189637500Y-150018750D03*
D14*
X181837500Y-150018750D03*
D15*
X184162500Y-150018750D03*
X187312500Y-150018750D03*
%TD*%
D13*
%TO.C,D77*%
X308700000Y-130968750D03*
D14*
X300900000Y-130968750D03*
D15*
X303225000Y-130968750D03*
X306375000Y-130968750D03*
%TD*%
%TO.C,D70*%
X113493750Y-130968750D03*
X110343750Y-130968750D03*
D14*
X108018750Y-130968750D03*
D13*
X115818750Y-130968750D03*
%TD*%
D15*
%TO.C,D83*%
X211125000Y-150018750D03*
X207975000Y-150018750D03*
D14*
X205650000Y-150018750D03*
D13*
X213450000Y-150018750D03*
%TD*%
%TO.C,D84*%
X237262500Y-150018750D03*
D14*
X229462500Y-150018750D03*
D15*
X231787500Y-150018750D03*
X234937500Y-150018750D03*
%TD*%
D13*
%TO.C,D76*%
X246787500Y-130968750D03*
D14*
X238987500Y-130968750D03*
D15*
X241312500Y-130968750D03*
X244462500Y-130968750D03*
%TD*%
%TO.C,D79*%
X20625000Y-150018750D03*
X17475000Y-150018750D03*
D14*
X15150000Y-150018750D03*
D13*
X22950000Y-150018750D03*
%TD*%
D15*
%TO.C,D81*%
X115875000Y-150018750D03*
X112725000Y-150018750D03*
D14*
X110400000Y-150018750D03*
D13*
X118200000Y-150018750D03*
%TD*%
D15*
%TO.C,D72*%
X151593750Y-130968750D03*
X148443750Y-130968750D03*
D14*
X146118750Y-130968750D03*
D13*
X153918750Y-130968750D03*
%TD*%
D15*
%TO.C,D80*%
X44437500Y-150018750D03*
X41287500Y-150018750D03*
D14*
X38962500Y-150018750D03*
D13*
X46762500Y-150018750D03*
%TD*%
%TO.C,D85*%
X261075000Y-150018750D03*
D14*
X253275000Y-150018750D03*
D15*
X255600000Y-150018750D03*
X258750000Y-150018750D03*
%TD*%
D13*
%TO.C,D86*%
X289650000Y-150018750D03*
D14*
X281850000Y-150018750D03*
D15*
X284175000Y-150018750D03*
X287325000Y-150018750D03*
%TD*%
%TO.C,D87*%
X306375000Y-150018750D03*
X303225000Y-150018750D03*
D14*
X300900000Y-150018750D03*
D13*
X308700000Y-150018750D03*
%TD*%
%TO.C,D71*%
X134868750Y-130968750D03*
D14*
X127068750Y-130968750D03*
D15*
X129393750Y-130968750D03*
X132543750Y-130968750D03*
%TD*%
%TO.C,D73*%
X170643750Y-130968750D03*
X167493750Y-130968750D03*
D14*
X165168750Y-130968750D03*
D13*
X172968750Y-130968750D03*
%TD*%
%TO.C,D75*%
X211068750Y-130968750D03*
D14*
X203268750Y-130968750D03*
D15*
X205593750Y-130968750D03*
X208743750Y-130968750D03*
%TD*%
D13*
%TO.C,D78*%
X-862500Y-150018750D03*
D14*
X-8662500Y-150018750D03*
D15*
X-6337500Y-150018750D03*
X-3187500Y-150018750D03*
%TD*%
%TO.C,D74*%
X189693750Y-130968750D03*
X186543750Y-130968750D03*
D14*
X184218750Y-130968750D03*
D13*
X192018750Y-130968750D03*
%TD*%
D11*
%TO.C,Ka4*%
X119221250Y-43180000D03*
X109061250Y-43180000D03*
D17*
X114141250Y-43180000D03*
D16*
X110331250Y-40640000D03*
X116681250Y-38100000D03*
%TD*%
D11*
%TO.C,Ka5*%
X157321250Y-43180000D03*
X147161250Y-43180000D03*
D17*
X152241250Y-43180000D03*
D16*
X148431250Y-40640000D03*
X154781250Y-38100000D03*
%TD*%
D11*
%TO.C,Ka7*%
X245427500Y-43180000D03*
X235267500Y-43180000D03*
D17*
X240347500Y-43180000D03*
D16*
X236537500Y-40640000D03*
X242887500Y-38100000D03*
%TD*%
%TO.C,Ka8*%
X288131250Y-38100000D03*
X281781250Y-40640000D03*
D17*
X285591250Y-43180000D03*
D11*
X280511250Y-43180000D03*
X290671250Y-43180000D03*
%TD*%
D16*
%TO.C,Ka9*%
X326231250Y-38100000D03*
X319881250Y-40640000D03*
D17*
X323691250Y-43180000D03*
D11*
X318611250Y-43180000D03*
X328771250Y-43180000D03*
%TD*%
D16*
%TO.C,Kb2*%
X47625000Y-38100000D03*
X41275000Y-40640000D03*
D17*
X45085000Y-43180000D03*
D11*
X40005000Y-43180000D03*
X50165000Y-43180000D03*
%TD*%
D16*
%TO.C,Kb3*%
X85725000Y-38100000D03*
X79375000Y-40640000D03*
D17*
X83185000Y-43180000D03*
D11*
X78105000Y-43180000D03*
X88265000Y-43180000D03*
%TD*%
%TO.C,Ka6*%
X207327500Y-43180000D03*
X197167500Y-43180000D03*
D17*
X202247500Y-43180000D03*
D16*
X198437500Y-40640000D03*
X204787500Y-38100000D03*
%TD*%
D11*
%TO.C,Kb4*%
X138271250Y-43180000D03*
X128111250Y-43180000D03*
D17*
X133191250Y-43180000D03*
D16*
X129381250Y-40640000D03*
X135731250Y-38100000D03*
%TD*%
D11*
%TO.C,Kb5*%
X176371250Y-43180000D03*
X166211250Y-43180000D03*
D17*
X171291250Y-43180000D03*
D16*
X167481250Y-40640000D03*
X173831250Y-38100000D03*
%TD*%
%TO.C,Ka1*%
X-4762500Y-38100000D03*
X-11112500Y-40640000D03*
D17*
X-7302500Y-43180000D03*
D11*
X-12382500Y-43180000D03*
X-2222500Y-43180000D03*
%TD*%
D16*
%TO.C,Kb6*%
X223837500Y-38100000D03*
X217487500Y-40640000D03*
D17*
X221297500Y-43180000D03*
D11*
X216217500Y-43180000D03*
X226377500Y-43180000D03*
%TD*%
%TO.C,Ka2*%
X31115000Y-43180000D03*
X20955000Y-43180000D03*
D17*
X26035000Y-43180000D03*
D16*
X22225000Y-40640000D03*
X28575000Y-38100000D03*
%TD*%
%TO.C,Kb8*%
X307181250Y-38100000D03*
X300831250Y-40640000D03*
D17*
X304641250Y-43180000D03*
D11*
X299561250Y-43180000D03*
X309721250Y-43180000D03*
%TD*%
D16*
%TO.C,Kb7*%
X261937500Y-38100000D03*
X255587500Y-40640000D03*
D17*
X259397500Y-43180000D03*
D11*
X254317500Y-43180000D03*
X264477500Y-43180000D03*
%TD*%
D16*
%TO.C,Ka3*%
X66675000Y-38100000D03*
X60325000Y-40640000D03*
D17*
X64135000Y-43180000D03*
D11*
X59055000Y-43180000D03*
X69215000Y-43180000D03*
%TD*%
D15*
%TO.C,D88*%
X325743750Y-150018750D03*
X322593750Y-150018750D03*
D14*
X320268750Y-150018750D03*
D13*
X328068750Y-150018750D03*
%TD*%
D16*
%TO.C,Kc1*%
X-4762500Y-64293750D03*
X-11112500Y-66833750D03*
D17*
X-7302500Y-69373750D03*
D11*
X-12382500Y-69373750D03*
X-2222500Y-69373750D03*
%TD*%
D16*
%TO.C,Kd7*%
X252412500Y-64293750D03*
X246062500Y-66833750D03*
D17*
X249872500Y-69373750D03*
D11*
X244792500Y-69373750D03*
X254952500Y-69373750D03*
D17*
X261772500Y-77613750D03*
X237972500Y-77613750D03*
D18*
X237972500Y-62373750D03*
X261772500Y-62373750D03*
%TD*%
D11*
%TO.C,Kc2*%
X35877500Y-69373750D03*
X25717500Y-69373750D03*
D17*
X30797500Y-69373750D03*
D16*
X26987500Y-66833750D03*
X33337500Y-64293750D03*
%TD*%
%TO.C,Kd4*%
X128587500Y-64293750D03*
X122237500Y-66833750D03*
D17*
X126047500Y-69373750D03*
D11*
X120967500Y-69373750D03*
X131127500Y-69373750D03*
%TD*%
%TO.C,Kd6*%
X207327500Y-69373750D03*
X197167500Y-69373750D03*
D17*
X202247500Y-69373750D03*
D16*
X198437500Y-66833750D03*
X204787500Y-64293750D03*
%TD*%
D11*
%TO.C,Kc6*%
X188277500Y-69373750D03*
X178117500Y-69373750D03*
D17*
X183197500Y-69373750D03*
D16*
X179387500Y-66833750D03*
X185737500Y-64293750D03*
%TD*%
D11*
%TO.C,Kc9*%
X328771250Y-69373750D03*
X318611250Y-69373750D03*
D17*
X323691250Y-69373750D03*
D16*
X319881250Y-66833750D03*
X326231250Y-64293750D03*
%TD*%
%TO.C,Kd3*%
X90487500Y-64293750D03*
X84137500Y-66833750D03*
D17*
X87947500Y-69373750D03*
D11*
X82867500Y-69373750D03*
X93027500Y-69373750D03*
%TD*%
%TO.C,Kd5*%
X169227500Y-69373750D03*
X159067500Y-69373750D03*
D17*
X164147500Y-69373750D03*
D16*
X160337500Y-66833750D03*
X166687500Y-64293750D03*
%TD*%
%TO.C,Kd2*%
X52387500Y-64293750D03*
X46037500Y-66833750D03*
D17*
X49847500Y-69373750D03*
D11*
X44767500Y-69373750D03*
X54927500Y-69373750D03*
%TD*%
%TO.C,Kd8*%
X309721250Y-69373750D03*
X299561250Y-69373750D03*
D17*
X304641250Y-69373750D03*
D16*
X300831250Y-66833750D03*
X307181250Y-64293750D03*
%TD*%
%TO.C,Ke1*%
X0Y-83343750D03*
X-6350000Y-85883750D03*
D17*
X-2540000Y-88423750D03*
D11*
X-7620000Y-88423750D03*
X2540000Y-88423750D03*
%TD*%
D16*
%TO.C,Kc3*%
X71437500Y-64293750D03*
X65087500Y-66833750D03*
D17*
X68897500Y-69373750D03*
D11*
X63817500Y-69373750D03*
X73977500Y-69373750D03*
%TD*%
%TO.C,Kc7*%
X226377500Y-69373750D03*
X216217500Y-69373750D03*
D17*
X221297500Y-69373750D03*
D16*
X217487500Y-66833750D03*
X223837500Y-64293750D03*
%TD*%
%TO.C,Kc4*%
X109537500Y-64293750D03*
X103187500Y-66833750D03*
D17*
X106997500Y-69373750D03*
D11*
X101917500Y-69373750D03*
X112077500Y-69373750D03*
%TD*%
%TO.C,Kc5*%
X150177500Y-69373750D03*
X140017500Y-69373750D03*
D17*
X145097500Y-69373750D03*
D16*
X141287500Y-66833750D03*
X147637500Y-64293750D03*
%TD*%
D11*
%TO.C,Kc8*%
X290671250Y-69373750D03*
X280511250Y-69373750D03*
D17*
X285591250Y-69373750D03*
D16*
X281781250Y-66833750D03*
X288131250Y-64293750D03*
%TD*%
D11*
%TO.C,Kd1*%
X16827500Y-69373750D03*
X6667500Y-69373750D03*
D17*
X11747500Y-69373750D03*
D16*
X7937500Y-66833750D03*
X14287500Y-64293750D03*
%TD*%
%TO.C,C3*%
G36*
G01*
X274575000Y-126684512D02*
X274575000Y-125727988D01*
G75*
G02*
X274846738Y-125456250I271738J0D01*
G01*
X275553262Y-125456250D01*
G75*
G02*
X275825000Y-125727988I0J-271738D01*
G01*
X275825000Y-126684512D01*
G75*
G02*
X275553262Y-126956250I-271738J0D01*
G01*
X274846738Y-126956250D01*
G75*
G02*
X274575000Y-126684512I0J271738D01*
G01*
G37*
G36*
G01*
X276625000Y-126684512D02*
X276625000Y-125727988D01*
G75*
G02*
X276896738Y-125456250I271738J0D01*
G01*
X277603262Y-125456250D01*
G75*
G02*
X277875000Y-125727988I0J-271738D01*
G01*
X277875000Y-126684512D01*
G75*
G02*
X277603262Y-126956250I-271738J0D01*
G01*
X276896738Y-126956250D01*
G75*
G02*
X276625000Y-126684512I0J271738D01*
G01*
G37*
%TD*%
%TO.C,C4*%
G36*
G01*
X286150000Y-126684512D02*
X286150000Y-125727988D01*
G75*
G02*
X286421738Y-125456250I271738J0D01*
G01*
X287128262Y-125456250D01*
G75*
G02*
X287400000Y-125727988I0J-271738D01*
G01*
X287400000Y-126684512D01*
G75*
G02*
X287128262Y-126956250I-271738J0D01*
G01*
X286421738Y-126956250D01*
G75*
G02*
X286150000Y-126684512I0J271738D01*
G01*
G37*
G36*
G01*
X284100000Y-126684512D02*
X284100000Y-125727988D01*
G75*
G02*
X284371738Y-125456250I271738J0D01*
G01*
X285078262Y-125456250D01*
G75*
G02*
X285350000Y-125727988I0J-271738D01*
G01*
X285350000Y-126684512D01*
G75*
G02*
X285078262Y-126956250I-271738J0D01*
G01*
X284371738Y-126956250D01*
G75*
G02*
X284100000Y-126684512I0J271738D01*
G01*
G37*
%TD*%
%TO.C,C2*%
G36*
G01*
X296925000Y-118584238D02*
X296925000Y-119540762D01*
G75*
G02*
X296653262Y-119812500I-271738J0D01*
G01*
X295946738Y-119812500D01*
G75*
G02*
X295675000Y-119540762I0J271738D01*
G01*
X295675000Y-118584238D01*
G75*
G02*
X295946738Y-118312500I271738J0D01*
G01*
X296653262Y-118312500D01*
G75*
G02*
X296925000Y-118584238I0J-271738D01*
G01*
G37*
G36*
G01*
X294875000Y-118584238D02*
X294875000Y-119540762D01*
G75*
G02*
X294603262Y-119812500I-271738J0D01*
G01*
X293896738Y-119812500D01*
G75*
G02*
X293625000Y-119540762I0J271738D01*
G01*
X293625000Y-118584238D01*
G75*
G02*
X293896738Y-118312500I271738J0D01*
G01*
X294603262Y-118312500D01*
G75*
G02*
X294875000Y-118584238I0J-271738D01*
G01*
G37*
%TD*%
D23*
%TO.C,REF\u002A\u002A*%
X102393750Y-159543750D03*
%TD*%
%TO.C,C5*%
G36*
G01*
X286150000Y-102872012D02*
X286150000Y-101915488D01*
G75*
G02*
X286421738Y-101643750I271738J0D01*
G01*
X287128262Y-101643750D01*
G75*
G02*
X287400000Y-101915488I0J-271738D01*
G01*
X287400000Y-102872012D01*
G75*
G02*
X287128262Y-103143750I-271738J0D01*
G01*
X286421738Y-103143750D01*
G75*
G02*
X286150000Y-102872012I0J271738D01*
G01*
G37*
G36*
G01*
X284100000Y-102872012D02*
X284100000Y-101915488D01*
G75*
G02*
X284371738Y-101643750I271738J0D01*
G01*
X285078262Y-101643750D01*
G75*
G02*
X285350000Y-101915488I0J-271738D01*
G01*
X285350000Y-102872012D01*
G75*
G02*
X285078262Y-103143750I-271738J0D01*
G01*
X284371738Y-103143750D01*
G75*
G02*
X284100000Y-102872012I0J271738D01*
G01*
G37*
%TD*%
%TO.C,REF\u002A\u002A*%
X114300000Y-30956250D03*
%TD*%
%TO.C,REF\u002A\u002A*%
X-19050000Y-30956250D03*
%TD*%
%TO.C,REF\u002A\u002A*%
X-19050000Y-157162500D03*
%TD*%
%TO.C,REF\u002A\u002A*%
X335756250Y-157162500D03*
%TD*%
%TO.C,REF\u002A\u002A*%
X335756250Y-30956250D03*
%TD*%
%TO.C,REF\u002A\u002A*%
X190500000Y-159543750D03*
%TD*%
%TO.C,C1*%
G36*
G01*
X294875000Y-106677988D02*
X294875000Y-107634512D01*
G75*
G02*
X294603262Y-107906250I-271738J0D01*
G01*
X293896738Y-107906250D01*
G75*
G02*
X293625000Y-107634512I0J271738D01*
G01*
X293625000Y-106677988D01*
G75*
G02*
X293896738Y-106406250I271738J0D01*
G01*
X294603262Y-106406250D01*
G75*
G02*
X294875000Y-106677988I0J-271738D01*
G01*
G37*
G36*
G01*
X296925000Y-106677988D02*
X296925000Y-107634512D01*
G75*
G02*
X296653262Y-107906250I-271738J0D01*
G01*
X295946738Y-107906250D01*
G75*
G02*
X295675000Y-107634512I0J271738D01*
G01*
X295675000Y-106677988D01*
G75*
G02*
X295946738Y-106406250I271738J0D01*
G01*
X296653262Y-106406250D01*
G75*
G02*
X296925000Y-106677988I0J-271738D01*
G01*
G37*
%TD*%
%TO.C,H1*%
X121443750Y-28575000D03*
%TD*%
%TO.C,H2*%
X126206250Y-28575000D03*
%TD*%
%TO.C,H3*%
X130968750Y-28575000D03*
%TD*%
%TO.C,H4*%
X135731250Y-28575000D03*
%TD*%
M02*
