%TF.GenerationSoftware,KiCad,Pcbnew,(5.1.6)-1*%
%TF.CreationDate,2020-08-11T21:43:52+02:00*%
%TF.ProjectId,qosmosKbBIS,716f736d-6f73-44b6-9242-49532e6b6963,rev?*%
%TF.SameCoordinates,Original*%
%TF.FileFunction,Legend,Bot*%
%TF.FilePolarity,Positive*%
%FSLAX46Y46*%
G04 Gerber Fmt 4.6, Leading zero omitted, Abs format (unit mm)*
G04 Created by KiCad (PCBNEW (5.1.6)-1) date 2020-08-11 21:43:52*
%MOMM*%
%LPD*%
G01*
G04 APERTURE LIST*
%ADD10C,0.200000*%
%ADD11C,0.120000*%
%ADD12C,0.150000*%
G04 APERTURE END LIST*
D10*
%TO.C,D12*%
X200131250Y-48825000D02*
X200131250Y-46425000D01*
X199956250Y-48825000D02*
X199956250Y-46425000D01*
X199781250Y-48825000D02*
X199781250Y-46425000D01*
X199381250Y-46425000D02*
X199381250Y-48825000D01*
X199606250Y-48825000D02*
X199606250Y-46425000D01*
X199481250Y-48825000D02*
X199481250Y-46425000D01*
X199406250Y-48825000D02*
X205206250Y-48825000D01*
X205206250Y-48825000D02*
X205206250Y-46425000D01*
X205206250Y-46425000D02*
X199406250Y-46425000D01*
%TO.C,D2*%
X-4343750Y-72618750D02*
X-10143750Y-72618750D01*
X-4343750Y-75018750D02*
X-4343750Y-72618750D01*
X-10143750Y-75018750D02*
X-4343750Y-75018750D01*
X-10068750Y-75018750D02*
X-10068750Y-72618750D01*
X-9943750Y-75018750D02*
X-9943750Y-72618750D01*
X-10168750Y-72618750D02*
X-10168750Y-75018750D01*
X-9768750Y-75018750D02*
X-9768750Y-72618750D01*
X-9593750Y-75018750D02*
X-9593750Y-72618750D01*
X-9418750Y-75018750D02*
X-9418750Y-72618750D01*
%TO.C,D13*%
X219181250Y-48825000D02*
X219181250Y-46425000D01*
X219006250Y-48825000D02*
X219006250Y-46425000D01*
X218831250Y-48825000D02*
X218831250Y-46425000D01*
X218431250Y-46425000D02*
X218431250Y-48825000D01*
X218656250Y-48825000D02*
X218656250Y-46425000D01*
X218531250Y-48825000D02*
X218531250Y-46425000D01*
X218456250Y-48825000D02*
X224256250Y-48825000D01*
X224256250Y-48825000D02*
X224256250Y-46425000D01*
X224256250Y-46425000D02*
X218456250Y-46425000D01*
%TO.C,D14*%
X243306250Y-46425000D02*
X237506250Y-46425000D01*
X243306250Y-48825000D02*
X243306250Y-46425000D01*
X237506250Y-48825000D02*
X243306250Y-48825000D01*
X237581250Y-48825000D02*
X237581250Y-46425000D01*
X237706250Y-48825000D02*
X237706250Y-46425000D01*
X237481250Y-46425000D02*
X237481250Y-48825000D01*
X237881250Y-48825000D02*
X237881250Y-46425000D01*
X238056250Y-48825000D02*
X238056250Y-46425000D01*
X238231250Y-48825000D02*
X238231250Y-46425000D01*
%TO.C,D5*%
X67093750Y-46425000D02*
X61293750Y-46425000D01*
X67093750Y-48825000D02*
X67093750Y-46425000D01*
X61293750Y-48825000D02*
X67093750Y-48825000D01*
X61368750Y-48825000D02*
X61368750Y-46425000D01*
X61493750Y-48825000D02*
X61493750Y-46425000D01*
X61268750Y-46425000D02*
X61268750Y-48825000D01*
X61668750Y-48825000D02*
X61668750Y-46425000D01*
X61843750Y-48825000D02*
X61843750Y-46425000D01*
X62018750Y-48825000D02*
X62018750Y-46425000D01*
%TO.C,D15*%
X257281250Y-48825000D02*
X257281250Y-46425000D01*
X257106250Y-48825000D02*
X257106250Y-46425000D01*
X256931250Y-48825000D02*
X256931250Y-46425000D01*
X256531250Y-46425000D02*
X256531250Y-48825000D01*
X256756250Y-48825000D02*
X256756250Y-46425000D01*
X256631250Y-48825000D02*
X256631250Y-46425000D01*
X256556250Y-48825000D02*
X262356250Y-48825000D01*
X262356250Y-48825000D02*
X262356250Y-46425000D01*
X262356250Y-46425000D02*
X256556250Y-46425000D01*
%TO.C,D1*%
X-9418750Y-48825000D02*
X-9418750Y-46425000D01*
X-9593750Y-48825000D02*
X-9593750Y-46425000D01*
X-9768750Y-48825000D02*
X-9768750Y-46425000D01*
X-10168750Y-46425000D02*
X-10168750Y-48825000D01*
X-9943750Y-48825000D02*
X-9943750Y-46425000D01*
X-10068750Y-48825000D02*
X-10068750Y-46425000D01*
X-10143750Y-48825000D02*
X-4343750Y-48825000D01*
X-4343750Y-48825000D02*
X-4343750Y-46425000D01*
X-4343750Y-46425000D02*
X-10143750Y-46425000D01*
D11*
%TO.C,C7*%
X275963748Y-103103750D02*
X276486252Y-103103750D01*
X275963748Y-101683750D02*
X276486252Y-101683750D01*
D10*
%TO.C,D4*%
X48043750Y-46425000D02*
X42243750Y-46425000D01*
X48043750Y-48825000D02*
X48043750Y-46425000D01*
X42243750Y-48825000D02*
X48043750Y-48825000D01*
X42318750Y-48825000D02*
X42318750Y-46425000D01*
X42443750Y-48825000D02*
X42443750Y-46425000D01*
X42218750Y-46425000D02*
X42218750Y-48825000D01*
X42618750Y-48825000D02*
X42618750Y-46425000D01*
X42793750Y-48825000D02*
X42793750Y-46425000D01*
X42968750Y-48825000D02*
X42968750Y-46425000D01*
%TO.C,D6*%
X81068750Y-48825000D02*
X81068750Y-46425000D01*
X80893750Y-48825000D02*
X80893750Y-46425000D01*
X80718750Y-48825000D02*
X80718750Y-46425000D01*
X80318750Y-46425000D02*
X80318750Y-48825000D01*
X80543750Y-48825000D02*
X80543750Y-46425000D01*
X80418750Y-48825000D02*
X80418750Y-46425000D01*
X80343750Y-48825000D02*
X86143750Y-48825000D01*
X86143750Y-48825000D02*
X86143750Y-46425000D01*
X86143750Y-46425000D02*
X80343750Y-46425000D01*
%TO.C,D8*%
X117100000Y-46425000D02*
X111300000Y-46425000D01*
X117100000Y-48825000D02*
X117100000Y-46425000D01*
X111300000Y-48825000D02*
X117100000Y-48825000D01*
X111375000Y-48825000D02*
X111375000Y-46425000D01*
X111500000Y-48825000D02*
X111500000Y-46425000D01*
X111275000Y-46425000D02*
X111275000Y-48825000D01*
X111675000Y-48825000D02*
X111675000Y-46425000D01*
X111850000Y-48825000D02*
X111850000Y-46425000D01*
X112025000Y-48825000D02*
X112025000Y-46425000D01*
%TO.C,D9*%
X131075000Y-48825000D02*
X131075000Y-46425000D01*
X130900000Y-48825000D02*
X130900000Y-46425000D01*
X130725000Y-48825000D02*
X130725000Y-46425000D01*
X130325000Y-46425000D02*
X130325000Y-48825000D01*
X130550000Y-48825000D02*
X130550000Y-46425000D01*
X130425000Y-48825000D02*
X130425000Y-46425000D01*
X130350000Y-48825000D02*
X136150000Y-48825000D01*
X136150000Y-48825000D02*
X136150000Y-46425000D01*
X136150000Y-46425000D02*
X130350000Y-46425000D01*
%TO.C,D7*%
X14706250Y-72618750D02*
X8906250Y-72618750D01*
X14706250Y-75018750D02*
X14706250Y-72618750D01*
X8906250Y-75018750D02*
X14706250Y-75018750D01*
X8981250Y-75018750D02*
X8981250Y-72618750D01*
X9106250Y-75018750D02*
X9106250Y-72618750D01*
X8881250Y-72618750D02*
X8881250Y-75018750D01*
X9281250Y-75018750D02*
X9281250Y-72618750D01*
X9456250Y-75018750D02*
X9456250Y-72618750D01*
X9631250Y-75018750D02*
X9631250Y-72618750D01*
%TO.C,D10*%
X155200000Y-46425000D02*
X149400000Y-46425000D01*
X155200000Y-48825000D02*
X155200000Y-46425000D01*
X149400000Y-48825000D02*
X155200000Y-48825000D01*
X149475000Y-48825000D02*
X149475000Y-46425000D01*
X149600000Y-48825000D02*
X149600000Y-46425000D01*
X149375000Y-46425000D02*
X149375000Y-48825000D01*
X149775000Y-48825000D02*
X149775000Y-46425000D01*
X149950000Y-48825000D02*
X149950000Y-46425000D01*
X150125000Y-48825000D02*
X150125000Y-46425000D01*
D11*
%TO.C,C6*%
X295013748Y-101683750D02*
X295536252Y-101683750D01*
X295013748Y-103103750D02*
X295536252Y-103103750D01*
D10*
%TO.C,D3*%
X28993750Y-46425000D02*
X23193750Y-46425000D01*
X28993750Y-48825000D02*
X28993750Y-46425000D01*
X23193750Y-48825000D02*
X28993750Y-48825000D01*
X23268750Y-48825000D02*
X23268750Y-46425000D01*
X23393750Y-48825000D02*
X23393750Y-46425000D01*
X23168750Y-46425000D02*
X23168750Y-48825000D01*
X23568750Y-48825000D02*
X23568750Y-46425000D01*
X23743750Y-48825000D02*
X23743750Y-46425000D01*
X23918750Y-48825000D02*
X23918750Y-46425000D01*
D11*
%TO.C,C8*%
X280726248Y-101683750D02*
X281248752Y-101683750D01*
X280726248Y-103103750D02*
X281248752Y-103103750D01*
D10*
%TO.C,D11*%
X174250000Y-46425000D02*
X168450000Y-46425000D01*
X174250000Y-48825000D02*
X174250000Y-46425000D01*
X168450000Y-48825000D02*
X174250000Y-48825000D01*
X168525000Y-48825000D02*
X168525000Y-46425000D01*
X168650000Y-48825000D02*
X168650000Y-46425000D01*
X168425000Y-46425000D02*
X168425000Y-48825000D01*
X168825000Y-48825000D02*
X168825000Y-46425000D01*
X169000000Y-48825000D02*
X169000000Y-46425000D01*
X169175000Y-48825000D02*
X169175000Y-46425000D01*
D11*
%TO.C,R2*%
X280726248Y-125496250D02*
X281248752Y-125496250D01*
X280726248Y-126916250D02*
X281248752Y-126916250D01*
%TO.C,R1*%
X269791250Y-131230002D02*
X269791250Y-130707498D01*
X268371250Y-131230002D02*
X268371250Y-130707498D01*
D12*
%TO.C,U1*%
X276387500Y-109125000D02*
X276387500Y-107850000D01*
X275812500Y-119475000D02*
X275812500Y-118800000D01*
X286162500Y-119475000D02*
X286162500Y-118800000D01*
X286162500Y-109125000D02*
X286162500Y-109800000D01*
X275812500Y-109125000D02*
X275812500Y-109800000D01*
X286162500Y-109125000D02*
X285487500Y-109125000D01*
X286162500Y-119475000D02*
X285487500Y-119475000D01*
X275812500Y-119475000D02*
X276487500Y-119475000D01*
X275812500Y-109125000D02*
X276387500Y-109125000D01*
D10*
%TO.C,X1*%
X298440203Y-113310050D02*
X295081446Y-109951293D01*
X295788552Y-115961701D02*
X298440203Y-113310050D01*
X292429795Y-112602944D02*
X295788552Y-115961701D01*
X295081446Y-109951293D02*
X292429795Y-112602944D01*
D11*
%TO.C,R4*%
X299327500Y-110632498D02*
X299327500Y-111155002D01*
X300747500Y-110632498D02*
X300747500Y-111155002D01*
%TO.C,R3*%
X300747500Y-104513748D02*
X300747500Y-105036252D01*
X299327500Y-104513748D02*
X299327500Y-105036252D01*
%TO.C,SW1*%
X277356250Y-133718750D02*
X279856250Y-133718750D01*
X275856250Y-131968750D02*
X275856250Y-129968750D01*
X277356250Y-128218750D02*
X279856250Y-128218750D01*
X281356250Y-131968750D02*
X281356250Y-129968750D01*
X276906250Y-133268750D02*
X277356250Y-133718750D01*
X280306250Y-133268750D02*
X279856250Y-133718750D01*
X280306250Y-128668750D02*
X279856250Y-128218750D01*
X276906250Y-128668750D02*
X277356250Y-128218750D01*
D10*
%TO.C,D30*%
X247756250Y-75018750D02*
X247756250Y-72618750D01*
X247581250Y-75018750D02*
X247581250Y-72618750D01*
X247406250Y-75018750D02*
X247406250Y-72618750D01*
X247006250Y-72618750D02*
X247006250Y-75018750D01*
X247231250Y-75018750D02*
X247231250Y-72618750D01*
X247106250Y-75018750D02*
X247106250Y-72618750D01*
X247031250Y-75018750D02*
X252831250Y-75018750D01*
X252831250Y-75018750D02*
X252831250Y-72618750D01*
X252831250Y-72618750D02*
X247031250Y-72618750D01*
%TO.C,D31*%
X283156250Y-75018750D02*
X283156250Y-72618750D01*
X282981250Y-75018750D02*
X282981250Y-72618750D01*
X282806250Y-75018750D02*
X282806250Y-72618750D01*
X282406250Y-72618750D02*
X282406250Y-75018750D01*
X282631250Y-75018750D02*
X282631250Y-72618750D01*
X282506250Y-75018750D02*
X282506250Y-72618750D01*
X282431250Y-75018750D02*
X288231250Y-75018750D01*
X288231250Y-75018750D02*
X288231250Y-72618750D01*
X288231250Y-72618750D02*
X282431250Y-72618750D01*
%TO.C,D32*%
X307600000Y-72618750D02*
X301800000Y-72618750D01*
X307600000Y-75018750D02*
X307600000Y-72618750D01*
X301800000Y-75018750D02*
X307600000Y-75018750D01*
X301875000Y-75018750D02*
X301875000Y-72618750D01*
X302000000Y-75018750D02*
X302000000Y-72618750D01*
X301775000Y-72618750D02*
X301775000Y-75018750D01*
X302175000Y-75018750D02*
X302175000Y-72618750D01*
X302350000Y-75018750D02*
X302350000Y-72618750D01*
X302525000Y-75018750D02*
X302525000Y-72618750D01*
%TO.C,D33*%
X321575000Y-75018750D02*
X321575000Y-72618750D01*
X321400000Y-75018750D02*
X321400000Y-72618750D01*
X321225000Y-75018750D02*
X321225000Y-72618750D01*
X320825000Y-72618750D02*
X320825000Y-75018750D01*
X321050000Y-75018750D02*
X321050000Y-72618750D01*
X320925000Y-75018750D02*
X320925000Y-72618750D01*
X320850000Y-75018750D02*
X326650000Y-75018750D01*
X326650000Y-75018750D02*
X326650000Y-72618750D01*
X326650000Y-72618750D02*
X320850000Y-72618750D01*
%TO.C,D18*%
X326650000Y-46425000D02*
X320850000Y-46425000D01*
X326650000Y-48825000D02*
X326650000Y-46425000D01*
X320850000Y-48825000D02*
X326650000Y-48825000D01*
X320925000Y-48825000D02*
X320925000Y-46425000D01*
X321050000Y-48825000D02*
X321050000Y-46425000D01*
X320825000Y-46425000D02*
X320825000Y-48825000D01*
X321225000Y-48825000D02*
X321225000Y-46425000D01*
X321400000Y-48825000D02*
X321400000Y-46425000D01*
X321575000Y-48825000D02*
X321575000Y-46425000D01*
%TO.C,D20*%
X52806250Y-72618750D02*
X47006250Y-72618750D01*
X52806250Y-75018750D02*
X52806250Y-72618750D01*
X47006250Y-75018750D02*
X52806250Y-75018750D01*
X47081250Y-75018750D02*
X47081250Y-72618750D01*
X47206250Y-75018750D02*
X47206250Y-72618750D01*
X46981250Y-72618750D02*
X46981250Y-75018750D01*
X47381250Y-75018750D02*
X47381250Y-72618750D01*
X47556250Y-75018750D02*
X47556250Y-72618750D01*
X47731250Y-75018750D02*
X47731250Y-72618750D01*
%TO.C,D16*%
X288550000Y-46425000D02*
X282750000Y-46425000D01*
X288550000Y-48825000D02*
X288550000Y-46425000D01*
X282750000Y-48825000D02*
X288550000Y-48825000D01*
X282825000Y-48825000D02*
X282825000Y-46425000D01*
X282950000Y-48825000D02*
X282950000Y-46425000D01*
X282725000Y-46425000D02*
X282725000Y-48825000D01*
X283125000Y-48825000D02*
X283125000Y-46425000D01*
X283300000Y-48825000D02*
X283300000Y-46425000D01*
X283475000Y-48825000D02*
X283475000Y-46425000D01*
%TO.C,D22*%
X90906250Y-72618750D02*
X85106250Y-72618750D01*
X90906250Y-75018750D02*
X90906250Y-72618750D01*
X85106250Y-75018750D02*
X90906250Y-75018750D01*
X85181250Y-75018750D02*
X85181250Y-72618750D01*
X85306250Y-75018750D02*
X85306250Y-72618750D01*
X85081250Y-72618750D02*
X85081250Y-75018750D01*
X85481250Y-75018750D02*
X85481250Y-72618750D01*
X85656250Y-75018750D02*
X85656250Y-72618750D01*
X85831250Y-75018750D02*
X85831250Y-72618750D01*
%TO.C,D25*%
X148056250Y-72618750D02*
X142256250Y-72618750D01*
X148056250Y-75018750D02*
X148056250Y-72618750D01*
X142256250Y-75018750D02*
X148056250Y-75018750D01*
X142331250Y-75018750D02*
X142331250Y-72618750D01*
X142456250Y-75018750D02*
X142456250Y-72618750D01*
X142231250Y-72618750D02*
X142231250Y-75018750D01*
X142631250Y-75018750D02*
X142631250Y-72618750D01*
X142806250Y-75018750D02*
X142806250Y-72618750D01*
X142981250Y-75018750D02*
X142981250Y-72618750D01*
%TO.C,D26*%
X162031250Y-75018750D02*
X162031250Y-72618750D01*
X161856250Y-75018750D02*
X161856250Y-72618750D01*
X161681250Y-75018750D02*
X161681250Y-72618750D01*
X161281250Y-72618750D02*
X161281250Y-75018750D01*
X161506250Y-75018750D02*
X161506250Y-72618750D01*
X161381250Y-75018750D02*
X161381250Y-72618750D01*
X161306250Y-75018750D02*
X167106250Y-75018750D01*
X167106250Y-75018750D02*
X167106250Y-72618750D01*
X167106250Y-72618750D02*
X161306250Y-72618750D01*
%TO.C,D23*%
X104881250Y-75018750D02*
X104881250Y-72618750D01*
X104706250Y-75018750D02*
X104706250Y-72618750D01*
X104531250Y-75018750D02*
X104531250Y-72618750D01*
X104131250Y-72618750D02*
X104131250Y-75018750D01*
X104356250Y-75018750D02*
X104356250Y-72618750D01*
X104231250Y-75018750D02*
X104231250Y-72618750D01*
X104156250Y-75018750D02*
X109956250Y-75018750D01*
X109956250Y-75018750D02*
X109956250Y-72618750D01*
X109956250Y-72618750D02*
X104156250Y-72618750D01*
%TO.C,D27*%
X181081250Y-75018750D02*
X181081250Y-72618750D01*
X180906250Y-75018750D02*
X180906250Y-72618750D01*
X180731250Y-75018750D02*
X180731250Y-72618750D01*
X180331250Y-72618750D02*
X180331250Y-75018750D01*
X180556250Y-75018750D02*
X180556250Y-72618750D01*
X180431250Y-75018750D02*
X180431250Y-72618750D01*
X180356250Y-75018750D02*
X186156250Y-75018750D01*
X186156250Y-75018750D02*
X186156250Y-72618750D01*
X186156250Y-72618750D02*
X180356250Y-72618750D01*
%TO.C,D19*%
X33756250Y-72618750D02*
X27956250Y-72618750D01*
X33756250Y-75018750D02*
X33756250Y-72618750D01*
X27956250Y-75018750D02*
X33756250Y-75018750D01*
X28031250Y-75018750D02*
X28031250Y-72618750D01*
X28156250Y-75018750D02*
X28156250Y-72618750D01*
X27931250Y-72618750D02*
X27931250Y-75018750D01*
X28331250Y-75018750D02*
X28331250Y-72618750D01*
X28506250Y-75018750D02*
X28506250Y-72618750D01*
X28681250Y-75018750D02*
X28681250Y-72618750D01*
%TO.C,D21*%
X71856250Y-72618750D02*
X66056250Y-72618750D01*
X71856250Y-75018750D02*
X71856250Y-72618750D01*
X66056250Y-75018750D02*
X71856250Y-75018750D01*
X66131250Y-75018750D02*
X66131250Y-72618750D01*
X66256250Y-75018750D02*
X66256250Y-72618750D01*
X66031250Y-72618750D02*
X66031250Y-75018750D01*
X66431250Y-75018750D02*
X66431250Y-72618750D01*
X66606250Y-75018750D02*
X66606250Y-72618750D01*
X66781250Y-75018750D02*
X66781250Y-72618750D01*
%TO.C,D29*%
X224256250Y-72618750D02*
X218456250Y-72618750D01*
X224256250Y-75018750D02*
X224256250Y-72618750D01*
X218456250Y-75018750D02*
X224256250Y-75018750D01*
X218531250Y-75018750D02*
X218531250Y-72618750D01*
X218656250Y-75018750D02*
X218656250Y-72618750D01*
X218431250Y-72618750D02*
X218431250Y-75018750D01*
X218831250Y-75018750D02*
X218831250Y-72618750D01*
X219006250Y-75018750D02*
X219006250Y-72618750D01*
X219181250Y-75018750D02*
X219181250Y-72618750D01*
%TO.C,D24*%
X123931250Y-75018750D02*
X123931250Y-72618750D01*
X123756250Y-75018750D02*
X123756250Y-72618750D01*
X123581250Y-75018750D02*
X123581250Y-72618750D01*
X123181250Y-72618750D02*
X123181250Y-75018750D01*
X123406250Y-75018750D02*
X123406250Y-72618750D01*
X123281250Y-75018750D02*
X123281250Y-72618750D01*
X123206250Y-75018750D02*
X129006250Y-75018750D01*
X129006250Y-75018750D02*
X129006250Y-72618750D01*
X129006250Y-72618750D02*
X123206250Y-72618750D01*
%TO.C,D28*%
X205206250Y-72618750D02*
X199406250Y-72618750D01*
X205206250Y-75018750D02*
X205206250Y-72618750D01*
X199406250Y-75018750D02*
X205206250Y-75018750D01*
X199481250Y-75018750D02*
X199481250Y-72618750D01*
X199606250Y-75018750D02*
X199606250Y-72618750D01*
X199381250Y-72618750D02*
X199381250Y-75018750D01*
X199781250Y-75018750D02*
X199781250Y-72618750D01*
X199956250Y-75018750D02*
X199956250Y-72618750D01*
X200131250Y-75018750D02*
X200131250Y-72618750D01*
%TO.C,D17*%
X307600000Y-46425000D02*
X301800000Y-46425000D01*
X307600000Y-48825000D02*
X307600000Y-46425000D01*
X301800000Y-48825000D02*
X307600000Y-48825000D01*
X301875000Y-48825000D02*
X301875000Y-46425000D01*
X302000000Y-48825000D02*
X302000000Y-46425000D01*
X301775000Y-46425000D02*
X301775000Y-48825000D01*
X302175000Y-48825000D02*
X302175000Y-46425000D01*
X302350000Y-48825000D02*
X302350000Y-46425000D01*
X302525000Y-48825000D02*
X302525000Y-46425000D01*
%TO.C,D48*%
X302525000Y-94068750D02*
X302525000Y-91668750D01*
X302350000Y-94068750D02*
X302350000Y-91668750D01*
X302175000Y-94068750D02*
X302175000Y-91668750D01*
X301775000Y-91668750D02*
X301775000Y-94068750D01*
X302000000Y-94068750D02*
X302000000Y-91668750D01*
X301875000Y-94068750D02*
X301875000Y-91668750D01*
X301800000Y-94068750D02*
X307600000Y-94068750D01*
X307600000Y-94068750D02*
X307600000Y-91668750D01*
X307600000Y-91668750D02*
X301800000Y-91668750D01*
%TO.C,D42*%
X157581250Y-91668750D02*
X151781250Y-91668750D01*
X157581250Y-94068750D02*
X157581250Y-91668750D01*
X151781250Y-94068750D02*
X157581250Y-94068750D01*
X151856250Y-94068750D02*
X151856250Y-91668750D01*
X151981250Y-94068750D02*
X151981250Y-91668750D01*
X151756250Y-91668750D02*
X151756250Y-94068750D01*
X152156250Y-94068750D02*
X152156250Y-91668750D01*
X152331250Y-94068750D02*
X152331250Y-91668750D01*
X152506250Y-94068750D02*
X152506250Y-91668750D01*
%TO.C,D43*%
X176631250Y-91668750D02*
X170831250Y-91668750D01*
X176631250Y-94068750D02*
X176631250Y-91668750D01*
X170831250Y-94068750D02*
X176631250Y-94068750D01*
X170906250Y-94068750D02*
X170906250Y-91668750D01*
X171031250Y-94068750D02*
X171031250Y-91668750D01*
X170806250Y-91668750D02*
X170806250Y-94068750D01*
X171206250Y-94068750D02*
X171206250Y-91668750D01*
X171381250Y-94068750D02*
X171381250Y-91668750D01*
X171556250Y-94068750D02*
X171556250Y-91668750D01*
%TO.C,D45*%
X209656250Y-94068750D02*
X209656250Y-91668750D01*
X209481250Y-94068750D02*
X209481250Y-91668750D01*
X209306250Y-94068750D02*
X209306250Y-91668750D01*
X208906250Y-91668750D02*
X208906250Y-94068750D01*
X209131250Y-94068750D02*
X209131250Y-91668750D01*
X209006250Y-94068750D02*
X209006250Y-91668750D01*
X208931250Y-94068750D02*
X214731250Y-94068750D01*
X214731250Y-94068750D02*
X214731250Y-91668750D01*
X214731250Y-91668750D02*
X208931250Y-91668750D01*
%TO.C,D49*%
X321575000Y-94068750D02*
X321575000Y-91668750D01*
X321400000Y-94068750D02*
X321400000Y-91668750D01*
X321225000Y-94068750D02*
X321225000Y-91668750D01*
X320825000Y-91668750D02*
X320825000Y-94068750D01*
X321050000Y-94068750D02*
X321050000Y-91668750D01*
X320925000Y-94068750D02*
X320925000Y-91668750D01*
X320850000Y-94068750D02*
X326650000Y-94068750D01*
X326650000Y-94068750D02*
X326650000Y-91668750D01*
X326650000Y-91668750D02*
X320850000Y-91668750D01*
%TO.C,D41*%
X133456250Y-94068750D02*
X133456250Y-91668750D01*
X133281250Y-94068750D02*
X133281250Y-91668750D01*
X133106250Y-94068750D02*
X133106250Y-91668750D01*
X132706250Y-91668750D02*
X132706250Y-94068750D01*
X132931250Y-94068750D02*
X132931250Y-91668750D01*
X132806250Y-94068750D02*
X132806250Y-91668750D01*
X132731250Y-94068750D02*
X138531250Y-94068750D01*
X138531250Y-94068750D02*
X138531250Y-91668750D01*
X138531250Y-91668750D02*
X132731250Y-91668750D01*
%TO.C,D50*%
X254900000Y-103593750D02*
X254900000Y-101193750D01*
X254725000Y-103593750D02*
X254725000Y-101193750D01*
X254550000Y-103593750D02*
X254550000Y-101193750D01*
X254150000Y-101193750D02*
X254150000Y-103593750D01*
X254375000Y-103593750D02*
X254375000Y-101193750D01*
X254250000Y-103593750D02*
X254250000Y-101193750D01*
X254175000Y-103593750D02*
X259975000Y-103593750D01*
X259975000Y-103593750D02*
X259975000Y-101193750D01*
X259975000Y-101193750D02*
X254175000Y-101193750D01*
%TO.C,D51*%
X2800000Y-110718750D02*
X-3000000Y-110718750D01*
X2800000Y-113118750D02*
X2800000Y-110718750D01*
X-3000000Y-113118750D02*
X2800000Y-113118750D01*
X-2925000Y-113118750D02*
X-2925000Y-110718750D01*
X-2800000Y-113118750D02*
X-2800000Y-110718750D01*
X-3025000Y-110718750D02*
X-3025000Y-113118750D01*
X-2625000Y-113118750D02*
X-2625000Y-110718750D01*
X-2450000Y-113118750D02*
X-2450000Y-110718750D01*
X-2275000Y-113118750D02*
X-2275000Y-110718750D01*
%TO.C,D40*%
X114406250Y-94068750D02*
X114406250Y-91668750D01*
X114231250Y-94068750D02*
X114231250Y-91668750D01*
X114056250Y-94068750D02*
X114056250Y-91668750D01*
X113656250Y-91668750D02*
X113656250Y-94068750D01*
X113881250Y-94068750D02*
X113881250Y-91668750D01*
X113756250Y-94068750D02*
X113756250Y-91668750D01*
X113681250Y-94068750D02*
X119481250Y-94068750D01*
X119481250Y-94068750D02*
X119481250Y-91668750D01*
X119481250Y-91668750D02*
X113681250Y-91668750D01*
%TO.C,D44*%
X190606250Y-94068750D02*
X190606250Y-91668750D01*
X190431250Y-94068750D02*
X190431250Y-91668750D01*
X190256250Y-94068750D02*
X190256250Y-91668750D01*
X189856250Y-91668750D02*
X189856250Y-94068750D01*
X190081250Y-94068750D02*
X190081250Y-91668750D01*
X189956250Y-94068750D02*
X189956250Y-91668750D01*
X189881250Y-94068750D02*
X195681250Y-94068750D01*
X195681250Y-94068750D02*
X195681250Y-91668750D01*
X195681250Y-91668750D02*
X189881250Y-91668750D01*
%TO.C,D37*%
X62331250Y-91668750D02*
X56531250Y-91668750D01*
X62331250Y-94068750D02*
X62331250Y-91668750D01*
X56531250Y-94068750D02*
X62331250Y-94068750D01*
X56606250Y-94068750D02*
X56606250Y-91668750D01*
X56731250Y-94068750D02*
X56731250Y-91668750D01*
X56506250Y-91668750D02*
X56506250Y-94068750D01*
X56906250Y-94068750D02*
X56906250Y-91668750D01*
X57081250Y-94068750D02*
X57081250Y-91668750D01*
X57256250Y-94068750D02*
X57256250Y-91668750D01*
%TO.C,D39*%
X100431250Y-91668750D02*
X94631250Y-91668750D01*
X100431250Y-94068750D02*
X100431250Y-91668750D01*
X94631250Y-94068750D02*
X100431250Y-94068750D01*
X94706250Y-94068750D02*
X94706250Y-91668750D01*
X94831250Y-94068750D02*
X94831250Y-91668750D01*
X94606250Y-91668750D02*
X94606250Y-94068750D01*
X95006250Y-94068750D02*
X95006250Y-91668750D01*
X95181250Y-94068750D02*
X95181250Y-91668750D01*
X95356250Y-94068750D02*
X95356250Y-91668750D01*
%TO.C,D46*%
X228706250Y-94068750D02*
X228706250Y-91668750D01*
X228531250Y-94068750D02*
X228531250Y-91668750D01*
X228356250Y-94068750D02*
X228356250Y-91668750D01*
X227956250Y-91668750D02*
X227956250Y-94068750D01*
X228181250Y-94068750D02*
X228181250Y-91668750D01*
X228056250Y-94068750D02*
X228056250Y-91668750D01*
X227981250Y-94068750D02*
X233781250Y-94068750D01*
X233781250Y-94068750D02*
X233781250Y-91668750D01*
X233781250Y-91668750D02*
X227981250Y-91668750D01*
%TO.C,D34*%
X418750Y-91668750D02*
X-5381250Y-91668750D01*
X418750Y-94068750D02*
X418750Y-91668750D01*
X-5381250Y-94068750D02*
X418750Y-94068750D01*
X-5306250Y-94068750D02*
X-5306250Y-91668750D01*
X-5181250Y-94068750D02*
X-5181250Y-91668750D01*
X-5406250Y-91668750D02*
X-5406250Y-94068750D01*
X-5006250Y-94068750D02*
X-5006250Y-91668750D01*
X-4831250Y-94068750D02*
X-4831250Y-91668750D01*
X-4656250Y-94068750D02*
X-4656250Y-91668750D01*
%TO.C,D35*%
X24231250Y-91668750D02*
X18431250Y-91668750D01*
X24231250Y-94068750D02*
X24231250Y-91668750D01*
X18431250Y-94068750D02*
X24231250Y-94068750D01*
X18506250Y-94068750D02*
X18506250Y-91668750D01*
X18631250Y-94068750D02*
X18631250Y-91668750D01*
X18406250Y-91668750D02*
X18406250Y-94068750D01*
X18806250Y-94068750D02*
X18806250Y-91668750D01*
X18981250Y-94068750D02*
X18981250Y-91668750D01*
X19156250Y-94068750D02*
X19156250Y-91668750D01*
%TO.C,D36*%
X43281250Y-91668750D02*
X37481250Y-91668750D01*
X43281250Y-94068750D02*
X43281250Y-91668750D01*
X37481250Y-94068750D02*
X43281250Y-94068750D01*
X37556250Y-94068750D02*
X37556250Y-91668750D01*
X37681250Y-94068750D02*
X37681250Y-91668750D01*
X37456250Y-91668750D02*
X37456250Y-94068750D01*
X37856250Y-94068750D02*
X37856250Y-91668750D01*
X38031250Y-94068750D02*
X38031250Y-91668750D01*
X38206250Y-94068750D02*
X38206250Y-91668750D01*
%TO.C,D38*%
X81062500Y-91668750D02*
X75262500Y-91668750D01*
X81062500Y-94068750D02*
X81062500Y-91668750D01*
X75262500Y-94068750D02*
X81062500Y-94068750D01*
X75337500Y-94068750D02*
X75337500Y-91668750D01*
X75462500Y-94068750D02*
X75462500Y-91668750D01*
X75237500Y-91668750D02*
X75237500Y-94068750D01*
X75637500Y-94068750D02*
X75637500Y-91668750D01*
X75812500Y-94068750D02*
X75812500Y-91668750D01*
X75987500Y-94068750D02*
X75987500Y-91668750D01*
%TO.C,D47*%
X283475000Y-94068750D02*
X283475000Y-91668750D01*
X283300000Y-94068750D02*
X283300000Y-91668750D01*
X283125000Y-94068750D02*
X283125000Y-91668750D01*
X282725000Y-91668750D02*
X282725000Y-94068750D01*
X282950000Y-94068750D02*
X282950000Y-91668750D01*
X282825000Y-94068750D02*
X282825000Y-91668750D01*
X282750000Y-94068750D02*
X288550000Y-94068750D01*
X288550000Y-94068750D02*
X288550000Y-91668750D01*
X288550000Y-91668750D02*
X282750000Y-91668750D01*
%TO.C,D58*%
X137900000Y-113118750D02*
X137900000Y-110718750D01*
X137725000Y-113118750D02*
X137725000Y-110718750D01*
X137550000Y-113118750D02*
X137550000Y-110718750D01*
X137150000Y-110718750D02*
X137150000Y-113118750D01*
X137375000Y-113118750D02*
X137375000Y-110718750D01*
X137250000Y-113118750D02*
X137250000Y-110718750D01*
X137175000Y-113118750D02*
X142975000Y-113118750D01*
X142975000Y-113118750D02*
X142975000Y-110718750D01*
X142975000Y-110718750D02*
X137175000Y-110718750D01*
%TO.C,D57*%
X119168750Y-113118750D02*
X119168750Y-110718750D01*
X118993750Y-113118750D02*
X118993750Y-110718750D01*
X118818750Y-113118750D02*
X118818750Y-110718750D01*
X118418750Y-110718750D02*
X118418750Y-113118750D01*
X118643750Y-113118750D02*
X118643750Y-110718750D01*
X118518750Y-113118750D02*
X118518750Y-110718750D01*
X118443750Y-113118750D02*
X124243750Y-113118750D01*
X124243750Y-113118750D02*
X124243750Y-110718750D01*
X124243750Y-110718750D02*
X118443750Y-110718750D01*
%TO.C,D59*%
X162343750Y-110718750D02*
X156543750Y-110718750D01*
X162343750Y-113118750D02*
X162343750Y-110718750D01*
X156543750Y-113118750D02*
X162343750Y-113118750D01*
X156618750Y-113118750D02*
X156618750Y-110718750D01*
X156743750Y-113118750D02*
X156743750Y-110718750D01*
X156518750Y-110718750D02*
X156518750Y-113118750D01*
X156918750Y-113118750D02*
X156918750Y-110718750D01*
X157093750Y-113118750D02*
X157093750Y-110718750D01*
X157268750Y-113118750D02*
X157268750Y-110718750D01*
%TO.C,D62*%
X214418750Y-113118750D02*
X214418750Y-110718750D01*
X214243750Y-113118750D02*
X214243750Y-110718750D01*
X214068750Y-113118750D02*
X214068750Y-110718750D01*
X213668750Y-110718750D02*
X213668750Y-113118750D01*
X213893750Y-113118750D02*
X213893750Y-110718750D01*
X213768750Y-113118750D02*
X213768750Y-110718750D01*
X213693750Y-113118750D02*
X219493750Y-113118750D01*
X219493750Y-113118750D02*
X219493750Y-110718750D01*
X219493750Y-110718750D02*
X213693750Y-110718750D01*
%TO.C,D65*%
X19468750Y-129768750D02*
X13668750Y-129768750D01*
X19468750Y-132168750D02*
X19468750Y-129768750D01*
X13668750Y-132168750D02*
X19468750Y-132168750D01*
X13743750Y-132168750D02*
X13743750Y-129768750D01*
X13868750Y-132168750D02*
X13868750Y-129768750D01*
X13643750Y-129768750D02*
X13643750Y-132168750D01*
X14043750Y-132168750D02*
X14043750Y-129768750D01*
X14218750Y-132168750D02*
X14218750Y-129768750D01*
X14393750Y-132168750D02*
X14393750Y-129768750D01*
%TO.C,D63*%
X233468750Y-113118750D02*
X233468750Y-110718750D01*
X233293750Y-113118750D02*
X233293750Y-110718750D01*
X233118750Y-113118750D02*
X233118750Y-110718750D01*
X232718750Y-110718750D02*
X232718750Y-113118750D01*
X232943750Y-113118750D02*
X232943750Y-110718750D01*
X232818750Y-113118750D02*
X232818750Y-110718750D01*
X232743750Y-113118750D02*
X238543750Y-113118750D01*
X238543750Y-113118750D02*
X238543750Y-110718750D01*
X238543750Y-110718750D02*
X232743750Y-110718750D01*
%TO.C,D53*%
X48043750Y-110718750D02*
X42243750Y-110718750D01*
X48043750Y-113118750D02*
X48043750Y-110718750D01*
X42243750Y-113118750D02*
X48043750Y-113118750D01*
X42318750Y-113118750D02*
X42318750Y-110718750D01*
X42443750Y-113118750D02*
X42443750Y-110718750D01*
X42218750Y-110718750D02*
X42218750Y-113118750D01*
X42618750Y-113118750D02*
X42618750Y-110718750D01*
X42793750Y-113118750D02*
X42793750Y-110718750D01*
X42968750Y-113118750D02*
X42968750Y-110718750D01*
%TO.C,D60*%
X181393750Y-110718750D02*
X175593750Y-110718750D01*
X181393750Y-113118750D02*
X181393750Y-110718750D01*
X175593750Y-113118750D02*
X181393750Y-113118750D01*
X175668750Y-113118750D02*
X175668750Y-110718750D01*
X175793750Y-113118750D02*
X175793750Y-110718750D01*
X175568750Y-110718750D02*
X175568750Y-113118750D01*
X175968750Y-113118750D02*
X175968750Y-110718750D01*
X176143750Y-113118750D02*
X176143750Y-110718750D01*
X176318750Y-113118750D02*
X176318750Y-110718750D01*
%TO.C,D66*%
X33125000Y-132168750D02*
X33125000Y-129768750D01*
X32950000Y-132168750D02*
X32950000Y-129768750D01*
X32775000Y-132168750D02*
X32775000Y-129768750D01*
X32375000Y-129768750D02*
X32375000Y-132168750D01*
X32600000Y-132168750D02*
X32600000Y-129768750D01*
X32475000Y-132168750D02*
X32475000Y-129768750D01*
X32400000Y-132168750D02*
X38200000Y-132168750D01*
X38200000Y-132168750D02*
X38200000Y-129768750D01*
X38200000Y-129768750D02*
X32400000Y-129768750D01*
%TO.C,D52*%
X23918750Y-113118750D02*
X23918750Y-110718750D01*
X23743750Y-113118750D02*
X23743750Y-110718750D01*
X23568750Y-113118750D02*
X23568750Y-110718750D01*
X23168750Y-110718750D02*
X23168750Y-113118750D01*
X23393750Y-113118750D02*
X23393750Y-110718750D01*
X23268750Y-113118750D02*
X23268750Y-110718750D01*
X23193750Y-113118750D02*
X28993750Y-113118750D01*
X28993750Y-113118750D02*
X28993750Y-110718750D01*
X28993750Y-110718750D02*
X23193750Y-110718750D01*
%TO.C,D67*%
X52493750Y-132168750D02*
X52493750Y-129768750D01*
X52318750Y-132168750D02*
X52318750Y-129768750D01*
X52143750Y-132168750D02*
X52143750Y-129768750D01*
X51743750Y-129768750D02*
X51743750Y-132168750D01*
X51968750Y-132168750D02*
X51968750Y-129768750D01*
X51843750Y-132168750D02*
X51843750Y-129768750D01*
X51768750Y-132168750D02*
X57568750Y-132168750D01*
X57568750Y-132168750D02*
X57568750Y-129768750D01*
X57568750Y-129768750D02*
X51768750Y-129768750D01*
%TO.C,D68*%
X71543750Y-132168750D02*
X71543750Y-129768750D01*
X71368750Y-132168750D02*
X71368750Y-129768750D01*
X71193750Y-132168750D02*
X71193750Y-129768750D01*
X70793750Y-129768750D02*
X70793750Y-132168750D01*
X71018750Y-132168750D02*
X71018750Y-129768750D01*
X70893750Y-132168750D02*
X70893750Y-129768750D01*
X70818750Y-132168750D02*
X76618750Y-132168750D01*
X76618750Y-132168750D02*
X76618750Y-129768750D01*
X76618750Y-129768750D02*
X70818750Y-129768750D01*
%TO.C,D56*%
X100118750Y-113118750D02*
X100118750Y-110718750D01*
X99943750Y-113118750D02*
X99943750Y-110718750D01*
X99768750Y-113118750D02*
X99768750Y-110718750D01*
X99368750Y-110718750D02*
X99368750Y-113118750D01*
X99593750Y-113118750D02*
X99593750Y-110718750D01*
X99468750Y-113118750D02*
X99468750Y-110718750D01*
X99393750Y-113118750D02*
X105193750Y-113118750D01*
X105193750Y-113118750D02*
X105193750Y-110718750D01*
X105193750Y-110718750D02*
X99393750Y-110718750D01*
%TO.C,D61*%
X195368750Y-113118750D02*
X195368750Y-110718750D01*
X195193750Y-113118750D02*
X195193750Y-110718750D01*
X195018750Y-113118750D02*
X195018750Y-110718750D01*
X194618750Y-110718750D02*
X194618750Y-113118750D01*
X194843750Y-113118750D02*
X194843750Y-110718750D01*
X194718750Y-113118750D02*
X194718750Y-110718750D01*
X194643750Y-113118750D02*
X200443750Y-113118750D01*
X200443750Y-113118750D02*
X200443750Y-110718750D01*
X200443750Y-110718750D02*
X194643750Y-110718750D01*
%TO.C,D64*%
X-7037500Y-132168750D02*
X-7037500Y-129768750D01*
X-7212500Y-132168750D02*
X-7212500Y-129768750D01*
X-7387500Y-132168750D02*
X-7387500Y-129768750D01*
X-7787500Y-129768750D02*
X-7787500Y-132168750D01*
X-7562500Y-132168750D02*
X-7562500Y-129768750D01*
X-7687500Y-132168750D02*
X-7687500Y-129768750D01*
X-7762500Y-132168750D02*
X-1962500Y-132168750D01*
X-1962500Y-132168750D02*
X-1962500Y-129768750D01*
X-1962500Y-129768750D02*
X-7762500Y-129768750D01*
%TO.C,D54*%
X62018750Y-113118750D02*
X62018750Y-110718750D01*
X61843750Y-113118750D02*
X61843750Y-110718750D01*
X61668750Y-113118750D02*
X61668750Y-110718750D01*
X61268750Y-110718750D02*
X61268750Y-113118750D01*
X61493750Y-113118750D02*
X61493750Y-110718750D01*
X61368750Y-113118750D02*
X61368750Y-110718750D01*
X61293750Y-113118750D02*
X67093750Y-113118750D01*
X67093750Y-113118750D02*
X67093750Y-110718750D01*
X67093750Y-110718750D02*
X61293750Y-110718750D01*
%TO.C,D55*%
X86143750Y-110718750D02*
X80343750Y-110718750D01*
X86143750Y-113118750D02*
X86143750Y-110718750D01*
X80343750Y-113118750D02*
X86143750Y-113118750D01*
X80418750Y-113118750D02*
X80418750Y-110718750D01*
X80543750Y-113118750D02*
X80543750Y-110718750D01*
X80318750Y-110718750D02*
X80318750Y-113118750D01*
X80718750Y-113118750D02*
X80718750Y-110718750D01*
X80893750Y-113118750D02*
X80893750Y-110718750D01*
X81068750Y-113118750D02*
X81068750Y-110718750D01*
%TO.C,D69*%
X90593750Y-132168750D02*
X90593750Y-129768750D01*
X90418750Y-132168750D02*
X90418750Y-129768750D01*
X90243750Y-132168750D02*
X90243750Y-129768750D01*
X89843750Y-129768750D02*
X89843750Y-132168750D01*
X90068750Y-132168750D02*
X90068750Y-129768750D01*
X89943750Y-132168750D02*
X89943750Y-129768750D01*
X89868750Y-132168750D02*
X95668750Y-132168750D01*
X95668750Y-132168750D02*
X95668750Y-129768750D01*
X95668750Y-129768750D02*
X89868750Y-129768750D01*
%TO.C,D82*%
X183462500Y-151218750D02*
X183462500Y-148818750D01*
X183287500Y-151218750D02*
X183287500Y-148818750D01*
X183112500Y-151218750D02*
X183112500Y-148818750D01*
X182712500Y-148818750D02*
X182712500Y-151218750D01*
X182937500Y-151218750D02*
X182937500Y-148818750D01*
X182812500Y-151218750D02*
X182812500Y-148818750D01*
X182737500Y-151218750D02*
X188537500Y-151218750D01*
X188537500Y-151218750D02*
X188537500Y-148818750D01*
X188537500Y-148818750D02*
X182737500Y-148818750D01*
%TO.C,D77*%
X302525000Y-132168750D02*
X302525000Y-129768750D01*
X302350000Y-132168750D02*
X302350000Y-129768750D01*
X302175000Y-132168750D02*
X302175000Y-129768750D01*
X301775000Y-129768750D02*
X301775000Y-132168750D01*
X302000000Y-132168750D02*
X302000000Y-129768750D01*
X301875000Y-132168750D02*
X301875000Y-129768750D01*
X301800000Y-132168750D02*
X307600000Y-132168750D01*
X307600000Y-132168750D02*
X307600000Y-129768750D01*
X307600000Y-129768750D02*
X301800000Y-129768750D01*
%TO.C,D70*%
X114718750Y-129768750D02*
X108918750Y-129768750D01*
X114718750Y-132168750D02*
X114718750Y-129768750D01*
X108918750Y-132168750D02*
X114718750Y-132168750D01*
X108993750Y-132168750D02*
X108993750Y-129768750D01*
X109118750Y-132168750D02*
X109118750Y-129768750D01*
X108893750Y-129768750D02*
X108893750Y-132168750D01*
X109293750Y-132168750D02*
X109293750Y-129768750D01*
X109468750Y-132168750D02*
X109468750Y-129768750D01*
X109643750Y-132168750D02*
X109643750Y-129768750D01*
%TO.C,D83*%
X212350000Y-148818750D02*
X206550000Y-148818750D01*
X212350000Y-151218750D02*
X212350000Y-148818750D01*
X206550000Y-151218750D02*
X212350000Y-151218750D01*
X206625000Y-151218750D02*
X206625000Y-148818750D01*
X206750000Y-151218750D02*
X206750000Y-148818750D01*
X206525000Y-148818750D02*
X206525000Y-151218750D01*
X206925000Y-151218750D02*
X206925000Y-148818750D01*
X207100000Y-151218750D02*
X207100000Y-148818750D01*
X207275000Y-151218750D02*
X207275000Y-148818750D01*
%TO.C,D84*%
X231087500Y-151218750D02*
X231087500Y-148818750D01*
X230912500Y-151218750D02*
X230912500Y-148818750D01*
X230737500Y-151218750D02*
X230737500Y-148818750D01*
X230337500Y-148818750D02*
X230337500Y-151218750D01*
X230562500Y-151218750D02*
X230562500Y-148818750D01*
X230437500Y-151218750D02*
X230437500Y-148818750D01*
X230362500Y-151218750D02*
X236162500Y-151218750D01*
X236162500Y-151218750D02*
X236162500Y-148818750D01*
X236162500Y-148818750D02*
X230362500Y-148818750D01*
%TO.C,D76*%
X240612500Y-132168750D02*
X240612500Y-129768750D01*
X240437500Y-132168750D02*
X240437500Y-129768750D01*
X240262500Y-132168750D02*
X240262500Y-129768750D01*
X239862500Y-129768750D02*
X239862500Y-132168750D01*
X240087500Y-132168750D02*
X240087500Y-129768750D01*
X239962500Y-132168750D02*
X239962500Y-129768750D01*
X239887500Y-132168750D02*
X245687500Y-132168750D01*
X245687500Y-132168750D02*
X245687500Y-129768750D01*
X245687500Y-129768750D02*
X239887500Y-129768750D01*
%TO.C,D79*%
X21850000Y-148818750D02*
X16050000Y-148818750D01*
X21850000Y-151218750D02*
X21850000Y-148818750D01*
X16050000Y-151218750D02*
X21850000Y-151218750D01*
X16125000Y-151218750D02*
X16125000Y-148818750D01*
X16250000Y-151218750D02*
X16250000Y-148818750D01*
X16025000Y-148818750D02*
X16025000Y-151218750D01*
X16425000Y-151218750D02*
X16425000Y-148818750D01*
X16600000Y-151218750D02*
X16600000Y-148818750D01*
X16775000Y-151218750D02*
X16775000Y-148818750D01*
%TO.C,D81*%
X117100000Y-148818750D02*
X111300000Y-148818750D01*
X117100000Y-151218750D02*
X117100000Y-148818750D01*
X111300000Y-151218750D02*
X117100000Y-151218750D01*
X111375000Y-151218750D02*
X111375000Y-148818750D01*
X111500000Y-151218750D02*
X111500000Y-148818750D01*
X111275000Y-148818750D02*
X111275000Y-151218750D01*
X111675000Y-151218750D02*
X111675000Y-148818750D01*
X111850000Y-151218750D02*
X111850000Y-148818750D01*
X112025000Y-151218750D02*
X112025000Y-148818750D01*
%TO.C,D72*%
X152818750Y-129768750D02*
X147018750Y-129768750D01*
X152818750Y-132168750D02*
X152818750Y-129768750D01*
X147018750Y-132168750D02*
X152818750Y-132168750D01*
X147093750Y-132168750D02*
X147093750Y-129768750D01*
X147218750Y-132168750D02*
X147218750Y-129768750D01*
X146993750Y-129768750D02*
X146993750Y-132168750D01*
X147393750Y-132168750D02*
X147393750Y-129768750D01*
X147568750Y-132168750D02*
X147568750Y-129768750D01*
X147743750Y-132168750D02*
X147743750Y-129768750D01*
%TO.C,D80*%
X45662500Y-148818750D02*
X39862500Y-148818750D01*
X45662500Y-151218750D02*
X45662500Y-148818750D01*
X39862500Y-151218750D02*
X45662500Y-151218750D01*
X39937500Y-151218750D02*
X39937500Y-148818750D01*
X40062500Y-151218750D02*
X40062500Y-148818750D01*
X39837500Y-148818750D02*
X39837500Y-151218750D01*
X40237500Y-151218750D02*
X40237500Y-148818750D01*
X40412500Y-151218750D02*
X40412500Y-148818750D01*
X40587500Y-151218750D02*
X40587500Y-148818750D01*
%TO.C,D85*%
X254900000Y-151218750D02*
X254900000Y-148818750D01*
X254725000Y-151218750D02*
X254725000Y-148818750D01*
X254550000Y-151218750D02*
X254550000Y-148818750D01*
X254150000Y-148818750D02*
X254150000Y-151218750D01*
X254375000Y-151218750D02*
X254375000Y-148818750D01*
X254250000Y-151218750D02*
X254250000Y-148818750D01*
X254175000Y-151218750D02*
X259975000Y-151218750D01*
X259975000Y-151218750D02*
X259975000Y-148818750D01*
X259975000Y-148818750D02*
X254175000Y-148818750D01*
%TO.C,D86*%
X283475000Y-151218750D02*
X283475000Y-148818750D01*
X283300000Y-151218750D02*
X283300000Y-148818750D01*
X283125000Y-151218750D02*
X283125000Y-148818750D01*
X282725000Y-148818750D02*
X282725000Y-151218750D01*
X282950000Y-151218750D02*
X282950000Y-148818750D01*
X282825000Y-151218750D02*
X282825000Y-148818750D01*
X282750000Y-151218750D02*
X288550000Y-151218750D01*
X288550000Y-151218750D02*
X288550000Y-148818750D01*
X288550000Y-148818750D02*
X282750000Y-148818750D01*
%TO.C,D87*%
X307600000Y-148818750D02*
X301800000Y-148818750D01*
X307600000Y-151218750D02*
X307600000Y-148818750D01*
X301800000Y-151218750D02*
X307600000Y-151218750D01*
X301875000Y-151218750D02*
X301875000Y-148818750D01*
X302000000Y-151218750D02*
X302000000Y-148818750D01*
X301775000Y-148818750D02*
X301775000Y-151218750D01*
X302175000Y-151218750D02*
X302175000Y-148818750D01*
X302350000Y-151218750D02*
X302350000Y-148818750D01*
X302525000Y-151218750D02*
X302525000Y-148818750D01*
%TO.C,D71*%
X128693750Y-132168750D02*
X128693750Y-129768750D01*
X128518750Y-132168750D02*
X128518750Y-129768750D01*
X128343750Y-132168750D02*
X128343750Y-129768750D01*
X127943750Y-129768750D02*
X127943750Y-132168750D01*
X128168750Y-132168750D02*
X128168750Y-129768750D01*
X128043750Y-132168750D02*
X128043750Y-129768750D01*
X127968750Y-132168750D02*
X133768750Y-132168750D01*
X133768750Y-132168750D02*
X133768750Y-129768750D01*
X133768750Y-129768750D02*
X127968750Y-129768750D01*
%TO.C,D73*%
X171868750Y-129768750D02*
X166068750Y-129768750D01*
X171868750Y-132168750D02*
X171868750Y-129768750D01*
X166068750Y-132168750D02*
X171868750Y-132168750D01*
X166143750Y-132168750D02*
X166143750Y-129768750D01*
X166268750Y-132168750D02*
X166268750Y-129768750D01*
X166043750Y-129768750D02*
X166043750Y-132168750D01*
X166443750Y-132168750D02*
X166443750Y-129768750D01*
X166618750Y-132168750D02*
X166618750Y-129768750D01*
X166793750Y-132168750D02*
X166793750Y-129768750D01*
%TO.C,D75*%
X204893750Y-132168750D02*
X204893750Y-129768750D01*
X204718750Y-132168750D02*
X204718750Y-129768750D01*
X204543750Y-132168750D02*
X204543750Y-129768750D01*
X204143750Y-129768750D02*
X204143750Y-132168750D01*
X204368750Y-132168750D02*
X204368750Y-129768750D01*
X204243750Y-132168750D02*
X204243750Y-129768750D01*
X204168750Y-132168750D02*
X209968750Y-132168750D01*
X209968750Y-132168750D02*
X209968750Y-129768750D01*
X209968750Y-129768750D02*
X204168750Y-129768750D01*
%TO.C,D78*%
X-7037500Y-151218750D02*
X-7037500Y-148818750D01*
X-7212500Y-151218750D02*
X-7212500Y-148818750D01*
X-7387500Y-151218750D02*
X-7387500Y-148818750D01*
X-7787500Y-148818750D02*
X-7787500Y-151218750D01*
X-7562500Y-151218750D02*
X-7562500Y-148818750D01*
X-7687500Y-151218750D02*
X-7687500Y-148818750D01*
X-7762500Y-151218750D02*
X-1962500Y-151218750D01*
X-1962500Y-151218750D02*
X-1962500Y-148818750D01*
X-1962500Y-148818750D02*
X-7762500Y-148818750D01*
%TO.C,D74*%
X190918750Y-129768750D02*
X185118750Y-129768750D01*
X190918750Y-132168750D02*
X190918750Y-129768750D01*
X185118750Y-132168750D02*
X190918750Y-132168750D01*
X185193750Y-132168750D02*
X185193750Y-129768750D01*
X185318750Y-132168750D02*
X185318750Y-129768750D01*
X185093750Y-129768750D02*
X185093750Y-132168750D01*
X185493750Y-132168750D02*
X185493750Y-129768750D01*
X185668750Y-132168750D02*
X185668750Y-129768750D01*
X185843750Y-132168750D02*
X185843750Y-129768750D01*
%TO.C,D88*%
X326968750Y-148818750D02*
X321168750Y-148818750D01*
X326968750Y-151218750D02*
X326968750Y-148818750D01*
X321168750Y-151218750D02*
X326968750Y-151218750D01*
X321243750Y-151218750D02*
X321243750Y-148818750D01*
X321368750Y-151218750D02*
X321368750Y-148818750D01*
X321143750Y-148818750D02*
X321143750Y-151218750D01*
X321543750Y-151218750D02*
X321543750Y-148818750D01*
X321718750Y-151218750D02*
X321718750Y-148818750D01*
X321893750Y-151218750D02*
X321893750Y-148818750D01*
D11*
%TO.C,C3*%
X275963748Y-125496250D02*
X276486252Y-125496250D01*
X275963748Y-126916250D02*
X276486252Y-126916250D01*
%TO.C,C4*%
X285488748Y-126916250D02*
X286011252Y-126916250D01*
X285488748Y-125496250D02*
X286011252Y-125496250D01*
%TO.C,C2*%
X295536252Y-119772500D02*
X295013748Y-119772500D01*
X295536252Y-118352500D02*
X295013748Y-118352500D01*
%TO.C,C5*%
X285488748Y-103103750D02*
X286011252Y-103103750D01*
X285488748Y-101683750D02*
X286011252Y-101683750D01*
%TO.C,C1*%
X295536252Y-106446250D02*
X295013748Y-106446250D01*
X295536252Y-107866250D02*
X295013748Y-107866250D01*
%TO.C,D12*%
D12*
X203377678Y-46061904D02*
X203377678Y-45261904D01*
X203187202Y-45261904D01*
X203072916Y-45300000D01*
X202996726Y-45376190D01*
X202958630Y-45452380D01*
X202920535Y-45604761D01*
X202920535Y-45719047D01*
X202958630Y-45871428D01*
X202996726Y-45947619D01*
X203072916Y-46023809D01*
X203187202Y-46061904D01*
X203377678Y-46061904D01*
X202158630Y-46061904D02*
X202615773Y-46061904D01*
X202387202Y-46061904D02*
X202387202Y-45261904D01*
X202463392Y-45376190D01*
X202539583Y-45452380D01*
X202615773Y-45490476D01*
X201853869Y-45338095D02*
X201815773Y-45300000D01*
X201739583Y-45261904D01*
X201549107Y-45261904D01*
X201472916Y-45300000D01*
X201434821Y-45338095D01*
X201396726Y-45414285D01*
X201396726Y-45490476D01*
X201434821Y-45604761D01*
X201891964Y-46061904D01*
X201396726Y-46061904D01*
%TO.C,D2*%
X-6553273Y-72255654D02*
X-6553273Y-71455654D01*
X-6743750Y-71455654D01*
X-6858035Y-71493750D01*
X-6934226Y-71569940D01*
X-6972321Y-71646130D01*
X-7010416Y-71798511D01*
X-7010416Y-71912797D01*
X-6972321Y-72065178D01*
X-6934226Y-72141369D01*
X-6858035Y-72217559D01*
X-6743750Y-72255654D01*
X-6553273Y-72255654D01*
X-7315178Y-71531845D02*
X-7353273Y-71493750D01*
X-7429464Y-71455654D01*
X-7619940Y-71455654D01*
X-7696130Y-71493750D01*
X-7734226Y-71531845D01*
X-7772321Y-71608035D01*
X-7772321Y-71684226D01*
X-7734226Y-71798511D01*
X-7277083Y-72255654D01*
X-7772321Y-72255654D01*
%TO.C,D13*%
X222427678Y-46061904D02*
X222427678Y-45261904D01*
X222237202Y-45261904D01*
X222122916Y-45300000D01*
X222046726Y-45376190D01*
X222008630Y-45452380D01*
X221970535Y-45604761D01*
X221970535Y-45719047D01*
X222008630Y-45871428D01*
X222046726Y-45947619D01*
X222122916Y-46023809D01*
X222237202Y-46061904D01*
X222427678Y-46061904D01*
X221208630Y-46061904D02*
X221665773Y-46061904D01*
X221437202Y-46061904D02*
X221437202Y-45261904D01*
X221513392Y-45376190D01*
X221589583Y-45452380D01*
X221665773Y-45490476D01*
X220941964Y-45261904D02*
X220446726Y-45261904D01*
X220713392Y-45566666D01*
X220599107Y-45566666D01*
X220522916Y-45604761D01*
X220484821Y-45642857D01*
X220446726Y-45719047D01*
X220446726Y-45909523D01*
X220484821Y-45985714D01*
X220522916Y-46023809D01*
X220599107Y-46061904D01*
X220827678Y-46061904D01*
X220903869Y-46023809D01*
X220941964Y-45985714D01*
%TO.C,D14*%
X241477678Y-46061904D02*
X241477678Y-45261904D01*
X241287202Y-45261904D01*
X241172916Y-45300000D01*
X241096726Y-45376190D01*
X241058630Y-45452380D01*
X241020535Y-45604761D01*
X241020535Y-45719047D01*
X241058630Y-45871428D01*
X241096726Y-45947619D01*
X241172916Y-46023809D01*
X241287202Y-46061904D01*
X241477678Y-46061904D01*
X240258630Y-46061904D02*
X240715773Y-46061904D01*
X240487202Y-46061904D02*
X240487202Y-45261904D01*
X240563392Y-45376190D01*
X240639583Y-45452380D01*
X240715773Y-45490476D01*
X239572916Y-45528571D02*
X239572916Y-46061904D01*
X239763392Y-45223809D02*
X239953869Y-45795238D01*
X239458630Y-45795238D01*
%TO.C,D5*%
X64884226Y-46061904D02*
X64884226Y-45261904D01*
X64693750Y-45261904D01*
X64579464Y-45300000D01*
X64503273Y-45376190D01*
X64465178Y-45452380D01*
X64427083Y-45604761D01*
X64427083Y-45719047D01*
X64465178Y-45871428D01*
X64503273Y-45947619D01*
X64579464Y-46023809D01*
X64693750Y-46061904D01*
X64884226Y-46061904D01*
X63703273Y-45261904D02*
X64084226Y-45261904D01*
X64122321Y-45642857D01*
X64084226Y-45604761D01*
X64008035Y-45566666D01*
X63817559Y-45566666D01*
X63741369Y-45604761D01*
X63703273Y-45642857D01*
X63665178Y-45719047D01*
X63665178Y-45909523D01*
X63703273Y-45985714D01*
X63741369Y-46023809D01*
X63817559Y-46061904D01*
X64008035Y-46061904D01*
X64084226Y-46023809D01*
X64122321Y-45985714D01*
%TO.C,D15*%
X260527678Y-46061904D02*
X260527678Y-45261904D01*
X260337202Y-45261904D01*
X260222916Y-45300000D01*
X260146726Y-45376190D01*
X260108630Y-45452380D01*
X260070535Y-45604761D01*
X260070535Y-45719047D01*
X260108630Y-45871428D01*
X260146726Y-45947619D01*
X260222916Y-46023809D01*
X260337202Y-46061904D01*
X260527678Y-46061904D01*
X259308630Y-46061904D02*
X259765773Y-46061904D01*
X259537202Y-46061904D02*
X259537202Y-45261904D01*
X259613392Y-45376190D01*
X259689583Y-45452380D01*
X259765773Y-45490476D01*
X258584821Y-45261904D02*
X258965773Y-45261904D01*
X259003869Y-45642857D01*
X258965773Y-45604761D01*
X258889583Y-45566666D01*
X258699107Y-45566666D01*
X258622916Y-45604761D01*
X258584821Y-45642857D01*
X258546726Y-45719047D01*
X258546726Y-45909523D01*
X258584821Y-45985714D01*
X258622916Y-46023809D01*
X258699107Y-46061904D01*
X258889583Y-46061904D01*
X258965773Y-46023809D01*
X259003869Y-45985714D01*
%TO.C,D1*%
X-6553273Y-46061904D02*
X-6553273Y-45261904D01*
X-6743750Y-45261904D01*
X-6858035Y-45300000D01*
X-6934226Y-45376190D01*
X-6972321Y-45452380D01*
X-7010416Y-45604761D01*
X-7010416Y-45719047D01*
X-6972321Y-45871428D01*
X-6934226Y-45947619D01*
X-6858035Y-46023809D01*
X-6743750Y-46061904D01*
X-6553273Y-46061904D01*
X-7772321Y-46061904D02*
X-7315178Y-46061904D01*
X-7543750Y-46061904D02*
X-7543750Y-45261904D01*
X-7467559Y-45376190D01*
X-7391369Y-45452380D01*
X-7315178Y-45490476D01*
%TO.C,C7*%
X276391666Y-104400892D02*
X276439285Y-104448511D01*
X276582142Y-104496130D01*
X276677380Y-104496130D01*
X276820238Y-104448511D01*
X276915476Y-104353273D01*
X276963095Y-104258035D01*
X277010714Y-104067559D01*
X277010714Y-103924702D01*
X276963095Y-103734226D01*
X276915476Y-103638988D01*
X276820238Y-103543750D01*
X276677380Y-103496130D01*
X276582142Y-103496130D01*
X276439285Y-103543750D01*
X276391666Y-103591369D01*
X276058333Y-103496130D02*
X275391666Y-103496130D01*
X275820238Y-104496130D01*
%TO.C,D4*%
X45834226Y-46061904D02*
X45834226Y-45261904D01*
X45643750Y-45261904D01*
X45529464Y-45300000D01*
X45453273Y-45376190D01*
X45415178Y-45452380D01*
X45377083Y-45604761D01*
X45377083Y-45719047D01*
X45415178Y-45871428D01*
X45453273Y-45947619D01*
X45529464Y-46023809D01*
X45643750Y-46061904D01*
X45834226Y-46061904D01*
X44691369Y-45528571D02*
X44691369Y-46061904D01*
X44881845Y-45223809D02*
X45072321Y-45795238D01*
X44577083Y-45795238D01*
%TO.C,D6*%
X83934226Y-46061904D02*
X83934226Y-45261904D01*
X83743750Y-45261904D01*
X83629464Y-45300000D01*
X83553273Y-45376190D01*
X83515178Y-45452380D01*
X83477083Y-45604761D01*
X83477083Y-45719047D01*
X83515178Y-45871428D01*
X83553273Y-45947619D01*
X83629464Y-46023809D01*
X83743750Y-46061904D01*
X83934226Y-46061904D01*
X82791369Y-45261904D02*
X82943750Y-45261904D01*
X83019940Y-45300000D01*
X83058035Y-45338095D01*
X83134226Y-45452380D01*
X83172321Y-45604761D01*
X83172321Y-45909523D01*
X83134226Y-45985714D01*
X83096130Y-46023809D01*
X83019940Y-46061904D01*
X82867559Y-46061904D01*
X82791369Y-46023809D01*
X82753273Y-45985714D01*
X82715178Y-45909523D01*
X82715178Y-45719047D01*
X82753273Y-45642857D01*
X82791369Y-45604761D01*
X82867559Y-45566666D01*
X83019940Y-45566666D01*
X83096130Y-45604761D01*
X83134226Y-45642857D01*
X83172321Y-45719047D01*
%TO.C,D8*%
X114890476Y-46061904D02*
X114890476Y-45261904D01*
X114700000Y-45261904D01*
X114585714Y-45300000D01*
X114509523Y-45376190D01*
X114471428Y-45452380D01*
X114433333Y-45604761D01*
X114433333Y-45719047D01*
X114471428Y-45871428D01*
X114509523Y-45947619D01*
X114585714Y-46023809D01*
X114700000Y-46061904D01*
X114890476Y-46061904D01*
X113976190Y-45604761D02*
X114052380Y-45566666D01*
X114090476Y-45528571D01*
X114128571Y-45452380D01*
X114128571Y-45414285D01*
X114090476Y-45338095D01*
X114052380Y-45300000D01*
X113976190Y-45261904D01*
X113823809Y-45261904D01*
X113747619Y-45300000D01*
X113709523Y-45338095D01*
X113671428Y-45414285D01*
X113671428Y-45452380D01*
X113709523Y-45528571D01*
X113747619Y-45566666D01*
X113823809Y-45604761D01*
X113976190Y-45604761D01*
X114052380Y-45642857D01*
X114090476Y-45680952D01*
X114128571Y-45757142D01*
X114128571Y-45909523D01*
X114090476Y-45985714D01*
X114052380Y-46023809D01*
X113976190Y-46061904D01*
X113823809Y-46061904D01*
X113747619Y-46023809D01*
X113709523Y-45985714D01*
X113671428Y-45909523D01*
X113671428Y-45757142D01*
X113709523Y-45680952D01*
X113747619Y-45642857D01*
X113823809Y-45604761D01*
%TO.C,D9*%
X133940476Y-46061904D02*
X133940476Y-45261904D01*
X133750000Y-45261904D01*
X133635714Y-45300000D01*
X133559523Y-45376190D01*
X133521428Y-45452380D01*
X133483333Y-45604761D01*
X133483333Y-45719047D01*
X133521428Y-45871428D01*
X133559523Y-45947619D01*
X133635714Y-46023809D01*
X133750000Y-46061904D01*
X133940476Y-46061904D01*
X133102380Y-46061904D02*
X132950000Y-46061904D01*
X132873809Y-46023809D01*
X132835714Y-45985714D01*
X132759523Y-45871428D01*
X132721428Y-45719047D01*
X132721428Y-45414285D01*
X132759523Y-45338095D01*
X132797619Y-45300000D01*
X132873809Y-45261904D01*
X133026190Y-45261904D01*
X133102380Y-45300000D01*
X133140476Y-45338095D01*
X133178571Y-45414285D01*
X133178571Y-45604761D01*
X133140476Y-45680952D01*
X133102380Y-45719047D01*
X133026190Y-45757142D01*
X132873809Y-45757142D01*
X132797619Y-45719047D01*
X132759523Y-45680952D01*
X132721428Y-45604761D01*
%TO.C,D7*%
X12496726Y-72255654D02*
X12496726Y-71455654D01*
X12306250Y-71455654D01*
X12191964Y-71493750D01*
X12115773Y-71569940D01*
X12077678Y-71646130D01*
X12039583Y-71798511D01*
X12039583Y-71912797D01*
X12077678Y-72065178D01*
X12115773Y-72141369D01*
X12191964Y-72217559D01*
X12306250Y-72255654D01*
X12496726Y-72255654D01*
X11772916Y-71455654D02*
X11239583Y-71455654D01*
X11582440Y-72255654D01*
%TO.C,D10*%
X153371428Y-46061904D02*
X153371428Y-45261904D01*
X153180952Y-45261904D01*
X153066666Y-45300000D01*
X152990476Y-45376190D01*
X152952380Y-45452380D01*
X152914285Y-45604761D01*
X152914285Y-45719047D01*
X152952380Y-45871428D01*
X152990476Y-45947619D01*
X153066666Y-46023809D01*
X153180952Y-46061904D01*
X153371428Y-46061904D01*
X152152380Y-46061904D02*
X152609523Y-46061904D01*
X152380952Y-46061904D02*
X152380952Y-45261904D01*
X152457142Y-45376190D01*
X152533333Y-45452380D01*
X152609523Y-45490476D01*
X151657142Y-45261904D02*
X151580952Y-45261904D01*
X151504761Y-45300000D01*
X151466666Y-45338095D01*
X151428571Y-45414285D01*
X151390476Y-45566666D01*
X151390476Y-45757142D01*
X151428571Y-45909523D01*
X151466666Y-45985714D01*
X151504761Y-46023809D01*
X151580952Y-46061904D01*
X151657142Y-46061904D01*
X151733333Y-46023809D01*
X151771428Y-45985714D01*
X151809523Y-45909523D01*
X151847619Y-45757142D01*
X151847619Y-45566666D01*
X151809523Y-45414285D01*
X151771428Y-45338095D01*
X151733333Y-45300000D01*
X151657142Y-45261904D01*
%TO.C,C6*%
X295441666Y-104400892D02*
X295489285Y-104448511D01*
X295632142Y-104496130D01*
X295727380Y-104496130D01*
X295870238Y-104448511D01*
X295965476Y-104353273D01*
X296013095Y-104258035D01*
X296060714Y-104067559D01*
X296060714Y-103924702D01*
X296013095Y-103734226D01*
X295965476Y-103638988D01*
X295870238Y-103543750D01*
X295727380Y-103496130D01*
X295632142Y-103496130D01*
X295489285Y-103543750D01*
X295441666Y-103591369D01*
X294584523Y-103496130D02*
X294775000Y-103496130D01*
X294870238Y-103543750D01*
X294917857Y-103591369D01*
X295013095Y-103734226D01*
X295060714Y-103924702D01*
X295060714Y-104305654D01*
X295013095Y-104400892D01*
X294965476Y-104448511D01*
X294870238Y-104496130D01*
X294679761Y-104496130D01*
X294584523Y-104448511D01*
X294536904Y-104400892D01*
X294489285Y-104305654D01*
X294489285Y-104067559D01*
X294536904Y-103972321D01*
X294584523Y-103924702D01*
X294679761Y-103877083D01*
X294870238Y-103877083D01*
X294965476Y-103924702D01*
X295013095Y-103972321D01*
X295060714Y-104067559D01*
%TO.C,D3*%
X26784226Y-46061904D02*
X26784226Y-45261904D01*
X26593750Y-45261904D01*
X26479464Y-45300000D01*
X26403273Y-45376190D01*
X26365178Y-45452380D01*
X26327083Y-45604761D01*
X26327083Y-45719047D01*
X26365178Y-45871428D01*
X26403273Y-45947619D01*
X26479464Y-46023809D01*
X26593750Y-46061904D01*
X26784226Y-46061904D01*
X26060416Y-45261904D02*
X25565178Y-45261904D01*
X25831845Y-45566666D01*
X25717559Y-45566666D01*
X25641369Y-45604761D01*
X25603273Y-45642857D01*
X25565178Y-45719047D01*
X25565178Y-45909523D01*
X25603273Y-45985714D01*
X25641369Y-46023809D01*
X25717559Y-46061904D01*
X25946130Y-46061904D01*
X26022321Y-46023809D01*
X26060416Y-45985714D01*
%TO.C,C8*%
X281154166Y-104400892D02*
X281201785Y-104448511D01*
X281344642Y-104496130D01*
X281439880Y-104496130D01*
X281582738Y-104448511D01*
X281677976Y-104353273D01*
X281725595Y-104258035D01*
X281773214Y-104067559D01*
X281773214Y-103924702D01*
X281725595Y-103734226D01*
X281677976Y-103638988D01*
X281582738Y-103543750D01*
X281439880Y-103496130D01*
X281344642Y-103496130D01*
X281201785Y-103543750D01*
X281154166Y-103591369D01*
X280582738Y-103924702D02*
X280677976Y-103877083D01*
X280725595Y-103829464D01*
X280773214Y-103734226D01*
X280773214Y-103686607D01*
X280725595Y-103591369D01*
X280677976Y-103543750D01*
X280582738Y-103496130D01*
X280392261Y-103496130D01*
X280297023Y-103543750D01*
X280249404Y-103591369D01*
X280201785Y-103686607D01*
X280201785Y-103734226D01*
X280249404Y-103829464D01*
X280297023Y-103877083D01*
X280392261Y-103924702D01*
X280582738Y-103924702D01*
X280677976Y-103972321D01*
X280725595Y-104019940D01*
X280773214Y-104115178D01*
X280773214Y-104305654D01*
X280725595Y-104400892D01*
X280677976Y-104448511D01*
X280582738Y-104496130D01*
X280392261Y-104496130D01*
X280297023Y-104448511D01*
X280249404Y-104400892D01*
X280201785Y-104305654D01*
X280201785Y-104115178D01*
X280249404Y-104019940D01*
X280297023Y-103972321D01*
X280392261Y-103924702D01*
%TO.C,D11*%
X172421428Y-46061904D02*
X172421428Y-45261904D01*
X172230952Y-45261904D01*
X172116666Y-45300000D01*
X172040476Y-45376190D01*
X172002380Y-45452380D01*
X171964285Y-45604761D01*
X171964285Y-45719047D01*
X172002380Y-45871428D01*
X172040476Y-45947619D01*
X172116666Y-46023809D01*
X172230952Y-46061904D01*
X172421428Y-46061904D01*
X171202380Y-46061904D02*
X171659523Y-46061904D01*
X171430952Y-46061904D02*
X171430952Y-45261904D01*
X171507142Y-45376190D01*
X171583333Y-45452380D01*
X171659523Y-45490476D01*
X170440476Y-46061904D02*
X170897619Y-46061904D01*
X170669047Y-46061904D02*
X170669047Y-45261904D01*
X170745238Y-45376190D01*
X170821428Y-45452380D01*
X170897619Y-45490476D01*
%TO.C,R2*%
X281154166Y-128308630D02*
X281487500Y-127832440D01*
X281725595Y-128308630D02*
X281725595Y-127308630D01*
X281344642Y-127308630D01*
X281249404Y-127356250D01*
X281201785Y-127403869D01*
X281154166Y-127499107D01*
X281154166Y-127641964D01*
X281201785Y-127737202D01*
X281249404Y-127784821D01*
X281344642Y-127832440D01*
X281725595Y-127832440D01*
X280773214Y-127403869D02*
X280725595Y-127356250D01*
X280630357Y-127308630D01*
X280392261Y-127308630D01*
X280297023Y-127356250D01*
X280249404Y-127403869D01*
X280201785Y-127499107D01*
X280201785Y-127594345D01*
X280249404Y-127737202D01*
X280820833Y-128308630D01*
X280201785Y-128308630D01*
%TO.C,R1*%
X271183630Y-130802083D02*
X270707440Y-130468750D01*
X271183630Y-130230654D02*
X270183630Y-130230654D01*
X270183630Y-130611607D01*
X270231250Y-130706845D01*
X270278869Y-130754464D01*
X270374107Y-130802083D01*
X270516964Y-130802083D01*
X270612202Y-130754464D01*
X270659821Y-130706845D01*
X270707440Y-130611607D01*
X270707440Y-130230654D01*
X271183630Y-131754464D02*
X271183630Y-131183035D01*
X271183630Y-131468750D02*
X270183630Y-131468750D01*
X270326488Y-131373511D01*
X270421726Y-131278273D01*
X270469345Y-131183035D01*
%TO.C,U1*%
X272989880Y-113538095D02*
X273799404Y-113538095D01*
X273894642Y-113585714D01*
X273942261Y-113633333D01*
X273989880Y-113728571D01*
X273989880Y-113919047D01*
X273942261Y-114014285D01*
X273894642Y-114061904D01*
X273799404Y-114109523D01*
X272989880Y-114109523D01*
X273989880Y-115109523D02*
X273989880Y-114538095D01*
X273989880Y-114823809D02*
X272989880Y-114823809D01*
X273132738Y-114728571D01*
X273227976Y-114633333D01*
X273275595Y-114538095D01*
%TO.C,R4*%
X298839880Y-110727083D02*
X298363690Y-110393750D01*
X298839880Y-110155654D02*
X297839880Y-110155654D01*
X297839880Y-110536607D01*
X297887500Y-110631845D01*
X297935119Y-110679464D01*
X298030357Y-110727083D01*
X298173214Y-110727083D01*
X298268452Y-110679464D01*
X298316071Y-110631845D01*
X298363690Y-110536607D01*
X298363690Y-110155654D01*
X298173214Y-111584226D02*
X298839880Y-111584226D01*
X297792261Y-111346130D02*
X298506547Y-111108035D01*
X298506547Y-111727083D01*
%TO.C,R3*%
X298839880Y-104608333D02*
X298363690Y-104275000D01*
X298839880Y-104036904D02*
X297839880Y-104036904D01*
X297839880Y-104417857D01*
X297887500Y-104513095D01*
X297935119Y-104560714D01*
X298030357Y-104608333D01*
X298173214Y-104608333D01*
X298268452Y-104560714D01*
X298316071Y-104513095D01*
X298363690Y-104417857D01*
X298363690Y-104036904D01*
X297839880Y-104941666D02*
X297839880Y-105560714D01*
X298220833Y-105227380D01*
X298220833Y-105370238D01*
X298268452Y-105465476D01*
X298316071Y-105513095D01*
X298411309Y-105560714D01*
X298649404Y-105560714D01*
X298744642Y-105513095D01*
X298792261Y-105465476D01*
X298839880Y-105370238D01*
X298839880Y-105084523D01*
X298792261Y-104989285D01*
X298744642Y-104941666D01*
%TO.C,SW1*%
X279939583Y-135123511D02*
X279796726Y-135171130D01*
X279558630Y-135171130D01*
X279463392Y-135123511D01*
X279415773Y-135075892D01*
X279368154Y-134980654D01*
X279368154Y-134885416D01*
X279415773Y-134790178D01*
X279463392Y-134742559D01*
X279558630Y-134694940D01*
X279749107Y-134647321D01*
X279844345Y-134599702D01*
X279891964Y-134552083D01*
X279939583Y-134456845D01*
X279939583Y-134361607D01*
X279891964Y-134266369D01*
X279844345Y-134218750D01*
X279749107Y-134171130D01*
X279511011Y-134171130D01*
X279368154Y-134218750D01*
X279034821Y-134171130D02*
X278796726Y-135171130D01*
X278606250Y-134456845D01*
X278415773Y-135171130D01*
X278177678Y-134171130D01*
X277272916Y-135171130D02*
X277844345Y-135171130D01*
X277558630Y-135171130D02*
X277558630Y-134171130D01*
X277653869Y-134313988D01*
X277749107Y-134409226D01*
X277844345Y-134456845D01*
%TO.C,D30*%
X251002678Y-72255654D02*
X251002678Y-71455654D01*
X250812202Y-71455654D01*
X250697916Y-71493750D01*
X250621726Y-71569940D01*
X250583630Y-71646130D01*
X250545535Y-71798511D01*
X250545535Y-71912797D01*
X250583630Y-72065178D01*
X250621726Y-72141369D01*
X250697916Y-72217559D01*
X250812202Y-72255654D01*
X251002678Y-72255654D01*
X250278869Y-71455654D02*
X249783630Y-71455654D01*
X250050297Y-71760416D01*
X249936011Y-71760416D01*
X249859821Y-71798511D01*
X249821726Y-71836607D01*
X249783630Y-71912797D01*
X249783630Y-72103273D01*
X249821726Y-72179464D01*
X249859821Y-72217559D01*
X249936011Y-72255654D01*
X250164583Y-72255654D01*
X250240773Y-72217559D01*
X250278869Y-72179464D01*
X249288392Y-71455654D02*
X249212202Y-71455654D01*
X249136011Y-71493750D01*
X249097916Y-71531845D01*
X249059821Y-71608035D01*
X249021726Y-71760416D01*
X249021726Y-71950892D01*
X249059821Y-72103273D01*
X249097916Y-72179464D01*
X249136011Y-72217559D01*
X249212202Y-72255654D01*
X249288392Y-72255654D01*
X249364583Y-72217559D01*
X249402678Y-72179464D01*
X249440773Y-72103273D01*
X249478869Y-71950892D01*
X249478869Y-71760416D01*
X249440773Y-71608035D01*
X249402678Y-71531845D01*
X249364583Y-71493750D01*
X249288392Y-71455654D01*
%TO.C,D31*%
X286402678Y-72255654D02*
X286402678Y-71455654D01*
X286212202Y-71455654D01*
X286097916Y-71493750D01*
X286021726Y-71569940D01*
X285983630Y-71646130D01*
X285945535Y-71798511D01*
X285945535Y-71912797D01*
X285983630Y-72065178D01*
X286021726Y-72141369D01*
X286097916Y-72217559D01*
X286212202Y-72255654D01*
X286402678Y-72255654D01*
X285678869Y-71455654D02*
X285183630Y-71455654D01*
X285450297Y-71760416D01*
X285336011Y-71760416D01*
X285259821Y-71798511D01*
X285221726Y-71836607D01*
X285183630Y-71912797D01*
X285183630Y-72103273D01*
X285221726Y-72179464D01*
X285259821Y-72217559D01*
X285336011Y-72255654D01*
X285564583Y-72255654D01*
X285640773Y-72217559D01*
X285678869Y-72179464D01*
X284421726Y-72255654D02*
X284878869Y-72255654D01*
X284650297Y-72255654D02*
X284650297Y-71455654D01*
X284726488Y-71569940D01*
X284802678Y-71646130D01*
X284878869Y-71684226D01*
%TO.C,D32*%
X305771428Y-72255654D02*
X305771428Y-71455654D01*
X305580952Y-71455654D01*
X305466666Y-71493750D01*
X305390476Y-71569940D01*
X305352380Y-71646130D01*
X305314285Y-71798511D01*
X305314285Y-71912797D01*
X305352380Y-72065178D01*
X305390476Y-72141369D01*
X305466666Y-72217559D01*
X305580952Y-72255654D01*
X305771428Y-72255654D01*
X305047619Y-71455654D02*
X304552380Y-71455654D01*
X304819047Y-71760416D01*
X304704761Y-71760416D01*
X304628571Y-71798511D01*
X304590476Y-71836607D01*
X304552380Y-71912797D01*
X304552380Y-72103273D01*
X304590476Y-72179464D01*
X304628571Y-72217559D01*
X304704761Y-72255654D01*
X304933333Y-72255654D01*
X305009523Y-72217559D01*
X305047619Y-72179464D01*
X304247619Y-71531845D02*
X304209523Y-71493750D01*
X304133333Y-71455654D01*
X303942857Y-71455654D01*
X303866666Y-71493750D01*
X303828571Y-71531845D01*
X303790476Y-71608035D01*
X303790476Y-71684226D01*
X303828571Y-71798511D01*
X304285714Y-72255654D01*
X303790476Y-72255654D01*
%TO.C,D33*%
X324821428Y-72255654D02*
X324821428Y-71455654D01*
X324630952Y-71455654D01*
X324516666Y-71493750D01*
X324440476Y-71569940D01*
X324402380Y-71646130D01*
X324364285Y-71798511D01*
X324364285Y-71912797D01*
X324402380Y-72065178D01*
X324440476Y-72141369D01*
X324516666Y-72217559D01*
X324630952Y-72255654D01*
X324821428Y-72255654D01*
X324097619Y-71455654D02*
X323602380Y-71455654D01*
X323869047Y-71760416D01*
X323754761Y-71760416D01*
X323678571Y-71798511D01*
X323640476Y-71836607D01*
X323602380Y-71912797D01*
X323602380Y-72103273D01*
X323640476Y-72179464D01*
X323678571Y-72217559D01*
X323754761Y-72255654D01*
X323983333Y-72255654D01*
X324059523Y-72217559D01*
X324097619Y-72179464D01*
X323335714Y-71455654D02*
X322840476Y-71455654D01*
X323107142Y-71760416D01*
X322992857Y-71760416D01*
X322916666Y-71798511D01*
X322878571Y-71836607D01*
X322840476Y-71912797D01*
X322840476Y-72103273D01*
X322878571Y-72179464D01*
X322916666Y-72217559D01*
X322992857Y-72255654D01*
X323221428Y-72255654D01*
X323297619Y-72217559D01*
X323335714Y-72179464D01*
%TO.C,D18*%
X324821428Y-46061904D02*
X324821428Y-45261904D01*
X324630952Y-45261904D01*
X324516666Y-45300000D01*
X324440476Y-45376190D01*
X324402380Y-45452380D01*
X324364285Y-45604761D01*
X324364285Y-45719047D01*
X324402380Y-45871428D01*
X324440476Y-45947619D01*
X324516666Y-46023809D01*
X324630952Y-46061904D01*
X324821428Y-46061904D01*
X323602380Y-46061904D02*
X324059523Y-46061904D01*
X323830952Y-46061904D02*
X323830952Y-45261904D01*
X323907142Y-45376190D01*
X323983333Y-45452380D01*
X324059523Y-45490476D01*
X323145238Y-45604761D02*
X323221428Y-45566666D01*
X323259523Y-45528571D01*
X323297619Y-45452380D01*
X323297619Y-45414285D01*
X323259523Y-45338095D01*
X323221428Y-45300000D01*
X323145238Y-45261904D01*
X322992857Y-45261904D01*
X322916666Y-45300000D01*
X322878571Y-45338095D01*
X322840476Y-45414285D01*
X322840476Y-45452380D01*
X322878571Y-45528571D01*
X322916666Y-45566666D01*
X322992857Y-45604761D01*
X323145238Y-45604761D01*
X323221428Y-45642857D01*
X323259523Y-45680952D01*
X323297619Y-45757142D01*
X323297619Y-45909523D01*
X323259523Y-45985714D01*
X323221428Y-46023809D01*
X323145238Y-46061904D01*
X322992857Y-46061904D01*
X322916666Y-46023809D01*
X322878571Y-45985714D01*
X322840476Y-45909523D01*
X322840476Y-45757142D01*
X322878571Y-45680952D01*
X322916666Y-45642857D01*
X322992857Y-45604761D01*
%TO.C,D20*%
X50977678Y-72255654D02*
X50977678Y-71455654D01*
X50787202Y-71455654D01*
X50672916Y-71493750D01*
X50596726Y-71569940D01*
X50558630Y-71646130D01*
X50520535Y-71798511D01*
X50520535Y-71912797D01*
X50558630Y-72065178D01*
X50596726Y-72141369D01*
X50672916Y-72217559D01*
X50787202Y-72255654D01*
X50977678Y-72255654D01*
X50215773Y-71531845D02*
X50177678Y-71493750D01*
X50101488Y-71455654D01*
X49911011Y-71455654D01*
X49834821Y-71493750D01*
X49796726Y-71531845D01*
X49758630Y-71608035D01*
X49758630Y-71684226D01*
X49796726Y-71798511D01*
X50253869Y-72255654D01*
X49758630Y-72255654D01*
X49263392Y-71455654D02*
X49187202Y-71455654D01*
X49111011Y-71493750D01*
X49072916Y-71531845D01*
X49034821Y-71608035D01*
X48996726Y-71760416D01*
X48996726Y-71950892D01*
X49034821Y-72103273D01*
X49072916Y-72179464D01*
X49111011Y-72217559D01*
X49187202Y-72255654D01*
X49263392Y-72255654D01*
X49339583Y-72217559D01*
X49377678Y-72179464D01*
X49415773Y-72103273D01*
X49453869Y-71950892D01*
X49453869Y-71760416D01*
X49415773Y-71608035D01*
X49377678Y-71531845D01*
X49339583Y-71493750D01*
X49263392Y-71455654D01*
%TO.C,D16*%
X286721428Y-46061904D02*
X286721428Y-45261904D01*
X286530952Y-45261904D01*
X286416666Y-45300000D01*
X286340476Y-45376190D01*
X286302380Y-45452380D01*
X286264285Y-45604761D01*
X286264285Y-45719047D01*
X286302380Y-45871428D01*
X286340476Y-45947619D01*
X286416666Y-46023809D01*
X286530952Y-46061904D01*
X286721428Y-46061904D01*
X285502380Y-46061904D02*
X285959523Y-46061904D01*
X285730952Y-46061904D02*
X285730952Y-45261904D01*
X285807142Y-45376190D01*
X285883333Y-45452380D01*
X285959523Y-45490476D01*
X284816666Y-45261904D02*
X284969047Y-45261904D01*
X285045238Y-45300000D01*
X285083333Y-45338095D01*
X285159523Y-45452380D01*
X285197619Y-45604761D01*
X285197619Y-45909523D01*
X285159523Y-45985714D01*
X285121428Y-46023809D01*
X285045238Y-46061904D01*
X284892857Y-46061904D01*
X284816666Y-46023809D01*
X284778571Y-45985714D01*
X284740476Y-45909523D01*
X284740476Y-45719047D01*
X284778571Y-45642857D01*
X284816666Y-45604761D01*
X284892857Y-45566666D01*
X285045238Y-45566666D01*
X285121428Y-45604761D01*
X285159523Y-45642857D01*
X285197619Y-45719047D01*
%TO.C,D22*%
X89077678Y-72255654D02*
X89077678Y-71455654D01*
X88887202Y-71455654D01*
X88772916Y-71493750D01*
X88696726Y-71569940D01*
X88658630Y-71646130D01*
X88620535Y-71798511D01*
X88620535Y-71912797D01*
X88658630Y-72065178D01*
X88696726Y-72141369D01*
X88772916Y-72217559D01*
X88887202Y-72255654D01*
X89077678Y-72255654D01*
X88315773Y-71531845D02*
X88277678Y-71493750D01*
X88201488Y-71455654D01*
X88011011Y-71455654D01*
X87934821Y-71493750D01*
X87896726Y-71531845D01*
X87858630Y-71608035D01*
X87858630Y-71684226D01*
X87896726Y-71798511D01*
X88353869Y-72255654D01*
X87858630Y-72255654D01*
X87553869Y-71531845D02*
X87515773Y-71493750D01*
X87439583Y-71455654D01*
X87249107Y-71455654D01*
X87172916Y-71493750D01*
X87134821Y-71531845D01*
X87096726Y-71608035D01*
X87096726Y-71684226D01*
X87134821Y-71798511D01*
X87591964Y-72255654D01*
X87096726Y-72255654D01*
%TO.C,D25*%
X146227678Y-72255654D02*
X146227678Y-71455654D01*
X146037202Y-71455654D01*
X145922916Y-71493750D01*
X145846726Y-71569940D01*
X145808630Y-71646130D01*
X145770535Y-71798511D01*
X145770535Y-71912797D01*
X145808630Y-72065178D01*
X145846726Y-72141369D01*
X145922916Y-72217559D01*
X146037202Y-72255654D01*
X146227678Y-72255654D01*
X145465773Y-71531845D02*
X145427678Y-71493750D01*
X145351488Y-71455654D01*
X145161011Y-71455654D01*
X145084821Y-71493750D01*
X145046726Y-71531845D01*
X145008630Y-71608035D01*
X145008630Y-71684226D01*
X145046726Y-71798511D01*
X145503869Y-72255654D01*
X145008630Y-72255654D01*
X144284821Y-71455654D02*
X144665773Y-71455654D01*
X144703869Y-71836607D01*
X144665773Y-71798511D01*
X144589583Y-71760416D01*
X144399107Y-71760416D01*
X144322916Y-71798511D01*
X144284821Y-71836607D01*
X144246726Y-71912797D01*
X144246726Y-72103273D01*
X144284821Y-72179464D01*
X144322916Y-72217559D01*
X144399107Y-72255654D01*
X144589583Y-72255654D01*
X144665773Y-72217559D01*
X144703869Y-72179464D01*
%TO.C,D26*%
X165277678Y-72255654D02*
X165277678Y-71455654D01*
X165087202Y-71455654D01*
X164972916Y-71493750D01*
X164896726Y-71569940D01*
X164858630Y-71646130D01*
X164820535Y-71798511D01*
X164820535Y-71912797D01*
X164858630Y-72065178D01*
X164896726Y-72141369D01*
X164972916Y-72217559D01*
X165087202Y-72255654D01*
X165277678Y-72255654D01*
X164515773Y-71531845D02*
X164477678Y-71493750D01*
X164401488Y-71455654D01*
X164211011Y-71455654D01*
X164134821Y-71493750D01*
X164096726Y-71531845D01*
X164058630Y-71608035D01*
X164058630Y-71684226D01*
X164096726Y-71798511D01*
X164553869Y-72255654D01*
X164058630Y-72255654D01*
X163372916Y-71455654D02*
X163525297Y-71455654D01*
X163601488Y-71493750D01*
X163639583Y-71531845D01*
X163715773Y-71646130D01*
X163753869Y-71798511D01*
X163753869Y-72103273D01*
X163715773Y-72179464D01*
X163677678Y-72217559D01*
X163601488Y-72255654D01*
X163449107Y-72255654D01*
X163372916Y-72217559D01*
X163334821Y-72179464D01*
X163296726Y-72103273D01*
X163296726Y-71912797D01*
X163334821Y-71836607D01*
X163372916Y-71798511D01*
X163449107Y-71760416D01*
X163601488Y-71760416D01*
X163677678Y-71798511D01*
X163715773Y-71836607D01*
X163753869Y-71912797D01*
%TO.C,D23*%
X108127678Y-72255654D02*
X108127678Y-71455654D01*
X107937202Y-71455654D01*
X107822916Y-71493750D01*
X107746726Y-71569940D01*
X107708630Y-71646130D01*
X107670535Y-71798511D01*
X107670535Y-71912797D01*
X107708630Y-72065178D01*
X107746726Y-72141369D01*
X107822916Y-72217559D01*
X107937202Y-72255654D01*
X108127678Y-72255654D01*
X107365773Y-71531845D02*
X107327678Y-71493750D01*
X107251488Y-71455654D01*
X107061011Y-71455654D01*
X106984821Y-71493750D01*
X106946726Y-71531845D01*
X106908630Y-71608035D01*
X106908630Y-71684226D01*
X106946726Y-71798511D01*
X107403869Y-72255654D01*
X106908630Y-72255654D01*
X106641964Y-71455654D02*
X106146726Y-71455654D01*
X106413392Y-71760416D01*
X106299107Y-71760416D01*
X106222916Y-71798511D01*
X106184821Y-71836607D01*
X106146726Y-71912797D01*
X106146726Y-72103273D01*
X106184821Y-72179464D01*
X106222916Y-72217559D01*
X106299107Y-72255654D01*
X106527678Y-72255654D01*
X106603869Y-72217559D01*
X106641964Y-72179464D01*
%TO.C,D27*%
X184327678Y-72255654D02*
X184327678Y-71455654D01*
X184137202Y-71455654D01*
X184022916Y-71493750D01*
X183946726Y-71569940D01*
X183908630Y-71646130D01*
X183870535Y-71798511D01*
X183870535Y-71912797D01*
X183908630Y-72065178D01*
X183946726Y-72141369D01*
X184022916Y-72217559D01*
X184137202Y-72255654D01*
X184327678Y-72255654D01*
X183565773Y-71531845D02*
X183527678Y-71493750D01*
X183451488Y-71455654D01*
X183261011Y-71455654D01*
X183184821Y-71493750D01*
X183146726Y-71531845D01*
X183108630Y-71608035D01*
X183108630Y-71684226D01*
X183146726Y-71798511D01*
X183603869Y-72255654D01*
X183108630Y-72255654D01*
X182841964Y-71455654D02*
X182308630Y-71455654D01*
X182651488Y-72255654D01*
%TO.C,D19*%
X31927678Y-72255654D02*
X31927678Y-71455654D01*
X31737202Y-71455654D01*
X31622916Y-71493750D01*
X31546726Y-71569940D01*
X31508630Y-71646130D01*
X31470535Y-71798511D01*
X31470535Y-71912797D01*
X31508630Y-72065178D01*
X31546726Y-72141369D01*
X31622916Y-72217559D01*
X31737202Y-72255654D01*
X31927678Y-72255654D01*
X30708630Y-72255654D02*
X31165773Y-72255654D01*
X30937202Y-72255654D02*
X30937202Y-71455654D01*
X31013392Y-71569940D01*
X31089583Y-71646130D01*
X31165773Y-71684226D01*
X30327678Y-72255654D02*
X30175297Y-72255654D01*
X30099107Y-72217559D01*
X30061011Y-72179464D01*
X29984821Y-72065178D01*
X29946726Y-71912797D01*
X29946726Y-71608035D01*
X29984821Y-71531845D01*
X30022916Y-71493750D01*
X30099107Y-71455654D01*
X30251488Y-71455654D01*
X30327678Y-71493750D01*
X30365773Y-71531845D01*
X30403869Y-71608035D01*
X30403869Y-71798511D01*
X30365773Y-71874702D01*
X30327678Y-71912797D01*
X30251488Y-71950892D01*
X30099107Y-71950892D01*
X30022916Y-71912797D01*
X29984821Y-71874702D01*
X29946726Y-71798511D01*
%TO.C,D21*%
X70027678Y-72255654D02*
X70027678Y-71455654D01*
X69837202Y-71455654D01*
X69722916Y-71493750D01*
X69646726Y-71569940D01*
X69608630Y-71646130D01*
X69570535Y-71798511D01*
X69570535Y-71912797D01*
X69608630Y-72065178D01*
X69646726Y-72141369D01*
X69722916Y-72217559D01*
X69837202Y-72255654D01*
X70027678Y-72255654D01*
X69265773Y-71531845D02*
X69227678Y-71493750D01*
X69151488Y-71455654D01*
X68961011Y-71455654D01*
X68884821Y-71493750D01*
X68846726Y-71531845D01*
X68808630Y-71608035D01*
X68808630Y-71684226D01*
X68846726Y-71798511D01*
X69303869Y-72255654D01*
X68808630Y-72255654D01*
X68046726Y-72255654D02*
X68503869Y-72255654D01*
X68275297Y-72255654D02*
X68275297Y-71455654D01*
X68351488Y-71569940D01*
X68427678Y-71646130D01*
X68503869Y-71684226D01*
%TO.C,D29*%
X222427678Y-72255654D02*
X222427678Y-71455654D01*
X222237202Y-71455654D01*
X222122916Y-71493750D01*
X222046726Y-71569940D01*
X222008630Y-71646130D01*
X221970535Y-71798511D01*
X221970535Y-71912797D01*
X222008630Y-72065178D01*
X222046726Y-72141369D01*
X222122916Y-72217559D01*
X222237202Y-72255654D01*
X222427678Y-72255654D01*
X221665773Y-71531845D02*
X221627678Y-71493750D01*
X221551488Y-71455654D01*
X221361011Y-71455654D01*
X221284821Y-71493750D01*
X221246726Y-71531845D01*
X221208630Y-71608035D01*
X221208630Y-71684226D01*
X221246726Y-71798511D01*
X221703869Y-72255654D01*
X221208630Y-72255654D01*
X220827678Y-72255654D02*
X220675297Y-72255654D01*
X220599107Y-72217559D01*
X220561011Y-72179464D01*
X220484821Y-72065178D01*
X220446726Y-71912797D01*
X220446726Y-71608035D01*
X220484821Y-71531845D01*
X220522916Y-71493750D01*
X220599107Y-71455654D01*
X220751488Y-71455654D01*
X220827678Y-71493750D01*
X220865773Y-71531845D01*
X220903869Y-71608035D01*
X220903869Y-71798511D01*
X220865773Y-71874702D01*
X220827678Y-71912797D01*
X220751488Y-71950892D01*
X220599107Y-71950892D01*
X220522916Y-71912797D01*
X220484821Y-71874702D01*
X220446726Y-71798511D01*
%TO.C,D24*%
X127177678Y-72255654D02*
X127177678Y-71455654D01*
X126987202Y-71455654D01*
X126872916Y-71493750D01*
X126796726Y-71569940D01*
X126758630Y-71646130D01*
X126720535Y-71798511D01*
X126720535Y-71912797D01*
X126758630Y-72065178D01*
X126796726Y-72141369D01*
X126872916Y-72217559D01*
X126987202Y-72255654D01*
X127177678Y-72255654D01*
X126415773Y-71531845D02*
X126377678Y-71493750D01*
X126301488Y-71455654D01*
X126111011Y-71455654D01*
X126034821Y-71493750D01*
X125996726Y-71531845D01*
X125958630Y-71608035D01*
X125958630Y-71684226D01*
X125996726Y-71798511D01*
X126453869Y-72255654D01*
X125958630Y-72255654D01*
X125272916Y-71722321D02*
X125272916Y-72255654D01*
X125463392Y-71417559D02*
X125653869Y-71988988D01*
X125158630Y-71988988D01*
%TO.C,D28*%
X203377678Y-72255654D02*
X203377678Y-71455654D01*
X203187202Y-71455654D01*
X203072916Y-71493750D01*
X202996726Y-71569940D01*
X202958630Y-71646130D01*
X202920535Y-71798511D01*
X202920535Y-71912797D01*
X202958630Y-72065178D01*
X202996726Y-72141369D01*
X203072916Y-72217559D01*
X203187202Y-72255654D01*
X203377678Y-72255654D01*
X202615773Y-71531845D02*
X202577678Y-71493750D01*
X202501488Y-71455654D01*
X202311011Y-71455654D01*
X202234821Y-71493750D01*
X202196726Y-71531845D01*
X202158630Y-71608035D01*
X202158630Y-71684226D01*
X202196726Y-71798511D01*
X202653869Y-72255654D01*
X202158630Y-72255654D01*
X201701488Y-71798511D02*
X201777678Y-71760416D01*
X201815773Y-71722321D01*
X201853869Y-71646130D01*
X201853869Y-71608035D01*
X201815773Y-71531845D01*
X201777678Y-71493750D01*
X201701488Y-71455654D01*
X201549107Y-71455654D01*
X201472916Y-71493750D01*
X201434821Y-71531845D01*
X201396726Y-71608035D01*
X201396726Y-71646130D01*
X201434821Y-71722321D01*
X201472916Y-71760416D01*
X201549107Y-71798511D01*
X201701488Y-71798511D01*
X201777678Y-71836607D01*
X201815773Y-71874702D01*
X201853869Y-71950892D01*
X201853869Y-72103273D01*
X201815773Y-72179464D01*
X201777678Y-72217559D01*
X201701488Y-72255654D01*
X201549107Y-72255654D01*
X201472916Y-72217559D01*
X201434821Y-72179464D01*
X201396726Y-72103273D01*
X201396726Y-71950892D01*
X201434821Y-71874702D01*
X201472916Y-71836607D01*
X201549107Y-71798511D01*
%TO.C,D17*%
X305771428Y-46061904D02*
X305771428Y-45261904D01*
X305580952Y-45261904D01*
X305466666Y-45300000D01*
X305390476Y-45376190D01*
X305352380Y-45452380D01*
X305314285Y-45604761D01*
X305314285Y-45719047D01*
X305352380Y-45871428D01*
X305390476Y-45947619D01*
X305466666Y-46023809D01*
X305580952Y-46061904D01*
X305771428Y-46061904D01*
X304552380Y-46061904D02*
X305009523Y-46061904D01*
X304780952Y-46061904D02*
X304780952Y-45261904D01*
X304857142Y-45376190D01*
X304933333Y-45452380D01*
X305009523Y-45490476D01*
X304285714Y-45261904D02*
X303752380Y-45261904D01*
X304095238Y-46061904D01*
%TO.C,D48*%
X305771428Y-91305654D02*
X305771428Y-90505654D01*
X305580952Y-90505654D01*
X305466666Y-90543750D01*
X305390476Y-90619940D01*
X305352380Y-90696130D01*
X305314285Y-90848511D01*
X305314285Y-90962797D01*
X305352380Y-91115178D01*
X305390476Y-91191369D01*
X305466666Y-91267559D01*
X305580952Y-91305654D01*
X305771428Y-91305654D01*
X304628571Y-90772321D02*
X304628571Y-91305654D01*
X304819047Y-90467559D02*
X305009523Y-91038988D01*
X304514285Y-91038988D01*
X304095238Y-90848511D02*
X304171428Y-90810416D01*
X304209523Y-90772321D01*
X304247619Y-90696130D01*
X304247619Y-90658035D01*
X304209523Y-90581845D01*
X304171428Y-90543750D01*
X304095238Y-90505654D01*
X303942857Y-90505654D01*
X303866666Y-90543750D01*
X303828571Y-90581845D01*
X303790476Y-90658035D01*
X303790476Y-90696130D01*
X303828571Y-90772321D01*
X303866666Y-90810416D01*
X303942857Y-90848511D01*
X304095238Y-90848511D01*
X304171428Y-90886607D01*
X304209523Y-90924702D01*
X304247619Y-91000892D01*
X304247619Y-91153273D01*
X304209523Y-91229464D01*
X304171428Y-91267559D01*
X304095238Y-91305654D01*
X303942857Y-91305654D01*
X303866666Y-91267559D01*
X303828571Y-91229464D01*
X303790476Y-91153273D01*
X303790476Y-91000892D01*
X303828571Y-90924702D01*
X303866666Y-90886607D01*
X303942857Y-90848511D01*
%TO.C,D42*%
X155752678Y-91305654D02*
X155752678Y-90505654D01*
X155562202Y-90505654D01*
X155447916Y-90543750D01*
X155371726Y-90619940D01*
X155333630Y-90696130D01*
X155295535Y-90848511D01*
X155295535Y-90962797D01*
X155333630Y-91115178D01*
X155371726Y-91191369D01*
X155447916Y-91267559D01*
X155562202Y-91305654D01*
X155752678Y-91305654D01*
X154609821Y-90772321D02*
X154609821Y-91305654D01*
X154800297Y-90467559D02*
X154990773Y-91038988D01*
X154495535Y-91038988D01*
X154228869Y-90581845D02*
X154190773Y-90543750D01*
X154114583Y-90505654D01*
X153924107Y-90505654D01*
X153847916Y-90543750D01*
X153809821Y-90581845D01*
X153771726Y-90658035D01*
X153771726Y-90734226D01*
X153809821Y-90848511D01*
X154266964Y-91305654D01*
X153771726Y-91305654D01*
%TO.C,D43*%
X174802678Y-91305654D02*
X174802678Y-90505654D01*
X174612202Y-90505654D01*
X174497916Y-90543750D01*
X174421726Y-90619940D01*
X174383630Y-90696130D01*
X174345535Y-90848511D01*
X174345535Y-90962797D01*
X174383630Y-91115178D01*
X174421726Y-91191369D01*
X174497916Y-91267559D01*
X174612202Y-91305654D01*
X174802678Y-91305654D01*
X173659821Y-90772321D02*
X173659821Y-91305654D01*
X173850297Y-90467559D02*
X174040773Y-91038988D01*
X173545535Y-91038988D01*
X173316964Y-90505654D02*
X172821726Y-90505654D01*
X173088392Y-90810416D01*
X172974107Y-90810416D01*
X172897916Y-90848511D01*
X172859821Y-90886607D01*
X172821726Y-90962797D01*
X172821726Y-91153273D01*
X172859821Y-91229464D01*
X172897916Y-91267559D01*
X172974107Y-91305654D01*
X173202678Y-91305654D01*
X173278869Y-91267559D01*
X173316964Y-91229464D01*
%TO.C,D45*%
X212902678Y-91305654D02*
X212902678Y-90505654D01*
X212712202Y-90505654D01*
X212597916Y-90543750D01*
X212521726Y-90619940D01*
X212483630Y-90696130D01*
X212445535Y-90848511D01*
X212445535Y-90962797D01*
X212483630Y-91115178D01*
X212521726Y-91191369D01*
X212597916Y-91267559D01*
X212712202Y-91305654D01*
X212902678Y-91305654D01*
X211759821Y-90772321D02*
X211759821Y-91305654D01*
X211950297Y-90467559D02*
X212140773Y-91038988D01*
X211645535Y-91038988D01*
X210959821Y-90505654D02*
X211340773Y-90505654D01*
X211378869Y-90886607D01*
X211340773Y-90848511D01*
X211264583Y-90810416D01*
X211074107Y-90810416D01*
X210997916Y-90848511D01*
X210959821Y-90886607D01*
X210921726Y-90962797D01*
X210921726Y-91153273D01*
X210959821Y-91229464D01*
X210997916Y-91267559D01*
X211074107Y-91305654D01*
X211264583Y-91305654D01*
X211340773Y-91267559D01*
X211378869Y-91229464D01*
%TO.C,D49*%
X324821428Y-91305654D02*
X324821428Y-90505654D01*
X324630952Y-90505654D01*
X324516666Y-90543750D01*
X324440476Y-90619940D01*
X324402380Y-90696130D01*
X324364285Y-90848511D01*
X324364285Y-90962797D01*
X324402380Y-91115178D01*
X324440476Y-91191369D01*
X324516666Y-91267559D01*
X324630952Y-91305654D01*
X324821428Y-91305654D01*
X323678571Y-90772321D02*
X323678571Y-91305654D01*
X323869047Y-90467559D02*
X324059523Y-91038988D01*
X323564285Y-91038988D01*
X323221428Y-91305654D02*
X323069047Y-91305654D01*
X322992857Y-91267559D01*
X322954761Y-91229464D01*
X322878571Y-91115178D01*
X322840476Y-90962797D01*
X322840476Y-90658035D01*
X322878571Y-90581845D01*
X322916666Y-90543750D01*
X322992857Y-90505654D01*
X323145238Y-90505654D01*
X323221428Y-90543750D01*
X323259523Y-90581845D01*
X323297619Y-90658035D01*
X323297619Y-90848511D01*
X323259523Y-90924702D01*
X323221428Y-90962797D01*
X323145238Y-91000892D01*
X322992857Y-91000892D01*
X322916666Y-90962797D01*
X322878571Y-90924702D01*
X322840476Y-90848511D01*
%TO.C,D41*%
X136702678Y-91305654D02*
X136702678Y-90505654D01*
X136512202Y-90505654D01*
X136397916Y-90543750D01*
X136321726Y-90619940D01*
X136283630Y-90696130D01*
X136245535Y-90848511D01*
X136245535Y-90962797D01*
X136283630Y-91115178D01*
X136321726Y-91191369D01*
X136397916Y-91267559D01*
X136512202Y-91305654D01*
X136702678Y-91305654D01*
X135559821Y-90772321D02*
X135559821Y-91305654D01*
X135750297Y-90467559D02*
X135940773Y-91038988D01*
X135445535Y-91038988D01*
X134721726Y-91305654D02*
X135178869Y-91305654D01*
X134950297Y-91305654D02*
X134950297Y-90505654D01*
X135026488Y-90619940D01*
X135102678Y-90696130D01*
X135178869Y-90734226D01*
%TO.C,D50*%
X258146428Y-100830654D02*
X258146428Y-100030654D01*
X257955952Y-100030654D01*
X257841666Y-100068750D01*
X257765476Y-100144940D01*
X257727380Y-100221130D01*
X257689285Y-100373511D01*
X257689285Y-100487797D01*
X257727380Y-100640178D01*
X257765476Y-100716369D01*
X257841666Y-100792559D01*
X257955952Y-100830654D01*
X258146428Y-100830654D01*
X256965476Y-100030654D02*
X257346428Y-100030654D01*
X257384523Y-100411607D01*
X257346428Y-100373511D01*
X257270238Y-100335416D01*
X257079761Y-100335416D01*
X257003571Y-100373511D01*
X256965476Y-100411607D01*
X256927380Y-100487797D01*
X256927380Y-100678273D01*
X256965476Y-100754464D01*
X257003571Y-100792559D01*
X257079761Y-100830654D01*
X257270238Y-100830654D01*
X257346428Y-100792559D01*
X257384523Y-100754464D01*
X256432142Y-100030654D02*
X256355952Y-100030654D01*
X256279761Y-100068750D01*
X256241666Y-100106845D01*
X256203571Y-100183035D01*
X256165476Y-100335416D01*
X256165476Y-100525892D01*
X256203571Y-100678273D01*
X256241666Y-100754464D01*
X256279761Y-100792559D01*
X256355952Y-100830654D01*
X256432142Y-100830654D01*
X256508333Y-100792559D01*
X256546428Y-100754464D01*
X256584523Y-100678273D01*
X256622619Y-100525892D01*
X256622619Y-100335416D01*
X256584523Y-100183035D01*
X256546428Y-100106845D01*
X256508333Y-100068750D01*
X256432142Y-100030654D01*
%TO.C,D51*%
X971428Y-110355654D02*
X971428Y-109555654D01*
X780952Y-109555654D01*
X666666Y-109593750D01*
X590476Y-109669940D01*
X552380Y-109746130D01*
X514285Y-109898511D01*
X514285Y-110012797D01*
X552380Y-110165178D01*
X590476Y-110241369D01*
X666666Y-110317559D01*
X780952Y-110355654D01*
X971428Y-110355654D01*
X-209523Y-109555654D02*
X171428Y-109555654D01*
X209523Y-109936607D01*
X171428Y-109898511D01*
X95238Y-109860416D01*
X-95238Y-109860416D01*
X-171428Y-109898511D01*
X-209523Y-109936607D01*
X-247619Y-110012797D01*
X-247619Y-110203273D01*
X-209523Y-110279464D01*
X-171428Y-110317559D01*
X-95238Y-110355654D01*
X95238Y-110355654D01*
X171428Y-110317559D01*
X209523Y-110279464D01*
X-1009523Y-110355654D02*
X-552380Y-110355654D01*
X-780952Y-110355654D02*
X-780952Y-109555654D01*
X-704761Y-109669940D01*
X-628571Y-109746130D01*
X-552380Y-109784226D01*
%TO.C,D40*%
X117652678Y-91305654D02*
X117652678Y-90505654D01*
X117462202Y-90505654D01*
X117347916Y-90543750D01*
X117271726Y-90619940D01*
X117233630Y-90696130D01*
X117195535Y-90848511D01*
X117195535Y-90962797D01*
X117233630Y-91115178D01*
X117271726Y-91191369D01*
X117347916Y-91267559D01*
X117462202Y-91305654D01*
X117652678Y-91305654D01*
X116509821Y-90772321D02*
X116509821Y-91305654D01*
X116700297Y-90467559D02*
X116890773Y-91038988D01*
X116395535Y-91038988D01*
X115938392Y-90505654D02*
X115862202Y-90505654D01*
X115786011Y-90543750D01*
X115747916Y-90581845D01*
X115709821Y-90658035D01*
X115671726Y-90810416D01*
X115671726Y-91000892D01*
X115709821Y-91153273D01*
X115747916Y-91229464D01*
X115786011Y-91267559D01*
X115862202Y-91305654D01*
X115938392Y-91305654D01*
X116014583Y-91267559D01*
X116052678Y-91229464D01*
X116090773Y-91153273D01*
X116128869Y-91000892D01*
X116128869Y-90810416D01*
X116090773Y-90658035D01*
X116052678Y-90581845D01*
X116014583Y-90543750D01*
X115938392Y-90505654D01*
%TO.C,D44*%
X193852678Y-91305654D02*
X193852678Y-90505654D01*
X193662202Y-90505654D01*
X193547916Y-90543750D01*
X193471726Y-90619940D01*
X193433630Y-90696130D01*
X193395535Y-90848511D01*
X193395535Y-90962797D01*
X193433630Y-91115178D01*
X193471726Y-91191369D01*
X193547916Y-91267559D01*
X193662202Y-91305654D01*
X193852678Y-91305654D01*
X192709821Y-90772321D02*
X192709821Y-91305654D01*
X192900297Y-90467559D02*
X193090773Y-91038988D01*
X192595535Y-91038988D01*
X191947916Y-90772321D02*
X191947916Y-91305654D01*
X192138392Y-90467559D02*
X192328869Y-91038988D01*
X191833630Y-91038988D01*
%TO.C,D37*%
X60502678Y-91305654D02*
X60502678Y-90505654D01*
X60312202Y-90505654D01*
X60197916Y-90543750D01*
X60121726Y-90619940D01*
X60083630Y-90696130D01*
X60045535Y-90848511D01*
X60045535Y-90962797D01*
X60083630Y-91115178D01*
X60121726Y-91191369D01*
X60197916Y-91267559D01*
X60312202Y-91305654D01*
X60502678Y-91305654D01*
X59778869Y-90505654D02*
X59283630Y-90505654D01*
X59550297Y-90810416D01*
X59436011Y-90810416D01*
X59359821Y-90848511D01*
X59321726Y-90886607D01*
X59283630Y-90962797D01*
X59283630Y-91153273D01*
X59321726Y-91229464D01*
X59359821Y-91267559D01*
X59436011Y-91305654D01*
X59664583Y-91305654D01*
X59740773Y-91267559D01*
X59778869Y-91229464D01*
X59016964Y-90505654D02*
X58483630Y-90505654D01*
X58826488Y-91305654D01*
%TO.C,D39*%
X98602678Y-91305654D02*
X98602678Y-90505654D01*
X98412202Y-90505654D01*
X98297916Y-90543750D01*
X98221726Y-90619940D01*
X98183630Y-90696130D01*
X98145535Y-90848511D01*
X98145535Y-90962797D01*
X98183630Y-91115178D01*
X98221726Y-91191369D01*
X98297916Y-91267559D01*
X98412202Y-91305654D01*
X98602678Y-91305654D01*
X97878869Y-90505654D02*
X97383630Y-90505654D01*
X97650297Y-90810416D01*
X97536011Y-90810416D01*
X97459821Y-90848511D01*
X97421726Y-90886607D01*
X97383630Y-90962797D01*
X97383630Y-91153273D01*
X97421726Y-91229464D01*
X97459821Y-91267559D01*
X97536011Y-91305654D01*
X97764583Y-91305654D01*
X97840773Y-91267559D01*
X97878869Y-91229464D01*
X97002678Y-91305654D02*
X96850297Y-91305654D01*
X96774107Y-91267559D01*
X96736011Y-91229464D01*
X96659821Y-91115178D01*
X96621726Y-90962797D01*
X96621726Y-90658035D01*
X96659821Y-90581845D01*
X96697916Y-90543750D01*
X96774107Y-90505654D01*
X96926488Y-90505654D01*
X97002678Y-90543750D01*
X97040773Y-90581845D01*
X97078869Y-90658035D01*
X97078869Y-90848511D01*
X97040773Y-90924702D01*
X97002678Y-90962797D01*
X96926488Y-91000892D01*
X96774107Y-91000892D01*
X96697916Y-90962797D01*
X96659821Y-90924702D01*
X96621726Y-90848511D01*
%TO.C,D46*%
X231952678Y-91305654D02*
X231952678Y-90505654D01*
X231762202Y-90505654D01*
X231647916Y-90543750D01*
X231571726Y-90619940D01*
X231533630Y-90696130D01*
X231495535Y-90848511D01*
X231495535Y-90962797D01*
X231533630Y-91115178D01*
X231571726Y-91191369D01*
X231647916Y-91267559D01*
X231762202Y-91305654D01*
X231952678Y-91305654D01*
X230809821Y-90772321D02*
X230809821Y-91305654D01*
X231000297Y-90467559D02*
X231190773Y-91038988D01*
X230695535Y-91038988D01*
X230047916Y-90505654D02*
X230200297Y-90505654D01*
X230276488Y-90543750D01*
X230314583Y-90581845D01*
X230390773Y-90696130D01*
X230428869Y-90848511D01*
X230428869Y-91153273D01*
X230390773Y-91229464D01*
X230352678Y-91267559D01*
X230276488Y-91305654D01*
X230124107Y-91305654D01*
X230047916Y-91267559D01*
X230009821Y-91229464D01*
X229971726Y-91153273D01*
X229971726Y-90962797D01*
X230009821Y-90886607D01*
X230047916Y-90848511D01*
X230124107Y-90810416D01*
X230276488Y-90810416D01*
X230352678Y-90848511D01*
X230390773Y-90886607D01*
X230428869Y-90962797D01*
%TO.C,D34*%
X-1409821Y-91305654D02*
X-1409821Y-90505654D01*
X-1600297Y-90505654D01*
X-1714583Y-90543750D01*
X-1790773Y-90619940D01*
X-1828869Y-90696130D01*
X-1866964Y-90848511D01*
X-1866964Y-90962797D01*
X-1828869Y-91115178D01*
X-1790773Y-91191369D01*
X-1714583Y-91267559D01*
X-1600297Y-91305654D01*
X-1409821Y-91305654D01*
X-2133630Y-90505654D02*
X-2628869Y-90505654D01*
X-2362202Y-90810416D01*
X-2476488Y-90810416D01*
X-2552678Y-90848511D01*
X-2590773Y-90886607D01*
X-2628869Y-90962797D01*
X-2628869Y-91153273D01*
X-2590773Y-91229464D01*
X-2552678Y-91267559D01*
X-2476488Y-91305654D01*
X-2247916Y-91305654D01*
X-2171726Y-91267559D01*
X-2133630Y-91229464D01*
X-3314583Y-90772321D02*
X-3314583Y-91305654D01*
X-3124107Y-90467559D02*
X-2933630Y-91038988D01*
X-3428869Y-91038988D01*
%TO.C,D35*%
X22402678Y-91305654D02*
X22402678Y-90505654D01*
X22212202Y-90505654D01*
X22097916Y-90543750D01*
X22021726Y-90619940D01*
X21983630Y-90696130D01*
X21945535Y-90848511D01*
X21945535Y-90962797D01*
X21983630Y-91115178D01*
X22021726Y-91191369D01*
X22097916Y-91267559D01*
X22212202Y-91305654D01*
X22402678Y-91305654D01*
X21678869Y-90505654D02*
X21183630Y-90505654D01*
X21450297Y-90810416D01*
X21336011Y-90810416D01*
X21259821Y-90848511D01*
X21221726Y-90886607D01*
X21183630Y-90962797D01*
X21183630Y-91153273D01*
X21221726Y-91229464D01*
X21259821Y-91267559D01*
X21336011Y-91305654D01*
X21564583Y-91305654D01*
X21640773Y-91267559D01*
X21678869Y-91229464D01*
X20459821Y-90505654D02*
X20840773Y-90505654D01*
X20878869Y-90886607D01*
X20840773Y-90848511D01*
X20764583Y-90810416D01*
X20574107Y-90810416D01*
X20497916Y-90848511D01*
X20459821Y-90886607D01*
X20421726Y-90962797D01*
X20421726Y-91153273D01*
X20459821Y-91229464D01*
X20497916Y-91267559D01*
X20574107Y-91305654D01*
X20764583Y-91305654D01*
X20840773Y-91267559D01*
X20878869Y-91229464D01*
%TO.C,D36*%
X41452678Y-91305654D02*
X41452678Y-90505654D01*
X41262202Y-90505654D01*
X41147916Y-90543750D01*
X41071726Y-90619940D01*
X41033630Y-90696130D01*
X40995535Y-90848511D01*
X40995535Y-90962797D01*
X41033630Y-91115178D01*
X41071726Y-91191369D01*
X41147916Y-91267559D01*
X41262202Y-91305654D01*
X41452678Y-91305654D01*
X40728869Y-90505654D02*
X40233630Y-90505654D01*
X40500297Y-90810416D01*
X40386011Y-90810416D01*
X40309821Y-90848511D01*
X40271726Y-90886607D01*
X40233630Y-90962797D01*
X40233630Y-91153273D01*
X40271726Y-91229464D01*
X40309821Y-91267559D01*
X40386011Y-91305654D01*
X40614583Y-91305654D01*
X40690773Y-91267559D01*
X40728869Y-91229464D01*
X39547916Y-90505654D02*
X39700297Y-90505654D01*
X39776488Y-90543750D01*
X39814583Y-90581845D01*
X39890773Y-90696130D01*
X39928869Y-90848511D01*
X39928869Y-91153273D01*
X39890773Y-91229464D01*
X39852678Y-91267559D01*
X39776488Y-91305654D01*
X39624107Y-91305654D01*
X39547916Y-91267559D01*
X39509821Y-91229464D01*
X39471726Y-91153273D01*
X39471726Y-90962797D01*
X39509821Y-90886607D01*
X39547916Y-90848511D01*
X39624107Y-90810416D01*
X39776488Y-90810416D01*
X39852678Y-90848511D01*
X39890773Y-90886607D01*
X39928869Y-90962797D01*
%TO.C,D38*%
X79233928Y-91305654D02*
X79233928Y-90505654D01*
X79043452Y-90505654D01*
X78929166Y-90543750D01*
X78852976Y-90619940D01*
X78814880Y-90696130D01*
X78776785Y-90848511D01*
X78776785Y-90962797D01*
X78814880Y-91115178D01*
X78852976Y-91191369D01*
X78929166Y-91267559D01*
X79043452Y-91305654D01*
X79233928Y-91305654D01*
X78510119Y-90505654D02*
X78014880Y-90505654D01*
X78281547Y-90810416D01*
X78167261Y-90810416D01*
X78091071Y-90848511D01*
X78052976Y-90886607D01*
X78014880Y-90962797D01*
X78014880Y-91153273D01*
X78052976Y-91229464D01*
X78091071Y-91267559D01*
X78167261Y-91305654D01*
X78395833Y-91305654D01*
X78472023Y-91267559D01*
X78510119Y-91229464D01*
X77557738Y-90848511D02*
X77633928Y-90810416D01*
X77672023Y-90772321D01*
X77710119Y-90696130D01*
X77710119Y-90658035D01*
X77672023Y-90581845D01*
X77633928Y-90543750D01*
X77557738Y-90505654D01*
X77405357Y-90505654D01*
X77329166Y-90543750D01*
X77291071Y-90581845D01*
X77252976Y-90658035D01*
X77252976Y-90696130D01*
X77291071Y-90772321D01*
X77329166Y-90810416D01*
X77405357Y-90848511D01*
X77557738Y-90848511D01*
X77633928Y-90886607D01*
X77672023Y-90924702D01*
X77710119Y-91000892D01*
X77710119Y-91153273D01*
X77672023Y-91229464D01*
X77633928Y-91267559D01*
X77557738Y-91305654D01*
X77405357Y-91305654D01*
X77329166Y-91267559D01*
X77291071Y-91229464D01*
X77252976Y-91153273D01*
X77252976Y-91000892D01*
X77291071Y-90924702D01*
X77329166Y-90886607D01*
X77405357Y-90848511D01*
%TO.C,D47*%
X286721428Y-91305654D02*
X286721428Y-90505654D01*
X286530952Y-90505654D01*
X286416666Y-90543750D01*
X286340476Y-90619940D01*
X286302380Y-90696130D01*
X286264285Y-90848511D01*
X286264285Y-90962797D01*
X286302380Y-91115178D01*
X286340476Y-91191369D01*
X286416666Y-91267559D01*
X286530952Y-91305654D01*
X286721428Y-91305654D01*
X285578571Y-90772321D02*
X285578571Y-91305654D01*
X285769047Y-90467559D02*
X285959523Y-91038988D01*
X285464285Y-91038988D01*
X285235714Y-90505654D02*
X284702380Y-90505654D01*
X285045238Y-91305654D01*
%TO.C,D58*%
X141146428Y-110355654D02*
X141146428Y-109555654D01*
X140955952Y-109555654D01*
X140841666Y-109593750D01*
X140765476Y-109669940D01*
X140727380Y-109746130D01*
X140689285Y-109898511D01*
X140689285Y-110012797D01*
X140727380Y-110165178D01*
X140765476Y-110241369D01*
X140841666Y-110317559D01*
X140955952Y-110355654D01*
X141146428Y-110355654D01*
X139965476Y-109555654D02*
X140346428Y-109555654D01*
X140384523Y-109936607D01*
X140346428Y-109898511D01*
X140270238Y-109860416D01*
X140079761Y-109860416D01*
X140003571Y-109898511D01*
X139965476Y-109936607D01*
X139927380Y-110012797D01*
X139927380Y-110203273D01*
X139965476Y-110279464D01*
X140003571Y-110317559D01*
X140079761Y-110355654D01*
X140270238Y-110355654D01*
X140346428Y-110317559D01*
X140384523Y-110279464D01*
X139470238Y-109898511D02*
X139546428Y-109860416D01*
X139584523Y-109822321D01*
X139622619Y-109746130D01*
X139622619Y-109708035D01*
X139584523Y-109631845D01*
X139546428Y-109593750D01*
X139470238Y-109555654D01*
X139317857Y-109555654D01*
X139241666Y-109593750D01*
X139203571Y-109631845D01*
X139165476Y-109708035D01*
X139165476Y-109746130D01*
X139203571Y-109822321D01*
X139241666Y-109860416D01*
X139317857Y-109898511D01*
X139470238Y-109898511D01*
X139546428Y-109936607D01*
X139584523Y-109974702D01*
X139622619Y-110050892D01*
X139622619Y-110203273D01*
X139584523Y-110279464D01*
X139546428Y-110317559D01*
X139470238Y-110355654D01*
X139317857Y-110355654D01*
X139241666Y-110317559D01*
X139203571Y-110279464D01*
X139165476Y-110203273D01*
X139165476Y-110050892D01*
X139203571Y-109974702D01*
X139241666Y-109936607D01*
X139317857Y-109898511D01*
%TO.C,D57*%
X122415178Y-110355654D02*
X122415178Y-109555654D01*
X122224702Y-109555654D01*
X122110416Y-109593750D01*
X122034226Y-109669940D01*
X121996130Y-109746130D01*
X121958035Y-109898511D01*
X121958035Y-110012797D01*
X121996130Y-110165178D01*
X122034226Y-110241369D01*
X122110416Y-110317559D01*
X122224702Y-110355654D01*
X122415178Y-110355654D01*
X121234226Y-109555654D02*
X121615178Y-109555654D01*
X121653273Y-109936607D01*
X121615178Y-109898511D01*
X121538988Y-109860416D01*
X121348511Y-109860416D01*
X121272321Y-109898511D01*
X121234226Y-109936607D01*
X121196130Y-110012797D01*
X121196130Y-110203273D01*
X121234226Y-110279464D01*
X121272321Y-110317559D01*
X121348511Y-110355654D01*
X121538988Y-110355654D01*
X121615178Y-110317559D01*
X121653273Y-110279464D01*
X120929464Y-109555654D02*
X120396130Y-109555654D01*
X120738988Y-110355654D01*
%TO.C,D59*%
X160515178Y-110355654D02*
X160515178Y-109555654D01*
X160324702Y-109555654D01*
X160210416Y-109593750D01*
X160134226Y-109669940D01*
X160096130Y-109746130D01*
X160058035Y-109898511D01*
X160058035Y-110012797D01*
X160096130Y-110165178D01*
X160134226Y-110241369D01*
X160210416Y-110317559D01*
X160324702Y-110355654D01*
X160515178Y-110355654D01*
X159334226Y-109555654D02*
X159715178Y-109555654D01*
X159753273Y-109936607D01*
X159715178Y-109898511D01*
X159638988Y-109860416D01*
X159448511Y-109860416D01*
X159372321Y-109898511D01*
X159334226Y-109936607D01*
X159296130Y-110012797D01*
X159296130Y-110203273D01*
X159334226Y-110279464D01*
X159372321Y-110317559D01*
X159448511Y-110355654D01*
X159638988Y-110355654D01*
X159715178Y-110317559D01*
X159753273Y-110279464D01*
X158915178Y-110355654D02*
X158762797Y-110355654D01*
X158686607Y-110317559D01*
X158648511Y-110279464D01*
X158572321Y-110165178D01*
X158534226Y-110012797D01*
X158534226Y-109708035D01*
X158572321Y-109631845D01*
X158610416Y-109593750D01*
X158686607Y-109555654D01*
X158838988Y-109555654D01*
X158915178Y-109593750D01*
X158953273Y-109631845D01*
X158991369Y-109708035D01*
X158991369Y-109898511D01*
X158953273Y-109974702D01*
X158915178Y-110012797D01*
X158838988Y-110050892D01*
X158686607Y-110050892D01*
X158610416Y-110012797D01*
X158572321Y-109974702D01*
X158534226Y-109898511D01*
%TO.C,D62*%
X217665178Y-110355654D02*
X217665178Y-109555654D01*
X217474702Y-109555654D01*
X217360416Y-109593750D01*
X217284226Y-109669940D01*
X217246130Y-109746130D01*
X217208035Y-109898511D01*
X217208035Y-110012797D01*
X217246130Y-110165178D01*
X217284226Y-110241369D01*
X217360416Y-110317559D01*
X217474702Y-110355654D01*
X217665178Y-110355654D01*
X216522321Y-109555654D02*
X216674702Y-109555654D01*
X216750892Y-109593750D01*
X216788988Y-109631845D01*
X216865178Y-109746130D01*
X216903273Y-109898511D01*
X216903273Y-110203273D01*
X216865178Y-110279464D01*
X216827083Y-110317559D01*
X216750892Y-110355654D01*
X216598511Y-110355654D01*
X216522321Y-110317559D01*
X216484226Y-110279464D01*
X216446130Y-110203273D01*
X216446130Y-110012797D01*
X216484226Y-109936607D01*
X216522321Y-109898511D01*
X216598511Y-109860416D01*
X216750892Y-109860416D01*
X216827083Y-109898511D01*
X216865178Y-109936607D01*
X216903273Y-110012797D01*
X216141369Y-109631845D02*
X216103273Y-109593750D01*
X216027083Y-109555654D01*
X215836607Y-109555654D01*
X215760416Y-109593750D01*
X215722321Y-109631845D01*
X215684226Y-109708035D01*
X215684226Y-109784226D01*
X215722321Y-109898511D01*
X216179464Y-110355654D01*
X215684226Y-110355654D01*
%TO.C,D65*%
X17640178Y-129405654D02*
X17640178Y-128605654D01*
X17449702Y-128605654D01*
X17335416Y-128643750D01*
X17259226Y-128719940D01*
X17221130Y-128796130D01*
X17183035Y-128948511D01*
X17183035Y-129062797D01*
X17221130Y-129215178D01*
X17259226Y-129291369D01*
X17335416Y-129367559D01*
X17449702Y-129405654D01*
X17640178Y-129405654D01*
X16497321Y-128605654D02*
X16649702Y-128605654D01*
X16725892Y-128643750D01*
X16763988Y-128681845D01*
X16840178Y-128796130D01*
X16878273Y-128948511D01*
X16878273Y-129253273D01*
X16840178Y-129329464D01*
X16802083Y-129367559D01*
X16725892Y-129405654D01*
X16573511Y-129405654D01*
X16497321Y-129367559D01*
X16459226Y-129329464D01*
X16421130Y-129253273D01*
X16421130Y-129062797D01*
X16459226Y-128986607D01*
X16497321Y-128948511D01*
X16573511Y-128910416D01*
X16725892Y-128910416D01*
X16802083Y-128948511D01*
X16840178Y-128986607D01*
X16878273Y-129062797D01*
X15697321Y-128605654D02*
X16078273Y-128605654D01*
X16116369Y-128986607D01*
X16078273Y-128948511D01*
X16002083Y-128910416D01*
X15811607Y-128910416D01*
X15735416Y-128948511D01*
X15697321Y-128986607D01*
X15659226Y-129062797D01*
X15659226Y-129253273D01*
X15697321Y-129329464D01*
X15735416Y-129367559D01*
X15811607Y-129405654D01*
X16002083Y-129405654D01*
X16078273Y-129367559D01*
X16116369Y-129329464D01*
%TO.C,D63*%
X236715178Y-110355654D02*
X236715178Y-109555654D01*
X236524702Y-109555654D01*
X236410416Y-109593750D01*
X236334226Y-109669940D01*
X236296130Y-109746130D01*
X236258035Y-109898511D01*
X236258035Y-110012797D01*
X236296130Y-110165178D01*
X236334226Y-110241369D01*
X236410416Y-110317559D01*
X236524702Y-110355654D01*
X236715178Y-110355654D01*
X235572321Y-109555654D02*
X235724702Y-109555654D01*
X235800892Y-109593750D01*
X235838988Y-109631845D01*
X235915178Y-109746130D01*
X235953273Y-109898511D01*
X235953273Y-110203273D01*
X235915178Y-110279464D01*
X235877083Y-110317559D01*
X235800892Y-110355654D01*
X235648511Y-110355654D01*
X235572321Y-110317559D01*
X235534226Y-110279464D01*
X235496130Y-110203273D01*
X235496130Y-110012797D01*
X235534226Y-109936607D01*
X235572321Y-109898511D01*
X235648511Y-109860416D01*
X235800892Y-109860416D01*
X235877083Y-109898511D01*
X235915178Y-109936607D01*
X235953273Y-110012797D01*
X235229464Y-109555654D02*
X234734226Y-109555654D01*
X235000892Y-109860416D01*
X234886607Y-109860416D01*
X234810416Y-109898511D01*
X234772321Y-109936607D01*
X234734226Y-110012797D01*
X234734226Y-110203273D01*
X234772321Y-110279464D01*
X234810416Y-110317559D01*
X234886607Y-110355654D01*
X235115178Y-110355654D01*
X235191369Y-110317559D01*
X235229464Y-110279464D01*
%TO.C,D53*%
X46215178Y-110355654D02*
X46215178Y-109555654D01*
X46024702Y-109555654D01*
X45910416Y-109593750D01*
X45834226Y-109669940D01*
X45796130Y-109746130D01*
X45758035Y-109898511D01*
X45758035Y-110012797D01*
X45796130Y-110165178D01*
X45834226Y-110241369D01*
X45910416Y-110317559D01*
X46024702Y-110355654D01*
X46215178Y-110355654D01*
X45034226Y-109555654D02*
X45415178Y-109555654D01*
X45453273Y-109936607D01*
X45415178Y-109898511D01*
X45338988Y-109860416D01*
X45148511Y-109860416D01*
X45072321Y-109898511D01*
X45034226Y-109936607D01*
X44996130Y-110012797D01*
X44996130Y-110203273D01*
X45034226Y-110279464D01*
X45072321Y-110317559D01*
X45148511Y-110355654D01*
X45338988Y-110355654D01*
X45415178Y-110317559D01*
X45453273Y-110279464D01*
X44729464Y-109555654D02*
X44234226Y-109555654D01*
X44500892Y-109860416D01*
X44386607Y-109860416D01*
X44310416Y-109898511D01*
X44272321Y-109936607D01*
X44234226Y-110012797D01*
X44234226Y-110203273D01*
X44272321Y-110279464D01*
X44310416Y-110317559D01*
X44386607Y-110355654D01*
X44615178Y-110355654D01*
X44691369Y-110317559D01*
X44729464Y-110279464D01*
%TO.C,D60*%
X179565178Y-110355654D02*
X179565178Y-109555654D01*
X179374702Y-109555654D01*
X179260416Y-109593750D01*
X179184226Y-109669940D01*
X179146130Y-109746130D01*
X179108035Y-109898511D01*
X179108035Y-110012797D01*
X179146130Y-110165178D01*
X179184226Y-110241369D01*
X179260416Y-110317559D01*
X179374702Y-110355654D01*
X179565178Y-110355654D01*
X178422321Y-109555654D02*
X178574702Y-109555654D01*
X178650892Y-109593750D01*
X178688988Y-109631845D01*
X178765178Y-109746130D01*
X178803273Y-109898511D01*
X178803273Y-110203273D01*
X178765178Y-110279464D01*
X178727083Y-110317559D01*
X178650892Y-110355654D01*
X178498511Y-110355654D01*
X178422321Y-110317559D01*
X178384226Y-110279464D01*
X178346130Y-110203273D01*
X178346130Y-110012797D01*
X178384226Y-109936607D01*
X178422321Y-109898511D01*
X178498511Y-109860416D01*
X178650892Y-109860416D01*
X178727083Y-109898511D01*
X178765178Y-109936607D01*
X178803273Y-110012797D01*
X177850892Y-109555654D02*
X177774702Y-109555654D01*
X177698511Y-109593750D01*
X177660416Y-109631845D01*
X177622321Y-109708035D01*
X177584226Y-109860416D01*
X177584226Y-110050892D01*
X177622321Y-110203273D01*
X177660416Y-110279464D01*
X177698511Y-110317559D01*
X177774702Y-110355654D01*
X177850892Y-110355654D01*
X177927083Y-110317559D01*
X177965178Y-110279464D01*
X178003273Y-110203273D01*
X178041369Y-110050892D01*
X178041369Y-109860416D01*
X178003273Y-109708035D01*
X177965178Y-109631845D01*
X177927083Y-109593750D01*
X177850892Y-109555654D01*
%TO.C,D66*%
X36371428Y-129405654D02*
X36371428Y-128605654D01*
X36180952Y-128605654D01*
X36066666Y-128643750D01*
X35990476Y-128719940D01*
X35952380Y-128796130D01*
X35914285Y-128948511D01*
X35914285Y-129062797D01*
X35952380Y-129215178D01*
X35990476Y-129291369D01*
X36066666Y-129367559D01*
X36180952Y-129405654D01*
X36371428Y-129405654D01*
X35228571Y-128605654D02*
X35380952Y-128605654D01*
X35457142Y-128643750D01*
X35495238Y-128681845D01*
X35571428Y-128796130D01*
X35609523Y-128948511D01*
X35609523Y-129253273D01*
X35571428Y-129329464D01*
X35533333Y-129367559D01*
X35457142Y-129405654D01*
X35304761Y-129405654D01*
X35228571Y-129367559D01*
X35190476Y-129329464D01*
X35152380Y-129253273D01*
X35152380Y-129062797D01*
X35190476Y-128986607D01*
X35228571Y-128948511D01*
X35304761Y-128910416D01*
X35457142Y-128910416D01*
X35533333Y-128948511D01*
X35571428Y-128986607D01*
X35609523Y-129062797D01*
X34466666Y-128605654D02*
X34619047Y-128605654D01*
X34695238Y-128643750D01*
X34733333Y-128681845D01*
X34809523Y-128796130D01*
X34847619Y-128948511D01*
X34847619Y-129253273D01*
X34809523Y-129329464D01*
X34771428Y-129367559D01*
X34695238Y-129405654D01*
X34542857Y-129405654D01*
X34466666Y-129367559D01*
X34428571Y-129329464D01*
X34390476Y-129253273D01*
X34390476Y-129062797D01*
X34428571Y-128986607D01*
X34466666Y-128948511D01*
X34542857Y-128910416D01*
X34695238Y-128910416D01*
X34771428Y-128948511D01*
X34809523Y-128986607D01*
X34847619Y-129062797D01*
%TO.C,D52*%
X27165178Y-110355654D02*
X27165178Y-109555654D01*
X26974702Y-109555654D01*
X26860416Y-109593750D01*
X26784226Y-109669940D01*
X26746130Y-109746130D01*
X26708035Y-109898511D01*
X26708035Y-110012797D01*
X26746130Y-110165178D01*
X26784226Y-110241369D01*
X26860416Y-110317559D01*
X26974702Y-110355654D01*
X27165178Y-110355654D01*
X25984226Y-109555654D02*
X26365178Y-109555654D01*
X26403273Y-109936607D01*
X26365178Y-109898511D01*
X26288988Y-109860416D01*
X26098511Y-109860416D01*
X26022321Y-109898511D01*
X25984226Y-109936607D01*
X25946130Y-110012797D01*
X25946130Y-110203273D01*
X25984226Y-110279464D01*
X26022321Y-110317559D01*
X26098511Y-110355654D01*
X26288988Y-110355654D01*
X26365178Y-110317559D01*
X26403273Y-110279464D01*
X25641369Y-109631845D02*
X25603273Y-109593750D01*
X25527083Y-109555654D01*
X25336607Y-109555654D01*
X25260416Y-109593750D01*
X25222321Y-109631845D01*
X25184226Y-109708035D01*
X25184226Y-109784226D01*
X25222321Y-109898511D01*
X25679464Y-110355654D01*
X25184226Y-110355654D01*
%TO.C,D67*%
X55740178Y-129405654D02*
X55740178Y-128605654D01*
X55549702Y-128605654D01*
X55435416Y-128643750D01*
X55359226Y-128719940D01*
X55321130Y-128796130D01*
X55283035Y-128948511D01*
X55283035Y-129062797D01*
X55321130Y-129215178D01*
X55359226Y-129291369D01*
X55435416Y-129367559D01*
X55549702Y-129405654D01*
X55740178Y-129405654D01*
X54597321Y-128605654D02*
X54749702Y-128605654D01*
X54825892Y-128643750D01*
X54863988Y-128681845D01*
X54940178Y-128796130D01*
X54978273Y-128948511D01*
X54978273Y-129253273D01*
X54940178Y-129329464D01*
X54902083Y-129367559D01*
X54825892Y-129405654D01*
X54673511Y-129405654D01*
X54597321Y-129367559D01*
X54559226Y-129329464D01*
X54521130Y-129253273D01*
X54521130Y-129062797D01*
X54559226Y-128986607D01*
X54597321Y-128948511D01*
X54673511Y-128910416D01*
X54825892Y-128910416D01*
X54902083Y-128948511D01*
X54940178Y-128986607D01*
X54978273Y-129062797D01*
X54254464Y-128605654D02*
X53721130Y-128605654D01*
X54063988Y-129405654D01*
%TO.C,D68*%
X74790178Y-129405654D02*
X74790178Y-128605654D01*
X74599702Y-128605654D01*
X74485416Y-128643750D01*
X74409226Y-128719940D01*
X74371130Y-128796130D01*
X74333035Y-128948511D01*
X74333035Y-129062797D01*
X74371130Y-129215178D01*
X74409226Y-129291369D01*
X74485416Y-129367559D01*
X74599702Y-129405654D01*
X74790178Y-129405654D01*
X73647321Y-128605654D02*
X73799702Y-128605654D01*
X73875892Y-128643750D01*
X73913988Y-128681845D01*
X73990178Y-128796130D01*
X74028273Y-128948511D01*
X74028273Y-129253273D01*
X73990178Y-129329464D01*
X73952083Y-129367559D01*
X73875892Y-129405654D01*
X73723511Y-129405654D01*
X73647321Y-129367559D01*
X73609226Y-129329464D01*
X73571130Y-129253273D01*
X73571130Y-129062797D01*
X73609226Y-128986607D01*
X73647321Y-128948511D01*
X73723511Y-128910416D01*
X73875892Y-128910416D01*
X73952083Y-128948511D01*
X73990178Y-128986607D01*
X74028273Y-129062797D01*
X73113988Y-128948511D02*
X73190178Y-128910416D01*
X73228273Y-128872321D01*
X73266369Y-128796130D01*
X73266369Y-128758035D01*
X73228273Y-128681845D01*
X73190178Y-128643750D01*
X73113988Y-128605654D01*
X72961607Y-128605654D01*
X72885416Y-128643750D01*
X72847321Y-128681845D01*
X72809226Y-128758035D01*
X72809226Y-128796130D01*
X72847321Y-128872321D01*
X72885416Y-128910416D01*
X72961607Y-128948511D01*
X73113988Y-128948511D01*
X73190178Y-128986607D01*
X73228273Y-129024702D01*
X73266369Y-129100892D01*
X73266369Y-129253273D01*
X73228273Y-129329464D01*
X73190178Y-129367559D01*
X73113988Y-129405654D01*
X72961607Y-129405654D01*
X72885416Y-129367559D01*
X72847321Y-129329464D01*
X72809226Y-129253273D01*
X72809226Y-129100892D01*
X72847321Y-129024702D01*
X72885416Y-128986607D01*
X72961607Y-128948511D01*
%TO.C,D56*%
X103365178Y-110355654D02*
X103365178Y-109555654D01*
X103174702Y-109555654D01*
X103060416Y-109593750D01*
X102984226Y-109669940D01*
X102946130Y-109746130D01*
X102908035Y-109898511D01*
X102908035Y-110012797D01*
X102946130Y-110165178D01*
X102984226Y-110241369D01*
X103060416Y-110317559D01*
X103174702Y-110355654D01*
X103365178Y-110355654D01*
X102184226Y-109555654D02*
X102565178Y-109555654D01*
X102603273Y-109936607D01*
X102565178Y-109898511D01*
X102488988Y-109860416D01*
X102298511Y-109860416D01*
X102222321Y-109898511D01*
X102184226Y-109936607D01*
X102146130Y-110012797D01*
X102146130Y-110203273D01*
X102184226Y-110279464D01*
X102222321Y-110317559D01*
X102298511Y-110355654D01*
X102488988Y-110355654D01*
X102565178Y-110317559D01*
X102603273Y-110279464D01*
X101460416Y-109555654D02*
X101612797Y-109555654D01*
X101688988Y-109593750D01*
X101727083Y-109631845D01*
X101803273Y-109746130D01*
X101841369Y-109898511D01*
X101841369Y-110203273D01*
X101803273Y-110279464D01*
X101765178Y-110317559D01*
X101688988Y-110355654D01*
X101536607Y-110355654D01*
X101460416Y-110317559D01*
X101422321Y-110279464D01*
X101384226Y-110203273D01*
X101384226Y-110012797D01*
X101422321Y-109936607D01*
X101460416Y-109898511D01*
X101536607Y-109860416D01*
X101688988Y-109860416D01*
X101765178Y-109898511D01*
X101803273Y-109936607D01*
X101841369Y-110012797D01*
%TO.C,D61*%
X198615178Y-110355654D02*
X198615178Y-109555654D01*
X198424702Y-109555654D01*
X198310416Y-109593750D01*
X198234226Y-109669940D01*
X198196130Y-109746130D01*
X198158035Y-109898511D01*
X198158035Y-110012797D01*
X198196130Y-110165178D01*
X198234226Y-110241369D01*
X198310416Y-110317559D01*
X198424702Y-110355654D01*
X198615178Y-110355654D01*
X197472321Y-109555654D02*
X197624702Y-109555654D01*
X197700892Y-109593750D01*
X197738988Y-109631845D01*
X197815178Y-109746130D01*
X197853273Y-109898511D01*
X197853273Y-110203273D01*
X197815178Y-110279464D01*
X197777083Y-110317559D01*
X197700892Y-110355654D01*
X197548511Y-110355654D01*
X197472321Y-110317559D01*
X197434226Y-110279464D01*
X197396130Y-110203273D01*
X197396130Y-110012797D01*
X197434226Y-109936607D01*
X197472321Y-109898511D01*
X197548511Y-109860416D01*
X197700892Y-109860416D01*
X197777083Y-109898511D01*
X197815178Y-109936607D01*
X197853273Y-110012797D01*
X196634226Y-110355654D02*
X197091369Y-110355654D01*
X196862797Y-110355654D02*
X196862797Y-109555654D01*
X196938988Y-109669940D01*
X197015178Y-109746130D01*
X197091369Y-109784226D01*
%TO.C,D64*%
X-3791071Y-129405654D02*
X-3791071Y-128605654D01*
X-3981547Y-128605654D01*
X-4095833Y-128643750D01*
X-4172023Y-128719940D01*
X-4210119Y-128796130D01*
X-4248214Y-128948511D01*
X-4248214Y-129062797D01*
X-4210119Y-129215178D01*
X-4172023Y-129291369D01*
X-4095833Y-129367559D01*
X-3981547Y-129405654D01*
X-3791071Y-129405654D01*
X-4933928Y-128605654D02*
X-4781547Y-128605654D01*
X-4705357Y-128643750D01*
X-4667261Y-128681845D01*
X-4591071Y-128796130D01*
X-4552976Y-128948511D01*
X-4552976Y-129253273D01*
X-4591071Y-129329464D01*
X-4629166Y-129367559D01*
X-4705357Y-129405654D01*
X-4857738Y-129405654D01*
X-4933928Y-129367559D01*
X-4972023Y-129329464D01*
X-5010119Y-129253273D01*
X-5010119Y-129062797D01*
X-4972023Y-128986607D01*
X-4933928Y-128948511D01*
X-4857738Y-128910416D01*
X-4705357Y-128910416D01*
X-4629166Y-128948511D01*
X-4591071Y-128986607D01*
X-4552976Y-129062797D01*
X-5695833Y-128872321D02*
X-5695833Y-129405654D01*
X-5505357Y-128567559D02*
X-5314880Y-129138988D01*
X-5810119Y-129138988D01*
%TO.C,D54*%
X65265178Y-110355654D02*
X65265178Y-109555654D01*
X65074702Y-109555654D01*
X64960416Y-109593750D01*
X64884226Y-109669940D01*
X64846130Y-109746130D01*
X64808035Y-109898511D01*
X64808035Y-110012797D01*
X64846130Y-110165178D01*
X64884226Y-110241369D01*
X64960416Y-110317559D01*
X65074702Y-110355654D01*
X65265178Y-110355654D01*
X64084226Y-109555654D02*
X64465178Y-109555654D01*
X64503273Y-109936607D01*
X64465178Y-109898511D01*
X64388988Y-109860416D01*
X64198511Y-109860416D01*
X64122321Y-109898511D01*
X64084226Y-109936607D01*
X64046130Y-110012797D01*
X64046130Y-110203273D01*
X64084226Y-110279464D01*
X64122321Y-110317559D01*
X64198511Y-110355654D01*
X64388988Y-110355654D01*
X64465178Y-110317559D01*
X64503273Y-110279464D01*
X63360416Y-109822321D02*
X63360416Y-110355654D01*
X63550892Y-109517559D02*
X63741369Y-110088988D01*
X63246130Y-110088988D01*
%TO.C,D55*%
X84315178Y-110355654D02*
X84315178Y-109555654D01*
X84124702Y-109555654D01*
X84010416Y-109593750D01*
X83934226Y-109669940D01*
X83896130Y-109746130D01*
X83858035Y-109898511D01*
X83858035Y-110012797D01*
X83896130Y-110165178D01*
X83934226Y-110241369D01*
X84010416Y-110317559D01*
X84124702Y-110355654D01*
X84315178Y-110355654D01*
X83134226Y-109555654D02*
X83515178Y-109555654D01*
X83553273Y-109936607D01*
X83515178Y-109898511D01*
X83438988Y-109860416D01*
X83248511Y-109860416D01*
X83172321Y-109898511D01*
X83134226Y-109936607D01*
X83096130Y-110012797D01*
X83096130Y-110203273D01*
X83134226Y-110279464D01*
X83172321Y-110317559D01*
X83248511Y-110355654D01*
X83438988Y-110355654D01*
X83515178Y-110317559D01*
X83553273Y-110279464D01*
X82372321Y-109555654D02*
X82753273Y-109555654D01*
X82791369Y-109936607D01*
X82753273Y-109898511D01*
X82677083Y-109860416D01*
X82486607Y-109860416D01*
X82410416Y-109898511D01*
X82372321Y-109936607D01*
X82334226Y-110012797D01*
X82334226Y-110203273D01*
X82372321Y-110279464D01*
X82410416Y-110317559D01*
X82486607Y-110355654D01*
X82677083Y-110355654D01*
X82753273Y-110317559D01*
X82791369Y-110279464D01*
%TO.C,D69*%
X93840178Y-129405654D02*
X93840178Y-128605654D01*
X93649702Y-128605654D01*
X93535416Y-128643750D01*
X93459226Y-128719940D01*
X93421130Y-128796130D01*
X93383035Y-128948511D01*
X93383035Y-129062797D01*
X93421130Y-129215178D01*
X93459226Y-129291369D01*
X93535416Y-129367559D01*
X93649702Y-129405654D01*
X93840178Y-129405654D01*
X92697321Y-128605654D02*
X92849702Y-128605654D01*
X92925892Y-128643750D01*
X92963988Y-128681845D01*
X93040178Y-128796130D01*
X93078273Y-128948511D01*
X93078273Y-129253273D01*
X93040178Y-129329464D01*
X93002083Y-129367559D01*
X92925892Y-129405654D01*
X92773511Y-129405654D01*
X92697321Y-129367559D01*
X92659226Y-129329464D01*
X92621130Y-129253273D01*
X92621130Y-129062797D01*
X92659226Y-128986607D01*
X92697321Y-128948511D01*
X92773511Y-128910416D01*
X92925892Y-128910416D01*
X93002083Y-128948511D01*
X93040178Y-128986607D01*
X93078273Y-129062797D01*
X92240178Y-129405654D02*
X92087797Y-129405654D01*
X92011607Y-129367559D01*
X91973511Y-129329464D01*
X91897321Y-129215178D01*
X91859226Y-129062797D01*
X91859226Y-128758035D01*
X91897321Y-128681845D01*
X91935416Y-128643750D01*
X92011607Y-128605654D01*
X92163988Y-128605654D01*
X92240178Y-128643750D01*
X92278273Y-128681845D01*
X92316369Y-128758035D01*
X92316369Y-128948511D01*
X92278273Y-129024702D01*
X92240178Y-129062797D01*
X92163988Y-129100892D01*
X92011607Y-129100892D01*
X91935416Y-129062797D01*
X91897321Y-129024702D01*
X91859226Y-128948511D01*
%TO.C,D82*%
X186708928Y-148455654D02*
X186708928Y-147655654D01*
X186518452Y-147655654D01*
X186404166Y-147693750D01*
X186327976Y-147769940D01*
X186289880Y-147846130D01*
X186251785Y-147998511D01*
X186251785Y-148112797D01*
X186289880Y-148265178D01*
X186327976Y-148341369D01*
X186404166Y-148417559D01*
X186518452Y-148455654D01*
X186708928Y-148455654D01*
X185794642Y-147998511D02*
X185870833Y-147960416D01*
X185908928Y-147922321D01*
X185947023Y-147846130D01*
X185947023Y-147808035D01*
X185908928Y-147731845D01*
X185870833Y-147693750D01*
X185794642Y-147655654D01*
X185642261Y-147655654D01*
X185566071Y-147693750D01*
X185527976Y-147731845D01*
X185489880Y-147808035D01*
X185489880Y-147846130D01*
X185527976Y-147922321D01*
X185566071Y-147960416D01*
X185642261Y-147998511D01*
X185794642Y-147998511D01*
X185870833Y-148036607D01*
X185908928Y-148074702D01*
X185947023Y-148150892D01*
X185947023Y-148303273D01*
X185908928Y-148379464D01*
X185870833Y-148417559D01*
X185794642Y-148455654D01*
X185642261Y-148455654D01*
X185566071Y-148417559D01*
X185527976Y-148379464D01*
X185489880Y-148303273D01*
X185489880Y-148150892D01*
X185527976Y-148074702D01*
X185566071Y-148036607D01*
X185642261Y-147998511D01*
X185185119Y-147731845D02*
X185147023Y-147693750D01*
X185070833Y-147655654D01*
X184880357Y-147655654D01*
X184804166Y-147693750D01*
X184766071Y-147731845D01*
X184727976Y-147808035D01*
X184727976Y-147884226D01*
X184766071Y-147998511D01*
X185223214Y-148455654D01*
X184727976Y-148455654D01*
%TO.C,D77*%
X305771428Y-129405654D02*
X305771428Y-128605654D01*
X305580952Y-128605654D01*
X305466666Y-128643750D01*
X305390476Y-128719940D01*
X305352380Y-128796130D01*
X305314285Y-128948511D01*
X305314285Y-129062797D01*
X305352380Y-129215178D01*
X305390476Y-129291369D01*
X305466666Y-129367559D01*
X305580952Y-129405654D01*
X305771428Y-129405654D01*
X305047619Y-128605654D02*
X304514285Y-128605654D01*
X304857142Y-129405654D01*
X304285714Y-128605654D02*
X303752380Y-128605654D01*
X304095238Y-129405654D01*
%TO.C,D70*%
X112890178Y-129405654D02*
X112890178Y-128605654D01*
X112699702Y-128605654D01*
X112585416Y-128643750D01*
X112509226Y-128719940D01*
X112471130Y-128796130D01*
X112433035Y-128948511D01*
X112433035Y-129062797D01*
X112471130Y-129215178D01*
X112509226Y-129291369D01*
X112585416Y-129367559D01*
X112699702Y-129405654D01*
X112890178Y-129405654D01*
X112166369Y-128605654D02*
X111633035Y-128605654D01*
X111975892Y-129405654D01*
X111175892Y-128605654D02*
X111099702Y-128605654D01*
X111023511Y-128643750D01*
X110985416Y-128681845D01*
X110947321Y-128758035D01*
X110909226Y-128910416D01*
X110909226Y-129100892D01*
X110947321Y-129253273D01*
X110985416Y-129329464D01*
X111023511Y-129367559D01*
X111099702Y-129405654D01*
X111175892Y-129405654D01*
X111252083Y-129367559D01*
X111290178Y-129329464D01*
X111328273Y-129253273D01*
X111366369Y-129100892D01*
X111366369Y-128910416D01*
X111328273Y-128758035D01*
X111290178Y-128681845D01*
X111252083Y-128643750D01*
X111175892Y-128605654D01*
%TO.C,D83*%
X210521428Y-148455654D02*
X210521428Y-147655654D01*
X210330952Y-147655654D01*
X210216666Y-147693750D01*
X210140476Y-147769940D01*
X210102380Y-147846130D01*
X210064285Y-147998511D01*
X210064285Y-148112797D01*
X210102380Y-148265178D01*
X210140476Y-148341369D01*
X210216666Y-148417559D01*
X210330952Y-148455654D01*
X210521428Y-148455654D01*
X209607142Y-147998511D02*
X209683333Y-147960416D01*
X209721428Y-147922321D01*
X209759523Y-147846130D01*
X209759523Y-147808035D01*
X209721428Y-147731845D01*
X209683333Y-147693750D01*
X209607142Y-147655654D01*
X209454761Y-147655654D01*
X209378571Y-147693750D01*
X209340476Y-147731845D01*
X209302380Y-147808035D01*
X209302380Y-147846130D01*
X209340476Y-147922321D01*
X209378571Y-147960416D01*
X209454761Y-147998511D01*
X209607142Y-147998511D01*
X209683333Y-148036607D01*
X209721428Y-148074702D01*
X209759523Y-148150892D01*
X209759523Y-148303273D01*
X209721428Y-148379464D01*
X209683333Y-148417559D01*
X209607142Y-148455654D01*
X209454761Y-148455654D01*
X209378571Y-148417559D01*
X209340476Y-148379464D01*
X209302380Y-148303273D01*
X209302380Y-148150892D01*
X209340476Y-148074702D01*
X209378571Y-148036607D01*
X209454761Y-147998511D01*
X209035714Y-147655654D02*
X208540476Y-147655654D01*
X208807142Y-147960416D01*
X208692857Y-147960416D01*
X208616666Y-147998511D01*
X208578571Y-148036607D01*
X208540476Y-148112797D01*
X208540476Y-148303273D01*
X208578571Y-148379464D01*
X208616666Y-148417559D01*
X208692857Y-148455654D01*
X208921428Y-148455654D01*
X208997619Y-148417559D01*
X209035714Y-148379464D01*
%TO.C,D84*%
X234333928Y-148455654D02*
X234333928Y-147655654D01*
X234143452Y-147655654D01*
X234029166Y-147693750D01*
X233952976Y-147769940D01*
X233914880Y-147846130D01*
X233876785Y-147998511D01*
X233876785Y-148112797D01*
X233914880Y-148265178D01*
X233952976Y-148341369D01*
X234029166Y-148417559D01*
X234143452Y-148455654D01*
X234333928Y-148455654D01*
X233419642Y-147998511D02*
X233495833Y-147960416D01*
X233533928Y-147922321D01*
X233572023Y-147846130D01*
X233572023Y-147808035D01*
X233533928Y-147731845D01*
X233495833Y-147693750D01*
X233419642Y-147655654D01*
X233267261Y-147655654D01*
X233191071Y-147693750D01*
X233152976Y-147731845D01*
X233114880Y-147808035D01*
X233114880Y-147846130D01*
X233152976Y-147922321D01*
X233191071Y-147960416D01*
X233267261Y-147998511D01*
X233419642Y-147998511D01*
X233495833Y-148036607D01*
X233533928Y-148074702D01*
X233572023Y-148150892D01*
X233572023Y-148303273D01*
X233533928Y-148379464D01*
X233495833Y-148417559D01*
X233419642Y-148455654D01*
X233267261Y-148455654D01*
X233191071Y-148417559D01*
X233152976Y-148379464D01*
X233114880Y-148303273D01*
X233114880Y-148150892D01*
X233152976Y-148074702D01*
X233191071Y-148036607D01*
X233267261Y-147998511D01*
X232429166Y-147922321D02*
X232429166Y-148455654D01*
X232619642Y-147617559D02*
X232810119Y-148188988D01*
X232314880Y-148188988D01*
%TO.C,D76*%
X243858928Y-129405654D02*
X243858928Y-128605654D01*
X243668452Y-128605654D01*
X243554166Y-128643750D01*
X243477976Y-128719940D01*
X243439880Y-128796130D01*
X243401785Y-128948511D01*
X243401785Y-129062797D01*
X243439880Y-129215178D01*
X243477976Y-129291369D01*
X243554166Y-129367559D01*
X243668452Y-129405654D01*
X243858928Y-129405654D01*
X243135119Y-128605654D02*
X242601785Y-128605654D01*
X242944642Y-129405654D01*
X241954166Y-128605654D02*
X242106547Y-128605654D01*
X242182738Y-128643750D01*
X242220833Y-128681845D01*
X242297023Y-128796130D01*
X242335119Y-128948511D01*
X242335119Y-129253273D01*
X242297023Y-129329464D01*
X242258928Y-129367559D01*
X242182738Y-129405654D01*
X242030357Y-129405654D01*
X241954166Y-129367559D01*
X241916071Y-129329464D01*
X241877976Y-129253273D01*
X241877976Y-129062797D01*
X241916071Y-128986607D01*
X241954166Y-128948511D01*
X242030357Y-128910416D01*
X242182738Y-128910416D01*
X242258928Y-128948511D01*
X242297023Y-128986607D01*
X242335119Y-129062797D01*
%TO.C,D79*%
X20021428Y-148455654D02*
X20021428Y-147655654D01*
X19830952Y-147655654D01*
X19716666Y-147693750D01*
X19640476Y-147769940D01*
X19602380Y-147846130D01*
X19564285Y-147998511D01*
X19564285Y-148112797D01*
X19602380Y-148265178D01*
X19640476Y-148341369D01*
X19716666Y-148417559D01*
X19830952Y-148455654D01*
X20021428Y-148455654D01*
X19297619Y-147655654D02*
X18764285Y-147655654D01*
X19107142Y-148455654D01*
X18421428Y-148455654D02*
X18269047Y-148455654D01*
X18192857Y-148417559D01*
X18154761Y-148379464D01*
X18078571Y-148265178D01*
X18040476Y-148112797D01*
X18040476Y-147808035D01*
X18078571Y-147731845D01*
X18116666Y-147693750D01*
X18192857Y-147655654D01*
X18345238Y-147655654D01*
X18421428Y-147693750D01*
X18459523Y-147731845D01*
X18497619Y-147808035D01*
X18497619Y-147998511D01*
X18459523Y-148074702D01*
X18421428Y-148112797D01*
X18345238Y-148150892D01*
X18192857Y-148150892D01*
X18116666Y-148112797D01*
X18078571Y-148074702D01*
X18040476Y-147998511D01*
%TO.C,D81*%
X115271428Y-148455654D02*
X115271428Y-147655654D01*
X115080952Y-147655654D01*
X114966666Y-147693750D01*
X114890476Y-147769940D01*
X114852380Y-147846130D01*
X114814285Y-147998511D01*
X114814285Y-148112797D01*
X114852380Y-148265178D01*
X114890476Y-148341369D01*
X114966666Y-148417559D01*
X115080952Y-148455654D01*
X115271428Y-148455654D01*
X114357142Y-147998511D02*
X114433333Y-147960416D01*
X114471428Y-147922321D01*
X114509523Y-147846130D01*
X114509523Y-147808035D01*
X114471428Y-147731845D01*
X114433333Y-147693750D01*
X114357142Y-147655654D01*
X114204761Y-147655654D01*
X114128571Y-147693750D01*
X114090476Y-147731845D01*
X114052380Y-147808035D01*
X114052380Y-147846130D01*
X114090476Y-147922321D01*
X114128571Y-147960416D01*
X114204761Y-147998511D01*
X114357142Y-147998511D01*
X114433333Y-148036607D01*
X114471428Y-148074702D01*
X114509523Y-148150892D01*
X114509523Y-148303273D01*
X114471428Y-148379464D01*
X114433333Y-148417559D01*
X114357142Y-148455654D01*
X114204761Y-148455654D01*
X114128571Y-148417559D01*
X114090476Y-148379464D01*
X114052380Y-148303273D01*
X114052380Y-148150892D01*
X114090476Y-148074702D01*
X114128571Y-148036607D01*
X114204761Y-147998511D01*
X113290476Y-148455654D02*
X113747619Y-148455654D01*
X113519047Y-148455654D02*
X113519047Y-147655654D01*
X113595238Y-147769940D01*
X113671428Y-147846130D01*
X113747619Y-147884226D01*
%TO.C,D72*%
X150990178Y-128949404D02*
X150990178Y-128149404D01*
X150799702Y-128149404D01*
X150685416Y-128187500D01*
X150609226Y-128263690D01*
X150571130Y-128339880D01*
X150533035Y-128492261D01*
X150533035Y-128606547D01*
X150571130Y-128758928D01*
X150609226Y-128835119D01*
X150685416Y-128911309D01*
X150799702Y-128949404D01*
X150990178Y-128949404D01*
X150266369Y-128149404D02*
X149733035Y-128149404D01*
X150075892Y-128949404D01*
X149466369Y-128225595D02*
X149428273Y-128187500D01*
X149352083Y-128149404D01*
X149161607Y-128149404D01*
X149085416Y-128187500D01*
X149047321Y-128225595D01*
X149009226Y-128301785D01*
X149009226Y-128377976D01*
X149047321Y-128492261D01*
X149504464Y-128949404D01*
X149009226Y-128949404D01*
%TO.C,D80*%
X43833928Y-148455654D02*
X43833928Y-147655654D01*
X43643452Y-147655654D01*
X43529166Y-147693750D01*
X43452976Y-147769940D01*
X43414880Y-147846130D01*
X43376785Y-147998511D01*
X43376785Y-148112797D01*
X43414880Y-148265178D01*
X43452976Y-148341369D01*
X43529166Y-148417559D01*
X43643452Y-148455654D01*
X43833928Y-148455654D01*
X42919642Y-147998511D02*
X42995833Y-147960416D01*
X43033928Y-147922321D01*
X43072023Y-147846130D01*
X43072023Y-147808035D01*
X43033928Y-147731845D01*
X42995833Y-147693750D01*
X42919642Y-147655654D01*
X42767261Y-147655654D01*
X42691071Y-147693750D01*
X42652976Y-147731845D01*
X42614880Y-147808035D01*
X42614880Y-147846130D01*
X42652976Y-147922321D01*
X42691071Y-147960416D01*
X42767261Y-147998511D01*
X42919642Y-147998511D01*
X42995833Y-148036607D01*
X43033928Y-148074702D01*
X43072023Y-148150892D01*
X43072023Y-148303273D01*
X43033928Y-148379464D01*
X42995833Y-148417559D01*
X42919642Y-148455654D01*
X42767261Y-148455654D01*
X42691071Y-148417559D01*
X42652976Y-148379464D01*
X42614880Y-148303273D01*
X42614880Y-148150892D01*
X42652976Y-148074702D01*
X42691071Y-148036607D01*
X42767261Y-147998511D01*
X42119642Y-147655654D02*
X42043452Y-147655654D01*
X41967261Y-147693750D01*
X41929166Y-147731845D01*
X41891071Y-147808035D01*
X41852976Y-147960416D01*
X41852976Y-148150892D01*
X41891071Y-148303273D01*
X41929166Y-148379464D01*
X41967261Y-148417559D01*
X42043452Y-148455654D01*
X42119642Y-148455654D01*
X42195833Y-148417559D01*
X42233928Y-148379464D01*
X42272023Y-148303273D01*
X42310119Y-148150892D01*
X42310119Y-147960416D01*
X42272023Y-147808035D01*
X42233928Y-147731845D01*
X42195833Y-147693750D01*
X42119642Y-147655654D01*
%TO.C,D85*%
X258146428Y-148455654D02*
X258146428Y-147655654D01*
X257955952Y-147655654D01*
X257841666Y-147693750D01*
X257765476Y-147769940D01*
X257727380Y-147846130D01*
X257689285Y-147998511D01*
X257689285Y-148112797D01*
X257727380Y-148265178D01*
X257765476Y-148341369D01*
X257841666Y-148417559D01*
X257955952Y-148455654D01*
X258146428Y-148455654D01*
X257232142Y-147998511D02*
X257308333Y-147960416D01*
X257346428Y-147922321D01*
X257384523Y-147846130D01*
X257384523Y-147808035D01*
X257346428Y-147731845D01*
X257308333Y-147693750D01*
X257232142Y-147655654D01*
X257079761Y-147655654D01*
X257003571Y-147693750D01*
X256965476Y-147731845D01*
X256927380Y-147808035D01*
X256927380Y-147846130D01*
X256965476Y-147922321D01*
X257003571Y-147960416D01*
X257079761Y-147998511D01*
X257232142Y-147998511D01*
X257308333Y-148036607D01*
X257346428Y-148074702D01*
X257384523Y-148150892D01*
X257384523Y-148303273D01*
X257346428Y-148379464D01*
X257308333Y-148417559D01*
X257232142Y-148455654D01*
X257079761Y-148455654D01*
X257003571Y-148417559D01*
X256965476Y-148379464D01*
X256927380Y-148303273D01*
X256927380Y-148150892D01*
X256965476Y-148074702D01*
X257003571Y-148036607D01*
X257079761Y-147998511D01*
X256203571Y-147655654D02*
X256584523Y-147655654D01*
X256622619Y-148036607D01*
X256584523Y-147998511D01*
X256508333Y-147960416D01*
X256317857Y-147960416D01*
X256241666Y-147998511D01*
X256203571Y-148036607D01*
X256165476Y-148112797D01*
X256165476Y-148303273D01*
X256203571Y-148379464D01*
X256241666Y-148417559D01*
X256317857Y-148455654D01*
X256508333Y-148455654D01*
X256584523Y-148417559D01*
X256622619Y-148379464D01*
%TO.C,D86*%
X286721428Y-148455654D02*
X286721428Y-147655654D01*
X286530952Y-147655654D01*
X286416666Y-147693750D01*
X286340476Y-147769940D01*
X286302380Y-147846130D01*
X286264285Y-147998511D01*
X286264285Y-148112797D01*
X286302380Y-148265178D01*
X286340476Y-148341369D01*
X286416666Y-148417559D01*
X286530952Y-148455654D01*
X286721428Y-148455654D01*
X285807142Y-147998511D02*
X285883333Y-147960416D01*
X285921428Y-147922321D01*
X285959523Y-147846130D01*
X285959523Y-147808035D01*
X285921428Y-147731845D01*
X285883333Y-147693750D01*
X285807142Y-147655654D01*
X285654761Y-147655654D01*
X285578571Y-147693750D01*
X285540476Y-147731845D01*
X285502380Y-147808035D01*
X285502380Y-147846130D01*
X285540476Y-147922321D01*
X285578571Y-147960416D01*
X285654761Y-147998511D01*
X285807142Y-147998511D01*
X285883333Y-148036607D01*
X285921428Y-148074702D01*
X285959523Y-148150892D01*
X285959523Y-148303273D01*
X285921428Y-148379464D01*
X285883333Y-148417559D01*
X285807142Y-148455654D01*
X285654761Y-148455654D01*
X285578571Y-148417559D01*
X285540476Y-148379464D01*
X285502380Y-148303273D01*
X285502380Y-148150892D01*
X285540476Y-148074702D01*
X285578571Y-148036607D01*
X285654761Y-147998511D01*
X284816666Y-147655654D02*
X284969047Y-147655654D01*
X285045238Y-147693750D01*
X285083333Y-147731845D01*
X285159523Y-147846130D01*
X285197619Y-147998511D01*
X285197619Y-148303273D01*
X285159523Y-148379464D01*
X285121428Y-148417559D01*
X285045238Y-148455654D01*
X284892857Y-148455654D01*
X284816666Y-148417559D01*
X284778571Y-148379464D01*
X284740476Y-148303273D01*
X284740476Y-148112797D01*
X284778571Y-148036607D01*
X284816666Y-147998511D01*
X284892857Y-147960416D01*
X285045238Y-147960416D01*
X285121428Y-147998511D01*
X285159523Y-148036607D01*
X285197619Y-148112797D01*
%TO.C,D87*%
X305771428Y-148455654D02*
X305771428Y-147655654D01*
X305580952Y-147655654D01*
X305466666Y-147693750D01*
X305390476Y-147769940D01*
X305352380Y-147846130D01*
X305314285Y-147998511D01*
X305314285Y-148112797D01*
X305352380Y-148265178D01*
X305390476Y-148341369D01*
X305466666Y-148417559D01*
X305580952Y-148455654D01*
X305771428Y-148455654D01*
X304857142Y-147998511D02*
X304933333Y-147960416D01*
X304971428Y-147922321D01*
X305009523Y-147846130D01*
X305009523Y-147808035D01*
X304971428Y-147731845D01*
X304933333Y-147693750D01*
X304857142Y-147655654D01*
X304704761Y-147655654D01*
X304628571Y-147693750D01*
X304590476Y-147731845D01*
X304552380Y-147808035D01*
X304552380Y-147846130D01*
X304590476Y-147922321D01*
X304628571Y-147960416D01*
X304704761Y-147998511D01*
X304857142Y-147998511D01*
X304933333Y-148036607D01*
X304971428Y-148074702D01*
X305009523Y-148150892D01*
X305009523Y-148303273D01*
X304971428Y-148379464D01*
X304933333Y-148417559D01*
X304857142Y-148455654D01*
X304704761Y-148455654D01*
X304628571Y-148417559D01*
X304590476Y-148379464D01*
X304552380Y-148303273D01*
X304552380Y-148150892D01*
X304590476Y-148074702D01*
X304628571Y-148036607D01*
X304704761Y-147998511D01*
X304285714Y-147655654D02*
X303752380Y-147655654D01*
X304095238Y-148455654D01*
%TO.C,D71*%
X131940178Y-129405654D02*
X131940178Y-128605654D01*
X131749702Y-128605654D01*
X131635416Y-128643750D01*
X131559226Y-128719940D01*
X131521130Y-128796130D01*
X131483035Y-128948511D01*
X131483035Y-129062797D01*
X131521130Y-129215178D01*
X131559226Y-129291369D01*
X131635416Y-129367559D01*
X131749702Y-129405654D01*
X131940178Y-129405654D01*
X131216369Y-128605654D02*
X130683035Y-128605654D01*
X131025892Y-129405654D01*
X129959226Y-129405654D02*
X130416369Y-129405654D01*
X130187797Y-129405654D02*
X130187797Y-128605654D01*
X130263988Y-128719940D01*
X130340178Y-128796130D01*
X130416369Y-128834226D01*
%TO.C,D73*%
X170040178Y-129405654D02*
X170040178Y-128605654D01*
X169849702Y-128605654D01*
X169735416Y-128643750D01*
X169659226Y-128719940D01*
X169621130Y-128796130D01*
X169583035Y-128948511D01*
X169583035Y-129062797D01*
X169621130Y-129215178D01*
X169659226Y-129291369D01*
X169735416Y-129367559D01*
X169849702Y-129405654D01*
X170040178Y-129405654D01*
X169316369Y-128605654D02*
X168783035Y-128605654D01*
X169125892Y-129405654D01*
X168554464Y-128605654D02*
X168059226Y-128605654D01*
X168325892Y-128910416D01*
X168211607Y-128910416D01*
X168135416Y-128948511D01*
X168097321Y-128986607D01*
X168059226Y-129062797D01*
X168059226Y-129253273D01*
X168097321Y-129329464D01*
X168135416Y-129367559D01*
X168211607Y-129405654D01*
X168440178Y-129405654D01*
X168516369Y-129367559D01*
X168554464Y-129329464D01*
%TO.C,D75*%
X208140178Y-129405654D02*
X208140178Y-128605654D01*
X207949702Y-128605654D01*
X207835416Y-128643750D01*
X207759226Y-128719940D01*
X207721130Y-128796130D01*
X207683035Y-128948511D01*
X207683035Y-129062797D01*
X207721130Y-129215178D01*
X207759226Y-129291369D01*
X207835416Y-129367559D01*
X207949702Y-129405654D01*
X208140178Y-129405654D01*
X207416369Y-128605654D02*
X206883035Y-128605654D01*
X207225892Y-129405654D01*
X206197321Y-128605654D02*
X206578273Y-128605654D01*
X206616369Y-128986607D01*
X206578273Y-128948511D01*
X206502083Y-128910416D01*
X206311607Y-128910416D01*
X206235416Y-128948511D01*
X206197321Y-128986607D01*
X206159226Y-129062797D01*
X206159226Y-129253273D01*
X206197321Y-129329464D01*
X206235416Y-129367559D01*
X206311607Y-129405654D01*
X206502083Y-129405654D01*
X206578273Y-129367559D01*
X206616369Y-129329464D01*
%TO.C,D78*%
X-3791071Y-148455654D02*
X-3791071Y-147655654D01*
X-3981547Y-147655654D01*
X-4095833Y-147693750D01*
X-4172023Y-147769940D01*
X-4210119Y-147846130D01*
X-4248214Y-147998511D01*
X-4248214Y-148112797D01*
X-4210119Y-148265178D01*
X-4172023Y-148341369D01*
X-4095833Y-148417559D01*
X-3981547Y-148455654D01*
X-3791071Y-148455654D01*
X-4514880Y-147655654D02*
X-5048214Y-147655654D01*
X-4705357Y-148455654D01*
X-5467261Y-147998511D02*
X-5391071Y-147960416D01*
X-5352976Y-147922321D01*
X-5314880Y-147846130D01*
X-5314880Y-147808035D01*
X-5352976Y-147731845D01*
X-5391071Y-147693750D01*
X-5467261Y-147655654D01*
X-5619642Y-147655654D01*
X-5695833Y-147693750D01*
X-5733928Y-147731845D01*
X-5772023Y-147808035D01*
X-5772023Y-147846130D01*
X-5733928Y-147922321D01*
X-5695833Y-147960416D01*
X-5619642Y-147998511D01*
X-5467261Y-147998511D01*
X-5391071Y-148036607D01*
X-5352976Y-148074702D01*
X-5314880Y-148150892D01*
X-5314880Y-148303273D01*
X-5352976Y-148379464D01*
X-5391071Y-148417559D01*
X-5467261Y-148455654D01*
X-5619642Y-148455654D01*
X-5695833Y-148417559D01*
X-5733928Y-148379464D01*
X-5772023Y-148303273D01*
X-5772023Y-148150892D01*
X-5733928Y-148074702D01*
X-5695833Y-148036607D01*
X-5619642Y-147998511D01*
%TO.C,D74*%
X189090178Y-129405654D02*
X189090178Y-128605654D01*
X188899702Y-128605654D01*
X188785416Y-128643750D01*
X188709226Y-128719940D01*
X188671130Y-128796130D01*
X188633035Y-128948511D01*
X188633035Y-129062797D01*
X188671130Y-129215178D01*
X188709226Y-129291369D01*
X188785416Y-129367559D01*
X188899702Y-129405654D01*
X189090178Y-129405654D01*
X188366369Y-128605654D02*
X187833035Y-128605654D01*
X188175892Y-129405654D01*
X187185416Y-128872321D02*
X187185416Y-129405654D01*
X187375892Y-128567559D02*
X187566369Y-129138988D01*
X187071130Y-129138988D01*
%TO.C,D88*%
X325140178Y-148455654D02*
X325140178Y-147655654D01*
X324949702Y-147655654D01*
X324835416Y-147693750D01*
X324759226Y-147769940D01*
X324721130Y-147846130D01*
X324683035Y-147998511D01*
X324683035Y-148112797D01*
X324721130Y-148265178D01*
X324759226Y-148341369D01*
X324835416Y-148417559D01*
X324949702Y-148455654D01*
X325140178Y-148455654D01*
X324225892Y-147998511D02*
X324302083Y-147960416D01*
X324340178Y-147922321D01*
X324378273Y-147846130D01*
X324378273Y-147808035D01*
X324340178Y-147731845D01*
X324302083Y-147693750D01*
X324225892Y-147655654D01*
X324073511Y-147655654D01*
X323997321Y-147693750D01*
X323959226Y-147731845D01*
X323921130Y-147808035D01*
X323921130Y-147846130D01*
X323959226Y-147922321D01*
X323997321Y-147960416D01*
X324073511Y-147998511D01*
X324225892Y-147998511D01*
X324302083Y-148036607D01*
X324340178Y-148074702D01*
X324378273Y-148150892D01*
X324378273Y-148303273D01*
X324340178Y-148379464D01*
X324302083Y-148417559D01*
X324225892Y-148455654D01*
X324073511Y-148455654D01*
X323997321Y-148417559D01*
X323959226Y-148379464D01*
X323921130Y-148303273D01*
X323921130Y-148150892D01*
X323959226Y-148074702D01*
X323997321Y-148036607D01*
X324073511Y-147998511D01*
X323463988Y-147998511D02*
X323540178Y-147960416D01*
X323578273Y-147922321D01*
X323616369Y-147846130D01*
X323616369Y-147808035D01*
X323578273Y-147731845D01*
X323540178Y-147693750D01*
X323463988Y-147655654D01*
X323311607Y-147655654D01*
X323235416Y-147693750D01*
X323197321Y-147731845D01*
X323159226Y-147808035D01*
X323159226Y-147846130D01*
X323197321Y-147922321D01*
X323235416Y-147960416D01*
X323311607Y-147998511D01*
X323463988Y-147998511D01*
X323540178Y-148036607D01*
X323578273Y-148074702D01*
X323616369Y-148150892D01*
X323616369Y-148303273D01*
X323578273Y-148379464D01*
X323540178Y-148417559D01*
X323463988Y-148455654D01*
X323311607Y-148455654D01*
X323235416Y-148417559D01*
X323197321Y-148379464D01*
X323159226Y-148303273D01*
X323159226Y-148150892D01*
X323197321Y-148074702D01*
X323235416Y-148036607D01*
X323311607Y-147998511D01*
%TO.C,C3*%
X276391666Y-128213392D02*
X276439285Y-128261011D01*
X276582142Y-128308630D01*
X276677380Y-128308630D01*
X276820238Y-128261011D01*
X276915476Y-128165773D01*
X276963095Y-128070535D01*
X277010714Y-127880059D01*
X277010714Y-127737202D01*
X276963095Y-127546726D01*
X276915476Y-127451488D01*
X276820238Y-127356250D01*
X276677380Y-127308630D01*
X276582142Y-127308630D01*
X276439285Y-127356250D01*
X276391666Y-127403869D01*
X276058333Y-127308630D02*
X275439285Y-127308630D01*
X275772619Y-127689583D01*
X275629761Y-127689583D01*
X275534523Y-127737202D01*
X275486904Y-127784821D01*
X275439285Y-127880059D01*
X275439285Y-128118154D01*
X275486904Y-128213392D01*
X275534523Y-128261011D01*
X275629761Y-128308630D01*
X275915476Y-128308630D01*
X276010714Y-128261011D01*
X276058333Y-128213392D01*
%TO.C,C4*%
X285916666Y-128213392D02*
X285964285Y-128261011D01*
X286107142Y-128308630D01*
X286202380Y-128308630D01*
X286345238Y-128261011D01*
X286440476Y-128165773D01*
X286488095Y-128070535D01*
X286535714Y-127880059D01*
X286535714Y-127737202D01*
X286488095Y-127546726D01*
X286440476Y-127451488D01*
X286345238Y-127356250D01*
X286202380Y-127308630D01*
X286107142Y-127308630D01*
X285964285Y-127356250D01*
X285916666Y-127403869D01*
X285059523Y-127641964D02*
X285059523Y-128308630D01*
X285297619Y-127261011D02*
X285535714Y-127975297D01*
X284916666Y-127975297D01*
%TO.C,C2*%
X295441666Y-117769642D02*
X295489285Y-117817261D01*
X295632142Y-117864880D01*
X295727380Y-117864880D01*
X295870238Y-117817261D01*
X295965476Y-117722023D01*
X296013095Y-117626785D01*
X296060714Y-117436309D01*
X296060714Y-117293452D01*
X296013095Y-117102976D01*
X295965476Y-117007738D01*
X295870238Y-116912500D01*
X295727380Y-116864880D01*
X295632142Y-116864880D01*
X295489285Y-116912500D01*
X295441666Y-116960119D01*
X295060714Y-116960119D02*
X295013095Y-116912500D01*
X294917857Y-116864880D01*
X294679761Y-116864880D01*
X294584523Y-116912500D01*
X294536904Y-116960119D01*
X294489285Y-117055357D01*
X294489285Y-117150595D01*
X294536904Y-117293452D01*
X295108333Y-117864880D01*
X294489285Y-117864880D01*
%TO.C,C5*%
X285916666Y-104400892D02*
X285964285Y-104448511D01*
X286107142Y-104496130D01*
X286202380Y-104496130D01*
X286345238Y-104448511D01*
X286440476Y-104353273D01*
X286488095Y-104258035D01*
X286535714Y-104067559D01*
X286535714Y-103924702D01*
X286488095Y-103734226D01*
X286440476Y-103638988D01*
X286345238Y-103543750D01*
X286202380Y-103496130D01*
X286107142Y-103496130D01*
X285964285Y-103543750D01*
X285916666Y-103591369D01*
X285011904Y-103496130D02*
X285488095Y-103496130D01*
X285535714Y-103972321D01*
X285488095Y-103924702D01*
X285392857Y-103877083D01*
X285154761Y-103877083D01*
X285059523Y-103924702D01*
X285011904Y-103972321D01*
X284964285Y-104067559D01*
X284964285Y-104305654D01*
X285011904Y-104400892D01*
X285059523Y-104448511D01*
X285154761Y-104496130D01*
X285392857Y-104496130D01*
X285488095Y-104448511D01*
X285535714Y-104400892D01*
%TO.C,C1*%
X295441666Y-105863392D02*
X295489285Y-105911011D01*
X295632142Y-105958630D01*
X295727380Y-105958630D01*
X295870238Y-105911011D01*
X295965476Y-105815773D01*
X296013095Y-105720535D01*
X296060714Y-105530059D01*
X296060714Y-105387202D01*
X296013095Y-105196726D01*
X295965476Y-105101488D01*
X295870238Y-105006250D01*
X295727380Y-104958630D01*
X295632142Y-104958630D01*
X295489285Y-105006250D01*
X295441666Y-105053869D01*
X294489285Y-105958630D02*
X295060714Y-105958630D01*
X294775000Y-105958630D02*
X294775000Y-104958630D01*
X294870238Y-105101488D01*
X294965476Y-105196726D01*
X295060714Y-105244345D01*
%TD*%
M02*
